<svg width="107.000000" height="94.000000" viewBox="0 0 107 94" fill="none" xmlns="http://www.w3.org/2000/svg" xmlns:xlink="http://www.w3.org/1999/xlink">
	<desc>
			Created with Pixso.
	</desc>
	<defs/>
	<path id="path" d="M106.04 20.34L106.04 4.11C106.04 1.71 104.09 -0.24 101.7 -0.24L4.33 -0.24C1.93 -0.24 -0.01 1.71 -0.01 4.11L-0.01 20.34C-0.01 22.74 1.93 24.68 4.33 24.68L24.5 24.68C26.9 24.68 28.84 26.63 28.84 29.02L28.84 40.19C28.84 42.59 30.78 44.53 33.18 44.53L55.61 44.53C58 44.53 59.95 46.48 59.95 48.87L59.95 62.94C59.95 65.33 58 67.28 55.61 67.28L33.18 67.28C30.78 67.28 28.84 69.22 28.84 71.62L28.84 89.01C28.84 91.41 30.78 93.36 33.18 93.36L56.95 93.36C59.35 93.36 61.29 91.41 61.29 89.01L61.29 73.21C61.29 70.81 63.24 68.87 65.63 68.87L72.84 68.87C75.24 68.87 77.19 66.93 77.19 64.53L77.19 47.13C77.19 44.74 75.24 42.79 72.84 42.79L65.63 42.79C63.24 42.79 61.29 40.85 61.29 38.45L61.29 29.02C61.29 26.63 63.24 24.68 65.63 24.68L101.7 24.68C104.09 24.68 106.04 22.74 106.04 20.34Z" fill="#FFFFFF" fill-opacity="1.000000" fill-rule="nonzero"/>
</svg>
