<svg width="221.000000" height="29.000000" viewBox="0 0 221 29" fill="none" xmlns="http://www.w3.org/2000/svg" xmlns:xlink="http://www.w3.org/1999/xlink">
	<desc>
			Created with Pixso.
	</desc>
	<defs/>
	<path id="Congratulations!" d="M114.18 -0.92C115.26 0.71 116.48 2.89 116.93 4.27L114.65 5.17C114.21 3.78 113.09 1.52 112.03 -0.15L114.18 -0.92ZM63.71 8.42C66.65 6.22 69.53 2.7 71.36 -0.86L73.47 -0.15C72.71 1.42 71.71 2.96 70.65 4.42L70.65 17.42L68.35 17.42L68.35 7.28C67.36 8.39 66.3 9.42 65.28 10.28C64.96 9.84 64.19 8.88 63.71 8.42ZM28.67 9.55L28.67 11.75L21.12 11.75C23.14 14.25 26.34 16.53 29.41 17.64C28.89 18.09 28.22 18.92 27.87 19.53C24.35 18.03 20.77 15.02 18.65 11.75L10.34 11.75C8.19 15.21 4.74 17.96 1.25 19.78C0.92 19.31 0.03 18.44 -0.48 18.03C2.72 16.59 5.7 14.41 7.58 11.75L0.42 11.75L0.42 9.55L8.19 9.55L8.19 5.32L2.46 5.32L2.46 3.11L8.19 3.11L8.19 -0.82L10.53 -0.82L10.53 3.11L18.37 3.11L18.37 -0.82L20.71 -0.82L20.71 3.11L26.53 3.11L26.53 5.32L20.71 5.32L20.71 9.55L28.67 9.55ZM35.39 5.48L45.21 5.48L45.21 3.28L33.15 3.28L33.15 1.48L45.21 1.48L45.21 -0.82L47.61 -0.82L47.61 1.48L59.96 1.48L59.96 3.28L47.61 3.28L47.61 5.48L57.82 5.48L57.82 7.25L35.39 7.25L35.39 5.48ZM88 7.43C88.45 6.64 89.03 5.45 89.53 4.3L77.5 4.3C76.51 5.96 75.36 7.43 74.17 8.59C73.79 8.17 72.89 7.43 72.39 7.08C74.56 5.2 76.42 2.28 77.47 -0.72L79.68 -0.18C79.36 0.62 79.01 1.42 78.62 2.22L90.59 2.22L90.97 2.12L92.6 2.57C91.78 4.39 90.82 6.57 90.02 7.85L88 7.43ZM180.39 18.09C182.11 15.57 183.49 12.68 184.48 9.45L186.88 10.06C185.5 14.19 183.61 17.84 181.25 20.88C182.43 24.01 183.9 25.84 185.53 25.84C186.43 25.84 186.82 24.17 187.04 19.92C187.58 20.46 188.45 21 189.09 21.2C188.64 26.64 187.78 28.21 185.35 28.21C182.88 28.21 180.96 26.25 179.49 22.96C177.57 25.03 175.36 26.82 172.89 28.27C172.54 27.78 171.71 26.82 171.17 26.38C174.02 24.85 176.48 22.86 178.53 20.46C177.38 16.85 176.6 12.14 176.19 6.99L165.15 6.99L165.15 11.14L173.31 11.14L173.31 12.17C173.15 19.34 172.96 22.03 172.28 22.86C171.81 23.46 171.26 23.69 170.37 23.78C169.57 23.85 168.13 23.85 166.56 23.78C166.53 23.05 166.27 22.15 165.89 21.55C167.36 21.67 168.74 21.71 169.28 21.71C169.73 21.71 170.05 21.64 170.24 21.35C170.69 20.88 170.85 18.86 170.97 13.35L165.15 13.35L165.15 13.61C165.15 18.09 164.68 24.53 161.79 28.68C161.38 28.21 160.35 27.37 159.81 27.08C162.43 23.18 162.72 17.71 162.72 13.58L162.72 4.65L176.07 4.65C175.93 2.89 175.9 1.1 175.87 -0.72L178.34 -0.72C178.34 1.13 178.37 2.92 178.46 4.65L188.8 4.65L188.8 6.99L178.62 6.99C178.94 11.25 179.52 15.05 180.39 18.09ZM185.6 4.65L187.07 3.02C185.82 1.9 183.32 0.36 181.35 -0.63L179.93 0.81C181.95 1.9 184.39 3.53 185.6 4.65ZM98.94 -0.4C100.93 0.49 103.61 1.93 104.99 2.92L103.61 4.88C102.3 3.85 99.68 2.32 97.63 1.32L98.94 -0.4ZM211.93 -0.25C211.93 2.06 211.9 4.3 211.84 6.47L220.48 6.47C220.48 6.47 220.48 7.37 220.45 7.69C219.93 20.81 219.52 25.39 218.3 26.86C217.6 27.72 216.96 27.98 215.84 28.1C214.82 28.21 212.93 28.17 211.14 28.04C211.1 27.37 210.82 26.38 210.4 25.71C212.35 25.9 214.18 25.9 214.88 25.9C215.49 25.9 215.87 25.8 216.22 25.42C217.12 24.39 217.63 20.1 218.11 8.78L211.71 8.78C211.2 17.26 209.35 24.39 202.05 28.49C201.73 27.89 200.93 27.02 200.35 26.6C207.14 22.99 208.89 16.53 209.38 8.78L204.13 8.78L204.13 6.47L209.47 6.47C209.53 4.33 209.57 2.09 209.57 -0.25L211.93 -0.25ZM153.63 11.82L157.06 11.82L157.06 14.12L153.63 14.12L153.63 25.55C153.63 26.92 153.31 27.6 152.45 28.01C151.58 28.39 150.14 28.46 147.81 28.46C147.68 27.82 147.32 26.79 147.04 26.19C148.71 26.25 150.24 26.25 150.65 26.22C151.14 26.19 151.29 26.03 151.29 25.55L151.29 14.12L146.14 14.12C145.95 18.86 145.12 24.53 142.46 28.53C142.11 28.04 141.15 27.18 140.67 26.89C143.04 23.21 143.68 18.35 143.84 14.12L140.57 14.12L140.57 25.42C140.57 26.73 140.25 27.4 139.42 27.78C138.53 28.17 137.15 28.21 134.94 28.21C134.85 27.6 134.46 26.64 134.17 26.06C135.75 26.09 137.21 26.09 137.67 26.06C138.11 26.06 138.27 25.9 138.27 25.42L138.27 14.12L133.73 14.12C133.5 18.89 132.57 24.59 129.63 28.65C129.28 28.14 128.39 27.25 127.9 26.99C130.56 23.28 131.26 18.38 131.46 14.12L127.93 14.12L127.93 11.82L131.52 11.82L131.52 1.32L140.57 1.32L140.57 11.82L143.9 11.82L143.9 1.32L153.63 1.32L153.63 11.82ZM199.26 18.25C200.93 17.8 202.69 17.32 204.39 16.88L204.68 19.08C200.35 20.36 195.78 21.64 192.42 22.57L191.81 20.14C193.21 19.82 194.97 19.37 196.93 18.89L196.93 5.26L192.25 5.26L192.25 2.99L203.9 2.99L203.9 5.26L199.26 5.26L199.26 18.25ZM133.79 11.11L133.79 11.82L138.27 11.82L138.27 3.53L133.79 3.53L133.79 11.11ZM146.21 11.14L146.21 11.82L151.29 11.82L151.29 3.53L146.21 3.53L146.21 11.14ZM116.03 16.97L116.03 25.2L125.12 25.2L125.12 27.46L104.22 27.46L104.22 25.2L113.57 25.2L113.57 16.97L106.46 16.97L106.46 14.7L113.57 14.7L113.57 7.57L105.18 7.57L105.18 5.29L124.39 5.29L124.39 7.57L116.03 7.57L116.03 14.7L123.23 14.7L123.23 16.97L116.03 16.97ZM18.37 5.32L10.53 5.32L10.53 9.55L18.37 9.55L18.37 5.32ZM82.21 5.39L84.48 5.39L84.48 14.76C84.48 15.95 84.25 16.53 83.36 16.88C82.53 17.26 81.25 17.26 79.23 17.26C79.1 16.62 78.75 15.78 78.46 15.18C79.96 15.21 81.28 15.21 81.7 15.18C82.08 15.18 82.21 15.08 82.21 14.73L82.21 5.39ZM90.14 15.34C89.44 13.55 87.81 10.82 86.24 8.85L88.16 7.95C89.79 9.87 91.46 12.53 92.19 14.28L90.14 15.34ZM73.44 13.96C75.1 12.46 76.57 10.22 77.44 8.01L79.61 8.62C78.59 11.14 76.89 13.67 75.23 15.31C74.82 14.92 73.95 14.28 73.44 13.96ZM97.25 8.33C99.2 9.23 101.82 10.64 103.17 11.57L101.82 13.58C100.54 12.56 97.95 11.08 95.93 10.09L97.25 8.33ZM53.95 14.79C53.5 15.63 52.99 16.42 52.54 17.1L60.83 17.1L60.83 18.99L32.16 18.99L32.16 17.1L40.19 17.1C39.93 16.39 39.55 15.63 39.17 15.02L40.39 14.67L36.89 14.67L36.89 8.88L56.19 8.88L56.19 14.67L53.38 14.67L53.95 14.79ZM53.82 10.51L39.17 10.51L39.17 13.03L53.82 13.03L53.82 10.51ZM10.78 26.19C11.26 26.15 11.39 26.06 11.39 25.67L11.39 14.6L13.67 14.6L13.67 25.67C13.67 26.99 13.41 27.63 12.48 28.01C11.52 28.36 10.05 28.39 7.81 28.39C7.71 27.72 7.42 26.82 7.1 26.15C8.83 26.22 10.34 26.22 10.78 26.19ZM50.14 17.1C50.53 16.36 51.01 15.43 51.29 14.67L41.47 14.67C41.98 15.43 42.46 16.39 42.65 17.1L50.14 17.1ZM96.89 26.47C98.62 24.07 101.09 19.85 102.94 16.24L104.68 17.8C102.97 21.17 100.74 25.13 98.88 28.1L96.89 26.47ZM24.28 25.07C23.42 22.96 21.41 19.66 19.49 17.29L21.41 16.49C23.39 18.82 25.41 22 26.34 24.14L24.28 25.07ZM77.57 16.62C79.32 18.25 81.35 20.56 82.24 22.12L80.25 23.28C79.46 21.74 77.47 19.37 75.75 17.67L77.57 16.62ZM2.43 23.82C4.32 22.15 5.85 19.5 6.69 17.29L8.71 18.12C7.68 20.39 6.27 23.18 4.39 24.97L2.43 23.82ZM17.41 24.91C17.18 23.02 16.35 20.21 15.36 18.06L17.31 17.61C18.37 19.75 19.2 22.54 19.49 24.39L17.41 24.91ZM90.37 26.76C89.92 24.81 88.45 21.74 87.01 19.46L89.09 18.67C90.59 20.94 92.1 23.89 92.64 25.84L90.37 26.76ZM73.31 24.56C73.31 25.48 73.7 25.64 75.81 25.64L83.17 25.64C84.92 25.64 85.21 25.17 85.38 21.93C85.92 22.35 86.91 22.7 87.58 22.82C87.26 26.86 86.5 27.85 83.32 27.85L75.71 27.85C71.93 27.85 70.94 27.18 70.94 24.59L70.94 19.05L73.31 19.05L73.31 24.56ZM69.5 20.1C68.67 22.19 67.55 25.2 66.37 27.14L64.13 26.12C65.41 24.24 66.65 21.32 67.36 19.25L69.5 20.1ZM38.65 28.42L36.32 28.42L36.32 20.75L56.83 20.75L56.83 28.39L54.43 28.39L54.43 27.43L38.65 27.43L38.65 28.42ZM54.43 25.71L54.43 22.47L38.65 22.47L38.65 25.71L54.43 25.71Z" fill="#11183C" fill-opacity="1.000000" fill-rule="evenodd"/>
</svg>
