<svg width="330.000000" height="16.000000" viewBox="0 0 330 16" fill="none" xmlns="http://www.w3.org/2000/svg" xmlns:xlink="http://www.w3.org/1999/xlink">
	<desc>
			Created with Pixso.
	</desc>
	<defs/>
	<rect id="Divider " width="94.000000" height="1.000000" transform="translate(0.000000 7.500000)" fill="#D7D9E4" fill-opacity="1.000000"/>
	<path id="Already have an account?" d="M138.61 1.22C139.08 1.93 139.61 2.89 139.81 3.49L138.81 3.88C138.62 3.28 138.13 2.29 137.67 1.56L138.61 1.22ZM121.69 4.78C120.74 6.29 119.66 7.77 118.54 8.98L121.31 8.49C121.29 8.77 121.29 9.19 121.3 9.41C117.75 10.12 117.26 10.25 116.95 10.42C116.9 10.21 116.74 9.7 116.61 9.44C116.93 9.37 117.27 9.02 117.7 8.53C117.98 8.25 118.57 7.55 119.2 6.67C117.42 6.9 117.07 6.98 116.86 7.09C116.81 6.86 116.64 6.36 116.52 6.08C116.78 6.02 117.03 5.7 117.34 5.23C117.66 4.76 118.73 2.97 119.31 1.28L120.31 1.74C119.65 3.21 118.81 4.72 117.95 5.91L119.87 5.7C120.2 5.23 120.5 4.71 120.78 4.2L121.69 4.78ZM163.16 4.15L163.33 4.1L163.97 4.26C163.75 6.78 163.26 8.77 162.5 10.32C163.18 10.9 163.75 11.45 164.13 11.95L163.43 12.8C163.09 12.35 162.57 11.82 161.98 11.29C161.22 12.51 160.23 13.42 159.07 14.06C158.93 13.79 158.64 13.42 158.42 13.23C159.51 12.69 160.46 11.81 161.19 10.6C160.47 9.97 159.68 9.4 158.95 8.91C159.28 7.9 159.62 6.53 159.93 5.11L158.64 5.11L158.64 4.15L160.11 4.15C160.31 3.17 160.47 2.17 160.57 1.29L161.59 1.36C161.47 2.23 161.33 3.2 161.13 4.15L163.16 4.15ZM210.31 4.75C211 4.23 211.78 3.56 212.26 3.06L213.04 3.59C212.41 4.18 211.6 4.81 210.92 5.28C211.71 5.97 212.61 6.53 213.55 6.89C213.31 7.09 213.01 7.49 212.83 7.76C211.62 7.21 210.5 6.37 209.51 5.35L209.51 6.06L204.5 6.06L204.5 5.41C203.47 6.47 202.25 7.32 201.06 7.89C200.92 7.65 200.62 7.3 200.42 7.1C201.37 6.71 202.37 6.05 203.24 5.25C202.81 4.78 202.09 4.23 201.47 3.84L202.03 3.25C202.67 3.63 203.41 4.18 203.86 4.65C204.4 4.04 204.91 3.38 205.26 2.69L201.45 2.69L201.45 1.81L205.75 1.81L205.95 1.77L206.63 2.12C206.2 3.26 205.53 4.29 204.73 5.17L209.35 5.17C208.38 4.12 207.6 2.92 207.02 1.6L207.93 1.32C208.18 1.91 208.52 2.5 208.9 3.06C209.53 2.55 210.26 1.89 210.7 1.4L211.5 1.96C210.86 2.56 210.06 3.21 209.37 3.68C209.65 4.05 209.98 4.41 210.31 4.75ZM181.77 9.58C182.51 8.78 183.12 7.93 183.6 7.03L184.53 7.41C183.9 8.6 183.07 9.7 182.09 10.7C182.62 12.17 183.25 13.06 183.95 13.06C184.33 13.06 184.5 12.35 184.58 10.56C184.81 10.78 185.17 11.02 185.46 11.12C185.27 13.43 184.91 14.1 183.85 14.1C182.75 14.1 181.91 13.12 181.27 11.48C180.35 12.29 179.36 13 178.31 13.54C178.15 13.29 177.86 12.94 177.59 12.71C178.77 12.14 179.92 11.37 180.91 10.45C180.58 9.29 180.31 7.9 180.13 6.39L176.84 6.39L176.84 8.63C177.67 8.45 178.52 8.26 179.34 8.08L179.42 9.02C178.56 9.23 177.69 9.43 176.84 9.62L176.84 12.73C176.84 13.4 176.67 13.71 176.24 13.88C175.8 14.04 175.05 14.07 173.91 14.07C173.86 13.79 173.68 13.32 173.52 13.02C174.42 13.06 175.24 13.05 175.48 13.04C175.73 13.04 175.82 12.97 175.82 12.71L175.82 9.87C174.77 10.1 173.76 10.34 172.92 10.52L172.62 9.47C173.47 9.33 174.6 9.09 175.82 8.84L175.82 6.39L172.82 6.39L172.82 5.39L175.82 5.39L175.82 3.17C174.95 3.34 174.07 3.48 173.24 3.59C173.18 3.34 173.04 2.97 172.9 2.72C174.87 2.43 177.12 1.95 178.43 1.46L179.18 2.31C178.51 2.55 177.69 2.78 176.84 2.96L176.84 5.39L180.04 5.39C179.92 4.12 179.86 2.78 179.85 1.4L180.91 1.4C180.91 2.8 180.97 4.15 181.08 5.39L185.2 5.39L185.2 6.39L181.19 6.39C181.33 7.58 181.53 8.65 181.77 9.58ZM131.94 1.45C132.81 1.84 133.98 2.47 134.59 2.9L133.98 3.76C133.41 3.31 132.27 2.64 131.37 2.2L131.94 1.45ZM182.62 1.65C183.42 2.34 184.4 3.32 184.85 3.98L184.01 4.58C183.59 3.92 182.64 2.92 181.82 2.2L182.62 1.65ZM199.2 8.82L199.2 9.73L196.54 9.73C196.1 10.66 195.47 11.4 194.68 11.99C196.3 12.41 197.77 12.84 198.87 13.26L198.01 14.07C196.87 13.61 195.33 13.11 193.57 12.66C192.01 13.43 189.94 13.84 187.3 14.06C187.21 13.75 187.04 13.37 186.88 13.15C189.01 13.02 190.71 12.76 192.09 12.27C190.99 12.01 189.83 11.76 188.65 11.54C189.1 11.05 189.61 10.4 190.08 9.73L186.79 9.73L186.79 8.82L190.7 8.82C190.98 8.4 191.23 7.98 191.41 7.59L187.7 7.59L187.7 3.99L190.8 3.99L190.8 2.82L187.02 2.82L187.02 1.89L198.97 1.89L198.97 2.82L195.04 2.82L195.04 3.99L198.39 3.99L198.39 7.59L191.89 7.59L192.52 7.75C192.34 8.08 192.13 8.46 191.91 8.82L199.2 8.82ZM126.1 5.31C127.32 5.83 128.71 6.51 129.48 6.99L128.89 7.84C128.09 7.31 126.58 6.53 125.28 5.95C124.14 6.75 122.88 7.4 121.65 7.86C121.51 7.6 121.22 7.21 121.02 7C123.2 6.26 125.57 4.79 126.84 2.98L121.93 2.98L121.93 2.02L127.52 2.02L127.7 1.98L128.44 2.38C127.9 3.5 127.07 4.48 126.1 5.31ZM222.79 9.86C223.65 9.26 224.68 8.45 225.31 7.81L226.19 8.46C225.36 9.17 224.3 9.96 223.42 10.5C224.47 11.47 225.78 12.21 227.29 12.62C227.06 12.83 226.77 13.23 226.61 13.53C224.44 12.83 222.7 11.47 221.5 9.65L221.5 12.94C221.5 13.54 221.36 13.79 220.93 13.95C220.49 14.1 219.79 14.1 218.71 14.1C218.66 13.82 218.49 13.44 218.35 13.18C219.18 13.22 219.95 13.22 220.15 13.2C220.39 13.19 220.46 13.12 220.46 12.93L220.46 10.99C218.74 11.76 216.92 12.55 215.55 13.12L215 12.2C216.35 11.69 218.45 10.84 220.46 10.01L220.46 7.46L214.98 7.46L214.98 6.54L224.15 6.54C224.17 6.14 224.2 5.7 224.23 5.27L216.33 5.27L216.33 4.31L224.29 4.31C224.3 3.87 224.33 3.4 224.34 3.03L215.93 3.03L215.93 2.06L224.47 2.06L224.66 2.02L225.48 2.07C225.45 3.39 225.34 5.11 225.21 6.54L227.11 6.54L227.11 7.46L221.5 7.46L221.5 7.87C221.84 8.59 222.27 9.26 222.79 9.86ZM105.13 11.57C105.13 12.45 105.44 12.65 106.95 12.65L112.27 12.65C113.8 12.65 114.02 12.18 114.22 9.93C114.5 10.12 114.96 10.29 115.27 10.35C115 12.91 114.54 13.67 112.26 13.67L107.02 13.67C104.78 13.67 104.08 13.28 104.08 11.55L104.08 4.55L105.13 4.55L105.13 6.85L112.44 6.85L112.44 3.18L103.34 3.18L103.34 2.16L113.5 2.16L113.5 8.56L112.44 8.56L112.44 7.87L105.13 7.87L105.13 11.57ZM155.87 6.79L157.37 6.79L157.37 7.8L155.87 7.8L155.87 12.8C155.87 13.4 155.73 13.7 155.35 13.88C154.97 14.04 154.34 14.07 153.32 14.07C153.27 13.79 153.11 13.34 152.98 13.08C153.71 13.11 154.38 13.11 154.56 13.09C154.78 13.08 154.84 13.01 154.84 12.8L154.84 7.8L152.59 7.8C152.51 9.87 152.14 12.35 150.98 14.1C150.83 13.89 150.41 13.51 150.2 13.39C151.23 11.78 151.52 9.65 151.58 7.8L150.15 7.8L150.15 12.74C150.15 13.32 150.01 13.61 149.65 13.78C149.26 13.95 148.66 13.96 147.69 13.96C147.65 13.7 147.48 13.28 147.36 13.02C148.04 13.04 148.68 13.04 148.88 13.02C149.08 13.02 149.15 12.95 149.15 12.74L149.15 7.8L147.16 7.8C147.06 9.89 146.65 12.38 145.37 14.16C145.21 13.93 144.82 13.54 144.61 13.43C145.77 11.81 146.08 9.66 146.17 7.8L144.62 7.8L144.62 6.79L146.19 6.79L146.19 2.2L150.15 2.2L150.15 6.79L151.61 6.79L151.61 2.2L155.87 2.2L155.87 6.79ZM168.3 7.18L171.38 7.18L171.38 8.18L168.3 8.18L168.3 12.83C168.3 13.44 168.15 13.74 167.71 13.9C167.28 14.06 166.61 14.09 165.53 14.07C165.46 13.78 165.29 13.37 165.14 13.08C165.96 13.11 166.73 13.11 166.94 13.09C167.17 13.09 167.25 13.02 167.25 12.83L167.25 8.18L164.01 8.18L164.01 7.18L167.25 7.18L167.25 5.59C167.96 5 168.72 4.09 169.29 3.28L164.63 3.28L164.63 2.31L170.01 2.31L170.25 2.26L170.96 2.78C170.27 3.81 169.28 4.99 168.3 5.84L168.3 7.18ZM194.04 2.82L191.79 2.82L191.79 3.99L194.04 3.99L194.04 2.82ZM147.19 6.48L147.19 6.79L149.15 6.79L149.15 3.17L147.19 3.17L147.19 6.48ZM152.62 6.5L152.62 6.79L154.84 6.79L154.84 3.17L152.62 3.17L152.62 6.5ZM139.42 9.05L139.42 12.65L143.39 12.65L143.39 13.64L134.25 13.64L134.25 12.65L138.34 12.65L138.34 9.05L135.23 9.05L135.23 8.05L138.34 8.05L138.34 4.93L134.67 4.93L134.67 3.94L143.07 3.94L143.07 4.93L139.42 4.93L139.42 8.05L142.57 8.05L142.57 9.05L139.42 9.05ZM190.8 4.85L188.7 4.85L188.7 6.74L190.8 6.74L190.8 4.85ZM191.79 4.85L191.79 6.74L194.04 6.74L194.04 4.85L191.79 4.85ZM197.36 6.74L197.36 4.85L195.04 4.85L195.04 6.74L197.36 6.74ZM161.69 9.66C162.26 8.42 162.68 6.9 162.88 5.11L160.92 5.11C160.67 6.33 160.37 7.51 160.08 8.5C160.63 8.85 161.17 9.24 161.69 9.66ZM131.2 5.27C132.05 5.66 133.2 6.28 133.79 6.68L133.2 7.56C132.64 7.12 131.51 6.47 130.62 6.04L131.2 5.27ZM202.95 7.2L210.87 7.2L210.87 10.68L202.95 10.68L202.95 7.2ZM218.46 10.38C217.93 9.84 216.81 9.06 215.93 8.53L216.61 7.91C217.5 8.39 218.63 9.13 219.19 9.66L218.46 10.38ZM203.97 9.82L209.78 9.82L209.78 8.07L203.97 8.07L203.97 9.82ZM128.75 9.31L125.84 9.31L125.84 12.7L129.41 12.7L129.41 13.68L121.2 13.68L121.2 12.7L124.81 12.7L124.81 9.31L122.06 9.31L122.06 8.35L128.75 8.35L128.75 9.31ZM131.04 13.2C131.8 12.15 132.88 10.31 133.69 8.73L134.45 9.41C133.7 10.88 132.73 12.62 131.91 13.92L131.04 13.2ZM193.42 11.67C194.28 11.18 194.93 10.54 195.41 9.73L191.29 9.73C190.98 10.18 190.64 10.63 190.35 10.99C191.39 11.2 192.42 11.44 193.42 11.67ZM208.09 12.83C208.45 12.24 208.89 11.39 209.11 10.77L210.09 11.04C209.79 11.64 209.45 12.29 209.15 12.83L213.13 12.83L213.13 13.74L200.88 13.74L200.88 12.83L204.71 12.83C204.59 12.35 204.26 11.62 203.93 11.09L204.87 10.8C205.22 11.33 205.58 12.04 205.72 12.53L204.85 12.83L208.09 12.83ZM116.61 12.15C117.77 11.92 119.55 11.5 121.27 11.09L121.39 11.99C119.76 12.42 118.08 12.85 116.82 13.19L116.61 12.15Z" fill="#11183C" fill-opacity="1.000000" fill-rule="evenodd"/>
	<rect id="Divider " width="94.000000" height="1.000000" transform="translate(236.000000 7.500000)" fill="#D7D9E4" fill-opacity="1.000000"/>
</svg>
