<svg width="96.000000" height="112.000000" viewBox="0 0 96 112" fill="none" xmlns="http://www.w3.org/2000/svg" xmlns:xlink="http://www.w3.org/1999/xlink">
	<desc>
			Created with Pixso.
	</desc>
	<defs>
		<linearGradient x1="7.727913" y1="35.348827" x2="88.199806" y2="35.348827" id="paint_linear_4_4789_0" gradientUnits="userSpaceOnUse">
			<stop stop-color="#0BB8E8"/>
			<stop offset="1.000000" stop-color="#00DCF8"/>
		</linearGradient>
	</defs>
	<path id="path" d="M0.36 90.3C3.44 90.38 5.72 90.42 7.2 90.42C8.33 90.42 9.56 90.39 10.91 90.32C11.39 90.3 11.78 90.29 12.09 90.29C12.21 90.29 12.41 90.29 12.69 90.3C12.73 90.54 12.79 91.04 12.85 91.79L12.99 93.2C12.99 93.43 12.89 93.54 12.69 93.54C12.55 93.54 12.41 93.4 12.27 93.12C12.04 92.64 11.75 92.23 11.4 91.88C11.05 91.54 10.64 91.31 10.17 91.2C9.7 91.09 8.93 91.03 7.86 91.03C7.76 91.93 7.72 93.07 7.72 94.43C7.72 95.81 7.74 97.15 7.8 98.44C7.85 99.74 7.92 100.51 7.99 100.78C8.07 101.05 8.2 101.24 8.38 101.37C8.57 101.49 9 101.58 9.68 101.62C9.91 101.64 10.03 101.73 10.03 101.87C10.03 102.04 9.93 102.12 9.73 102.12L9.48 102.11L7.63 102.07C6.19 102.07 5.32 102.08 5.01 102.09L3.88 102.13C3.8 102.13 3.61 102.12 3.33 102.11C3.2 102.08 3.13 102.01 3.13 101.89C3.13 101.72 3.24 101.63 3.47 101.63C4 101.63 4.39 101.52 4.66 101.31C4.93 101.09 5.09 100.74 5.16 100.26C5.22 99.79 5.25 98.75 5.25 97.16C5.25 94.65 5.17 92.61 5.02 91.03C4.04 91.03 3.33 91.07 2.89 91.15C2.46 91.23 2.04 91.45 1.63 91.8C1.23 92.16 0.9 92.62 0.64 93.19C0.54 93.42 0.43 93.53 0.3 93.53C0.09 93.53 0 93.44 0 93.26C0 93.21 0.03 92.82 0.11 92.1C0.18 91.37 0.27 90.77 0.36 90.3Z" fill="#231815" fill-opacity="1.000000" fill-rule="nonzero"/>
	<path id="path" d="M16.57 96.08C16.86 95.49 17.21 95.04 17.59 94.75C17.98 94.45 18.41 94.3 18.88 94.3C19.33 94.3 19.69 94.43 19.96 94.69C20.23 94.95 20.37 95.28 20.37 95.67C20.37 95.97 20.27 96.24 20.08 96.45C19.88 96.67 19.65 96.78 19.37 96.78C19.16 96.78 18.99 96.72 18.85 96.62C18.71 96.51 18.57 96.32 18.42 96.05C18.2 95.66 18.02 95.46 17.85 95.46C17.64 95.46 17.39 95.68 17.11 96.13C16.83 96.57 16.69 97.43 16.69 98.7C16.69 100.31 16.74 101.21 16.85 101.39C16.96 101.57 17.21 101.66 17.58 101.66C17.9 101.66 18.07 101.75 18.07 101.92C18.07 102.09 17.91 102.17 17.59 102.17C17.41 102.17 17.15 102.16 16.81 102.13C16.5 102.1 16.21 102.08 15.94 102.08C15.35 102.08 14.77 102.11 14.2 102.15C13.95 102.16 13.81 102.17 13.77 102.17C13.52 102.17 13.39 102.08 13.39 101.89C13.39 101.73 13.54 101.65 13.83 101.63C14.11 101.62 14.31 101.55 14.43 101.43C14.54 101.31 14.6 101.05 14.6 100.64L14.63 98.43C14.63 97.98 14.61 97.42 14.58 96.76C14.54 96.09 14.51 95.69 14.48 95.56C14.45 95.44 14.37 95.32 14.25 95.22C14.13 95.12 13.97 95.06 13.76 95.05C13.55 95.02 13.41 94.99 13.35 94.96C13.3 94.93 13.27 94.86 13.27 94.76C13.27 94.6 13.42 94.52 13.71 94.51C14.26 94.51 15.19 94.44 16.5 94.3L16.57 96.08Z" fill="#231815" fill-opacity="1.000000" fill-rule="nonzero"/>
	<path id="path" d="M23.88 94.47C23.91 95.08 23.92 95.91 23.92 96.96C23.92 98.56 23.93 99.58 23.96 100.02C24 100.47 24.11 100.8 24.32 101.03C24.52 101.25 24.76 101.37 25.02 101.37C25.32 101.37 25.64 101.25 25.95 101.02C26.27 100.79 26.51 100.49 26.66 100.12C26.81 99.74 26.89 99.13 26.89 98.29L26.9 96.33C26.9 95.81 26.88 95.47 26.82 95.3C26.76 95.14 26.57 95.05 26.25 95.04C25.89 95.02 25.71 94.93 25.71 94.76C25.71 94.66 25.75 94.6 25.84 94.57C25.93 94.55 26.15 94.53 26.52 94.53C27.35 94.53 28.12 94.51 28.83 94.47C28.85 94.7 28.86 95.96 28.86 98.25C28.86 100.1 28.88 101.1 28.92 101.27C28.95 101.44 29.14 101.54 29.49 101.57C29.7 101.59 29.81 101.68 29.81 101.83C29.81 102 29.69 102.08 29.45 102.08C29.4 102.08 29.33 102.08 29.23 102.08C29.06 102.06 28.86 102.06 28.64 102.06C27.85 102.06 27.41 102.06 27.33 102.07C27.23 102.07 27.15 102.08 27.09 102.08C26.98 102.08 26.91 102.06 26.88 102.02C26.85 101.98 26.84 101.87 26.84 101.68C26.84 101.37 26.86 101.06 26.9 100.75C26.49 101.24 26.06 101.62 25.61 101.86C25.15 102.11 24.68 102.24 24.18 102.24C22.67 102.24 21.91 101.39 21.91 99.7L21.91 96.96C21.91 96.02 21.88 95.46 21.81 95.3C21.74 95.14 21.56 95.04 21.27 94.99C21.01 94.96 20.88 94.88 20.88 94.76C20.88 94.6 20.99 94.52 21.23 94.52C22.81 94.52 23.7 94.51 23.88 94.47Z" fill="#231815" fill-opacity="1.000000" fill-rule="nonzero"/>
	<path id="path" d="M37.19 99.61C37.19 100.04 37.08 100.45 36.86 100.85C36.64 101.25 36.3 101.59 35.85 101.85C35.41 102.11 34.88 102.24 34.28 102.24C33.53 102.24 32.9 102.09 32.39 101.78C32.16 101.65 32.01 101.59 31.95 101.59C31.87 101.59 31.81 101.64 31.77 101.73C31.67 101.97 31.56 102.08 31.43 102.08C31.35 102.08 31.3 102.05 31.27 101.99C31.23 101.93 31.21 101.67 31.19 101.2C31.16 100.73 31.16 100.18 31.16 99.54C31.16 99.29 31.23 99.16 31.37 99.16C31.51 99.16 31.66 99.35 31.82 99.71C32.39 101.04 33.17 101.71 34.16 101.71C34.5 101.71 34.79 101.62 35.03 101.44C35.27 101.26 35.39 101.01 35.39 100.67C35.39 100.39 35.28 100.14 35.06 99.94C34.84 99.74 34.41 99.48 33.78 99.17C32.83 98.7 32.18 98.3 31.83 97.95C31.48 97.6 31.3 97.13 31.3 96.56C31.3 95.89 31.56 95.34 32.07 94.93C32.59 94.51 33.22 94.3 33.98 94.3C34.58 94.3 35.18 94.48 35.8 94.84C35.88 94.88 35.95 94.91 36.01 94.91C36.08 94.91 36.14 94.84 36.18 94.71C36.24 94.55 36.33 94.46 36.44 94.46C36.52 94.46 36.57 94.49 36.6 94.54C36.63 94.6 36.67 94.87 36.73 95.37C36.78 95.87 36.81 96.29 36.81 96.62C36.81 96.85 36.74 96.96 36.6 96.96C36.46 96.96 36.31 96.8 36.17 96.47C35.66 95.37 34.94 94.82 33.99 94.82C33.64 94.82 33.36 94.91 33.15 95.08C32.94 95.25 32.83 95.43 32.83 95.63C32.83 95.87 32.97 96.1 33.24 96.31C33.51 96.52 34.04 96.81 34.83 97.17C35.51 97.48 35.98 97.71 36.24 97.88C36.51 98.05 36.73 98.29 36.92 98.61C37.1 98.93 37.19 99.26 37.19 99.61Z" fill="#231815" fill-opacity="1.000000" fill-rule="nonzero"/>
	<path id="path" d="M41.98 94.44C42.34 94.43 42.89 94.42 43.64 94.42C43.98 94.42 44.26 94.45 44.48 94.51C44.39 94.95 44.31 95.18 44.24 95.21C44.17 95.24 43.42 95.3 41.98 95.38L41.88 99.29C41.88 99.85 41.91 100.26 41.96 100.52C42.02 100.78 42.15 100.99 42.35 101.17C42.55 101.35 42.81 101.44 43.13 101.44C43.41 101.44 43.8 101.29 44.3 101C44.38 100.96 44.44 100.94 44.5 100.94C44.61 100.94 44.67 101 44.67 101.12C44.67 101.29 44.42 101.52 43.94 101.82C43.46 102.11 42.9 102.26 42.25 102.26C41.49 102.26 40.89 102.08 40.45 101.7C40.01 101.33 39.8 100.54 39.8 99.35C39.8 98.02 39.82 96.7 39.87 95.39C39.28 95.39 38.86 95.37 38.62 95.34C38.38 95.31 38.26 95.23 38.26 95.08C38.26 94.96 38.39 94.87 38.68 94.8C39.23 94.68 39.72 94.45 40.16 94.12C40.6 93.8 40.97 93.28 41.28 92.57C41.4 92.28 41.48 92.11 41.53 92.05C41.57 91.98 41.64 91.95 41.72 91.95C41.89 91.95 41.98 92.1 41.98 92.38L41.98 94.44Z" fill="#231815" fill-opacity="1.000000" fill-rule="nonzero"/>
	<path id="path" d="M59.96 91.19C60.08 91.04 60.22 90.87 60.35 90.68C60.51 90.44 60.65 90.33 60.75 90.33C60.87 90.33 60.95 90.36 60.99 90.42C61.02 90.48 61.05 90.66 61.07 90.97L61.25 93.73L61.27 94.09C61.27 94.32 61.17 94.44 60.99 94.44C60.86 94.44 60.76 94.35 60.68 94.15C60.44 93.52 60 92.83 59.37 92.06C58.74 91.3 57.94 90.92 56.98 90.92C56.26 90.92 55.66 91.12 55.18 91.53C54.7 91.94 54.32 92.51 54.05 93.22C53.78 93.94 53.64 94.79 53.64 95.79C53.64 97.5 54.02 98.86 54.77 99.87C55.53 100.87 56.47 101.38 57.59 101.38C58.81 101.38 59.92 100.64 60.94 99.18C61.06 99 61.18 98.91 61.29 98.91C61.48 98.91 61.57 99.01 61.57 99.2C61.57 99.58 61.11 100.21 60.17 101.06C59.24 101.91 58.07 102.33 56.66 102.33C54.8 102.33 53.32 101.76 52.24 100.61C51.16 99.47 50.62 98.06 50.62 96.39C50.62 94.72 51.17 93.28 52.26 92.05C53.35 90.82 54.73 90.21 56.39 90.21C57.56 90.21 58.75 90.54 59.96 91.19Z" fill="#231815" fill-opacity="1.000000" fill-rule="nonzero"/>
	<path id="path" d="M65.74 90C65.71 90.59 65.7 91.09 65.7 91.52L65.71 93.88C65.71 94.9 65.72 95.52 65.74 95.76C66.09 95.28 66.48 94.92 66.91 94.68C67.34 94.44 67.81 94.32 68.33 94.32C68.74 94.32 69.14 94.42 69.51 94.61C69.89 94.8 70.17 95.12 70.38 95.56C70.59 96.01 70.69 96.79 70.69 97.9L70.66 100.69C70.66 101.3 70.9 101.63 71.38 101.68C71.57 101.69 71.67 101.77 71.67 101.92C71.67 102.09 71.57 102.17 71.37 102.17C71.31 102.17 71.23 102.17 71.12 102.16C70.7 102.11 70.09 102.08 69.28 102.08C69.14 102.08 68.9 102.1 68.54 102.14C68.29 102.16 68.07 102.17 67.89 102.17C67.65 102.17 67.53 102.09 67.53 101.93C67.53 101.8 67.66 101.71 67.94 101.67C68.21 101.63 68.39 101.46 68.46 101.16C68.54 100.86 68.58 99.97 68.58 98.47C68.58 97.1 68.51 96.21 68.37 95.79C68.23 95.37 67.95 95.16 67.52 95.16C67.16 95.16 66.81 95.34 66.47 95.7C66.12 96.05 65.9 96.55 65.79 97.19C65.69 97.83 65.63 98.61 65.63 99.54C65.63 100.02 65.65 100.44 65.7 100.8C65.75 101.15 65.82 101.38 65.9 101.46C65.99 101.55 66.13 101.61 66.34 101.64C66.57 101.66 66.68 101.76 66.68 101.92C66.68 102.08 66.55 102.16 66.3 102.16C66.11 102.16 65.83 102.14 65.47 102.11C65.17 102.08 64.91 102.07 64.68 102.07C64.21 102.07 63.77 102.09 63.37 102.14C63.17 102.16 62.9 102.17 62.58 102.17C62.41 102.17 62.32 102.09 62.32 101.92C62.32 101.79 62.44 101.7 62.68 101.67C62.99 101.63 63.2 101.51 63.31 101.29C63.43 101.07 63.5 100.3 63.55 98.96C63.59 97.61 63.61 95.56 63.61 92.8C63.61 91.96 63.55 91.41 63.42 91.16C63.29 90.91 63.07 90.73 62.76 90.63C62.46 90.54 62.31 90.43 62.31 90.3C62.31 90.14 62.44 90.06 62.69 90.06C63.6 90.06 64.62 90.04 65.74 90Z" fill="#231815" fill-opacity="1.000000" fill-rule="nonzero"/>
	<path id="path" d="M76.92 101.24C76.55 101.59 76.18 101.85 75.81 102.03C75.44 102.2 75.06 102.29 74.68 102.29C74.07 102.29 73.6 102.11 73.27 101.74C72.94 101.38 72.78 100.94 72.78 100.41C72.78 100.01 72.88 99.65 73.08 99.34C73.27 99.02 73.52 98.77 73.82 98.6C74.11 98.42 74.59 98.22 75.27 97.97C75.84 97.77 76.22 97.61 76.41 97.5C76.6 97.38 76.76 97.21 76.89 96.99C77.03 96.77 77.09 96.48 77.09 96.13C77.09 95.74 76.99 95.43 76.8 95.2C76.6 94.97 76.33 94.85 75.99 94.85C75.7 94.85 75.49 94.92 75.36 95.07C75.24 95.23 75.14 95.47 75.08 95.8C74.94 96.48 74.58 96.81 73.98 96.81C73.74 96.81 73.53 96.74 73.36 96.6C73.19 96.46 73.1 96.25 73.1 95.99C73.1 95.42 73.41 95 74.03 94.72C74.65 94.43 75.39 94.29 76.25 94.29C77 94.29 77.6 94.41 78.06 94.63C78.53 94.86 78.83 95.12 78.96 95.41C79.09 95.71 79.15 96.17 79.15 96.79L79.14 98.89C79.14 100 79.17 100.71 79.25 101.02C79.32 101.34 79.48 101.49 79.72 101.49C79.76 101.49 79.81 101.49 79.87 101.48C79.99 101.47 80.07 101.47 80.11 101.47C80.35 101.47 80.47 101.53 80.47 101.67C80.47 101.76 80.42 101.83 80.32 101.9C80.22 101.96 79.91 102.04 79.41 102.13C78.9 102.23 78.44 102.27 78.03 102.27C77.62 102.27 77.34 102.2 77.19 102.04C77.04 101.88 76.95 101.62 76.92 101.24ZM77.04 97.69C76.89 97.86 76.55 98.09 76.01 98.37C75.52 98.63 75.19 98.86 75.03 99.07C74.86 99.27 74.78 99.57 74.78 99.96C74.78 100.38 74.86 100.69 75.04 100.91C75.21 101.13 75.43 101.23 75.68 101.23C76.03 101.23 76.35 101.08 76.65 100.76C76.94 100.44 77.09 99.88 77.09 99.08C77.09 98.83 77.07 98.37 77.04 97.69Z" fill="#231815" fill-opacity="1.000000" fill-rule="nonzero"/>
	<path id="path" d="M84.59 94.29C84.61 95.12 84.62 96.59 84.62 98.72L84.59 100.62C84.59 101.01 84.66 101.26 84.79 101.39C84.91 101.52 85.12 101.61 85.41 101.65C85.75 101.69 85.91 101.79 85.91 101.93C85.91 102.09 85.78 102.17 85.52 102.17C85.4 102.17 85.18 102.16 84.87 102.15C84.22 102.11 83.57 102.08 82.93 102.08C82.62 102.08 82.3 102.1 81.97 102.13C81.77 102.16 81.64 102.17 81.57 102.17C81.31 102.17 81.18 102.09 81.18 101.93C81.18 101.78 81.35 101.69 81.69 101.66C82.15 101.62 82.41 101.47 82.46 101.2C82.52 100.94 82.54 100.41 82.54 99.6C82.54 98.56 82.52 97.61 82.49 96.73C82.46 95.86 82.4 95.37 82.31 95.24C82.22 95.12 81.99 95.03 81.61 94.99C81.32 94.96 81.18 94.88 81.18 94.73C81.18 94.59 81.33 94.51 81.62 94.49L81.81 94.47L84.59 94.29ZM84.46 91.3C84.46 91.64 84.34 91.95 84.08 92.2C83.83 92.45 83.53 92.57 83.18 92.57C82.82 92.57 82.52 92.45 82.27 92.2C82.02 91.95 81.9 91.64 81.9 91.3C81.9 90.94 82.02 90.64 82.27 90.39C82.52 90.14 82.82 90.02 83.18 90.02C83.53 90.02 83.83 90.14 84.08 90.39C84.34 90.64 84.46 90.94 84.46 91.3Z" fill="#231815" fill-opacity="1.000000" fill-rule="nonzero"/>
	<path id="path" d="M89.92 96.02C90.32 95.45 90.76 95.03 91.23 94.75C91.71 94.46 92.21 94.32 92.75 94.32C93.2 94.32 93.62 94.43 93.99 94.67C94.36 94.9 94.62 95.17 94.75 95.49C94.88 95.81 94.95 96.26 94.95 96.84L94.87 100.38C94.87 100.87 94.91 101.19 95 101.35C95.09 101.51 95.28 101.61 95.56 101.66C95.8 101.7 95.92 101.79 95.92 101.94C95.92 102.09 95.8 102.17 95.57 102.17C95.38 102.17 94.95 102.15 94.28 102.1C94.05 102.09 93.86 102.08 93.72 102.08C93.58 102.08 93.19 102.11 92.55 102.17L92.11 102.17C91.87 102.17 91.74 102.09 91.74 101.93C91.74 101.8 91.86 101.72 92.07 101.68C92.28 101.63 92.44 101.57 92.55 101.47C92.67 101.38 92.75 100.91 92.79 100.08C92.83 99.24 92.85 98.42 92.85 97.6C92.85 96.68 92.78 96.06 92.63 95.72C92.49 95.39 92.21 95.22 91.8 95.22C91.3 95.22 90.83 95.58 90.4 96.32C89.97 97.05 89.75 98.19 89.75 99.71C89.75 100.3 89.78 100.73 89.84 100.99C89.9 101.26 89.97 101.43 90.06 101.5C90.15 101.56 90.33 101.62 90.61 101.67C90.77 101.7 90.86 101.78 90.86 101.93C90.86 102.09 90.73 102.17 90.49 102.17C90.37 102.17 90.24 102.17 90.1 102.16C89.53 102.11 89.22 102.09 89.18 102.09C88.32 102.09 87.62 102.12 87.07 102.17C86.99 102.19 86.91 102.19 86.86 102.19C86.64 102.19 86.53 102.11 86.53 101.93C86.53 101.79 86.63 101.7 86.83 101.68C87.13 101.64 87.33 101.56 87.44 101.43C87.55 101.3 87.62 100.89 87.68 100.21C87.73 99.53 87.75 98.71 87.75 97.76C87.75 96.56 87.71 95.81 87.62 95.52C87.53 95.24 87.32 95.03 86.98 94.9C86.74 94.8 86.61 94.71 86.61 94.62C86.61 94.48 86.79 94.41 87.14 94.41C88.13 94.41 88.92 94.37 89.54 94.3C89.75 94.81 89.88 95.38 89.92 96.02Z" fill="#231815" fill-opacity="1.000000" fill-rule="nonzero"/>
	<path id="path" d="M88.2 15.54L88.2 3.28C88.2 1.46 86.72 0 84.9 0L11.02 0C9.2 0 7.72 1.46 7.72 3.28L7.72 15.54C7.72 17.35 9.2 18.82 11.02 18.82L26.32 18.82C28.14 18.82 29.62 20.29 29.62 22.1L29.62 30.53C29.62 32.35 31.09 33.81 32.91 33.81L49.93 33.81C51.75 33.81 53.22 35.28 53.22 37.09L53.22 47.72C53.22 49.53 51.75 51 49.93 51L32.91 51C31.09 51 29.62 52.46 29.62 54.28L29.62 67.42C29.62 69.23 31.09 70.7 32.91 70.7L50.95 70.7C52.77 70.7 54.24 69.23 54.24 67.42L54.24 55.48C54.24 53.66 55.72 52.2 57.54 52.2L63.01 52.2C64.83 52.2 66.3 50.73 66.3 48.92L66.3 35.78C66.3 33.97 64.83 32.5 63.01 32.5L57.54 32.5C55.72 32.5 54.24 31.03 54.24 29.22L54.24 22.1C54.24 20.29 55.72 18.82 57.54 18.82L84.9 18.82C86.72 18.82 88.2 17.35 88.2 15.54Z" fill="url(#paint_linear_4_4789_0)" fill-opacity="1.000000" fill-rule="nonzero"/>
	<path id="path" d="M9.51 111.86L8.17 108.43L8.56 108.43L9.7 111.39L9.73 111.39L10.86 108.43L11.25 108.43L9.9 111.86L9.51 111.86Z" fill="#231815" fill-opacity="1.000000" fill-rule="nonzero"/>
	<path id="path" d="M12.4 111.71C12.21 111.54 12.11 111.32 12.11 111.03C12.11 110.32 12.7 109.96 13.88 109.96L14.44 109.96L14.44 109.57C14.44 109.29 14.35 109.07 14.19 108.91C14.03 108.75 13.8 108.67 13.5 108.67C13.21 108.67 12.9 108.79 12.6 109.04L12.38 108.78C12.54 108.64 12.72 108.53 12.92 108.45C13.11 108.38 13.32 108.34 13.53 108.34C13.93 108.34 14.24 108.44 14.46 108.65C14.68 108.85 14.79 109.14 14.79 109.5L14.79 111.86L14.43 111.86L14.43 111.27L14.41 111.27C14.29 111.49 14.12 111.66 13.91 111.78C13.69 111.89 13.46 111.95 13.2 111.95C12.86 111.95 12.59 111.87 12.4 111.71ZM13.83 111.49C14.01 111.4 14.16 111.28 14.27 111.11C14.38 110.95 14.43 110.76 14.43 110.55L14.43 110.29L13.95 110.29C12.97 110.29 12.48 110.53 12.48 111.01C12.48 111.2 12.55 111.35 12.69 111.45C12.83 111.56 13.02 111.62 13.26 111.62C13.46 111.62 13.65 111.58 13.83 111.49Z" fill="#231815" fill-opacity="1.000000" fill-rule="nonzero"/>
	<path id="path" d="M16.85 111.73C16.61 111.58 16.43 111.37 16.3 111.09C16.17 110.82 16.11 110.5 16.11 110.14C16.11 109.79 16.17 109.48 16.3 109.21C16.43 108.94 16.61 108.73 16.85 108.58C17.09 108.43 17.37 108.35 17.69 108.35C17.94 108.35 18.19 108.42 18.41 108.55C18.64 108.68 18.82 108.86 18.94 109.07L18.66 109.27C18.56 109.09 18.42 108.95 18.24 108.85C18.06 108.75 17.87 108.7 17.67 108.7C17.43 108.7 17.23 108.76 17.05 108.88C16.87 109 16.73 109.17 16.63 109.39C16.53 109.61 16.48 109.86 16.48 110.15C16.48 110.43 16.53 110.69 16.63 110.91C16.72 111.14 16.86 111.31 17.04 111.44C17.22 111.56 17.43 111.62 17.67 111.62C17.87 111.62 18.06 111.57 18.24 111.47C18.42 111.37 18.56 111.23 18.66 111.05L18.95 111.25C18.82 111.47 18.64 111.64 18.41 111.77C18.19 111.9 17.94 111.96 17.69 111.96C17.37 111.96 17.09 111.88 16.85 111.73Z" fill="#231815" fill-opacity="1.000000" fill-rule="nonzero"/>
	<path id="path" d="M23.03 108.43L23.03 111.86L22.66 111.86L22.66 111.26L22.64 111.26C22.53 111.47 22.37 111.65 22.16 111.77C21.94 111.89 21.71 111.95 21.46 111.95C21.07 111.95 20.76 111.83 20.54 111.59C20.32 111.35 20.22 111.01 20.22 110.57L20.22 108.43L20.58 108.43L20.58 110.51C20.58 110.86 20.67 111.13 20.84 111.33C21.01 111.52 21.25 111.62 21.54 111.62C21.76 111.62 21.95 111.57 22.12 111.47C22.3 111.37 22.43 111.23 22.52 111.05C22.62 110.87 22.66 110.68 22.66 110.47L22.66 108.43L23.03 108.43Z" fill="#231815" fill-opacity="1.000000" fill-rule="nonzero"/>
	<path id="path" d="M27.31 108.43L27.31 111.86L26.94 111.86L26.94 111.26L26.91 111.26C26.81 111.47 26.64 111.65 26.43 111.77C26.22 111.89 25.99 111.95 25.73 111.95C25.34 111.95 25.04 111.83 24.82 111.59C24.6 111.35 24.49 111.01 24.49 110.57L24.49 108.43L24.86 108.43L24.86 110.51C24.86 110.86 24.95 111.13 25.12 111.33C25.29 111.52 25.52 111.62 25.82 111.62C26.04 111.62 26.23 111.57 26.4 111.47C26.57 111.37 26.7 111.23 26.8 111.05C26.89 110.87 26.94 110.68 26.94 110.47L26.94 108.43L27.31 108.43Z" fill="#231815" fill-opacity="1.000000" fill-rule="nonzero"/>
	<path id="path" d="M28.81 111.86L28.81 108.43L29.18 108.43L29.17 109.03L29.2 109.03C29.31 108.82 29.45 108.65 29.64 108.53C29.83 108.4 30.03 108.33 30.24 108.33C30.48 108.33 30.69 108.41 30.87 108.55C31.04 108.69 31.18 108.9 31.27 109.17C31.37 108.91 31.54 108.71 31.76 108.56C31.97 108.41 32.21 108.33 32.48 108.33C32.83 108.33 33.12 108.46 33.33 108.71C33.53 108.96 33.64 109.3 33.64 109.73L33.64 111.86L33.27 111.86L33.27 109.79C33.27 109.45 33.19 109.18 33.03 108.97C32.87 108.77 32.67 108.67 32.4 108.67C32.21 108.67 32.04 108.72 31.89 108.81C31.74 108.91 31.62 109.04 31.53 109.22C31.45 109.4 31.41 109.6 31.41 109.83L31.41 111.86L31.04 111.86L31.04 109.79C31.04 109.45 30.96 109.18 30.8 108.98C30.64 108.77 30.43 108.67 30.17 108.67C29.99 108.67 29.83 108.72 29.67 108.82C29.52 108.92 29.39 109.05 29.31 109.23C29.22 109.41 29.17 109.61 29.17 109.83L29.17 111.86L28.81 111.86Z" fill="#231815" fill-opacity="1.000000" fill-rule="nonzero"/>
	<path id="path" d="M37.93 111.86L37.93 108.43L38.29 108.43L38.29 109.05L38.31 109.05C38.42 108.84 38.58 108.66 38.8 108.53C39.01 108.4 39.24 108.33 39.5 108.33C39.88 108.33 40.18 108.46 40.4 108.71C40.63 108.96 40.74 109.3 40.74 109.73L40.74 111.86L40.38 111.86L40.38 109.79C40.38 109.45 40.29 109.18 40.11 108.97C39.93 108.77 39.7 108.67 39.42 108.67C39.19 108.67 39 108.72 38.83 108.82C38.66 108.93 38.53 109.07 38.43 109.25C38.34 109.42 38.29 109.62 38.29 109.83L38.29 111.86L37.93 111.86Z" fill="#231815" fill-opacity="1.000000" fill-rule="nonzero"/>
	<path id="path" d="M45.01 110.26L42.41 110.26C42.43 110.66 42.55 110.99 42.77 111.24C43 111.49 43.28 111.61 43.64 111.61C43.85 111.61 44.04 111.56 44.23 111.45C44.42 111.35 44.57 111.21 44.67 111.03L44.95 111.22C44.83 111.45 44.65 111.62 44.42 111.75C44.18 111.88 43.92 111.94 43.64 111.94C43.32 111.94 43.04 111.87 42.8 111.72C42.55 111.57 42.37 111.36 42.24 111.09C42.11 110.82 42.04 110.51 42.04 110.15C42.04 109.79 42.1 109.47 42.23 109.2C42.36 108.92 42.54 108.71 42.77 108.56C43 108.41 43.27 108.33 43.58 108.33C43.88 108.33 44.13 108.4 44.35 108.53C44.58 108.67 44.75 108.85 44.87 109.1C44.99 109.34 45.05 109.62 45.05 109.93C45.05 110.03 45.03 110.14 45.01 110.26ZM44.67 109.92C44.67 109.55 44.57 109.25 44.37 109.01C44.17 108.78 43.91 108.67 43.58 108.67C43.26 108.67 43 108.78 42.79 109.01C42.58 109.23 42.46 109.54 42.42 109.92L44.67 109.92Z" fill="#231815" fill-opacity="1.000000" fill-rule="nonzero"/>
	<path id="path" d="M47.96 108.77L46.93 108.77L46.93 110.91C46.93 111.13 46.99 111.3 47.09 111.43C47.2 111.55 47.34 111.61 47.52 111.61C47.62 111.61 47.74 111.58 47.88 111.53L47.88 111.87C47.74 111.92 47.6 111.95 47.45 111.95C47.17 111.95 46.95 111.86 46.8 111.69C46.65 111.52 46.57 111.27 46.57 110.94L46.57 108.77L46.02 108.77L46.02 108.43L46.57 108.43L46.57 107.41L46.93 107.41L46.93 108.43L47.96 108.43L47.96 108.77Z" fill="#231815" fill-opacity="1.000000" fill-rule="nonzero"/>
	<path id="path" d="M49.76 111.86L48.63 108.43L49.03 108.43L49.94 111.35L49.97 111.35L50.88 108.43L51.28 108.43L52.2 111.35L53.13 108.43L53.53 108.43L52.4 111.86L52.01 111.86L51.09 108.92L51.07 108.92L50.15 111.86L49.76 111.86Z" fill="#231815" fill-opacity="1.000000" fill-rule="nonzero"/>
	<path id="path" d="M55.1 111.73C54.87 111.58 54.69 111.37 54.56 111.09C54.43 110.82 54.37 110.5 54.37 110.14C54.37 109.79 54.43 109.47 54.56 109.2C54.69 108.92 54.87 108.71 55.1 108.56C55.34 108.41 55.6 108.33 55.9 108.33C56.21 108.33 56.48 108.41 56.71 108.56C56.94 108.71 57.12 108.92 57.25 109.2C57.38 109.47 57.45 109.79 57.45 110.14C57.45 110.5 57.38 110.82 57.25 111.09C57.12 111.37 56.94 111.58 56.71 111.73C56.48 111.88 56.21 111.95 55.9 111.95C55.6 111.95 55.33 111.88 55.1 111.73ZM56.52 111.43C56.7 111.31 56.83 111.14 56.93 110.91C57.03 110.69 57.08 110.44 57.08 110.14C57.08 109.85 57.03 109.6 56.93 109.38C56.83 109.15 56.69 108.98 56.52 108.86C56.34 108.74 56.14 108.67 55.91 108.67C55.67 108.67 55.47 108.74 55.3 108.86C55.12 108.98 54.98 109.15 54.88 109.38C54.79 109.6 54.74 109.85 54.74 110.14C54.74 110.44 54.79 110.69 54.88 110.91C54.98 111.14 55.12 111.31 55.3 111.43C55.47 111.55 55.67 111.62 55.91 111.62C56.14 111.62 56.34 111.55 56.52 111.43Z" fill="#231815" fill-opacity="1.000000" fill-rule="nonzero"/>
	<path id="path" d="M58.79 111.86L58.79 108.43L59.15 108.43L59.15 109.19L59.18 109.19C59.31 108.94 59.5 108.74 59.74 108.58C59.98 108.42 60.25 108.33 60.56 108.33L60.62 108.33L60.62 108.73L60.53 108.73C60.26 108.73 60.02 108.78 59.81 108.9C59.6 109.02 59.44 109.17 59.32 109.35C59.21 109.53 59.15 109.7 59.15 109.88L59.15 111.86L58.79 111.86Z" fill="#231815" fill-opacity="1.000000" fill-rule="nonzero"/>
	<path id="path" d="M64.37 111.86L63.92 111.86L62.42 110.14L62.07 110.46L62.07 111.86L61.71 111.86L61.71 106.93L62.07 106.93L62.07 109.99L63.77 108.43L64.28 108.43L62.68 109.9L64.37 111.86Z" fill="#231815" fill-opacity="1.000000" fill-rule="nonzero"/>
	<path id="path" d="M68.27 111.86L68.27 108.43L68.63 108.43L68.63 109.05L68.66 109.05C68.77 108.84 68.93 108.66 69.14 108.53C69.35 108.4 69.58 108.33 69.84 108.33C70.22 108.33 70.53 108.46 70.75 108.71C70.97 108.96 71.08 109.3 71.08 109.73L71.08 111.86L70.72 111.86L70.72 109.79C70.72 109.45 70.63 109.18 70.45 108.97C70.27 108.77 70.04 108.67 69.76 108.67C69.54 108.67 69.34 108.72 69.17 108.82C69 108.93 68.87 109.07 68.77 109.25C68.68 109.42 68.63 109.62 68.63 109.83L68.63 111.86L68.27 111.86Z" fill="#231815" fill-opacity="1.000000" fill-rule="nonzero"/>
	<path id="path" d="M73.12 111.73C72.89 111.58 72.71 111.37 72.58 111.09C72.45 110.82 72.38 110.5 72.38 110.14C72.38 109.79 72.45 109.47 72.58 109.2C72.71 108.92 72.89 108.71 73.12 108.56C73.35 108.41 73.62 108.33 73.92 108.33C74.22 108.33 74.49 108.41 74.73 108.56C74.96 108.71 75.14 108.92 75.27 109.2C75.39 109.47 75.46 109.79 75.46 110.14C75.46 110.5 75.39 110.82 75.27 111.09C75.14 111.37 74.96 111.58 74.73 111.73C74.49 111.88 74.22 111.95 73.92 111.95C73.62 111.95 73.35 111.88 73.12 111.73ZM74.53 111.43C74.71 111.31 74.85 111.14 74.94 110.91C75.04 110.69 75.09 110.44 75.09 110.14C75.09 109.85 75.04 109.6 74.94 109.38C74.85 109.15 74.71 108.98 74.53 108.86C74.35 108.74 74.15 108.67 73.92 108.67C73.69 108.67 73.48 108.74 73.31 108.86C73.13 108.98 73 109.15 72.9 109.38C72.8 109.6 72.75 109.85 72.75 110.14C72.75 110.44 72.8 110.69 72.9 110.91C73 111.14 73.13 111.31 73.31 111.43C73.48 111.55 73.69 111.62 73.92 111.62C74.15 111.62 74.35 111.55 74.53 111.43Z" fill="#231815" fill-opacity="1.000000" fill-rule="nonzero"/>
	<path id="path" d="M79.7 111.86L79.34 111.86L79.34 111.2L79.32 111.2C79.2 111.44 79.04 111.62 78.83 111.75C78.63 111.89 78.39 111.95 78.12 111.95C77.84 111.95 77.58 111.87 77.36 111.72C77.13 111.56 76.96 111.34 76.83 111.06C76.7 110.78 76.64 110.47 76.64 110.12C76.64 109.78 76.7 109.47 76.83 109.2C76.96 108.93 77.13 108.72 77.36 108.56C77.58 108.41 77.84 108.33 78.12 108.33C78.38 108.33 78.61 108.4 78.81 108.54C79.02 108.67 79.19 108.86 79.32 109.1L79.34 109.1L79.34 106.92L79.7 106.92L79.7 111.86ZM79.2 109.4C79.1 109.18 78.96 109.01 78.79 108.88C78.61 108.76 78.41 108.69 78.19 108.69C77.96 108.69 77.76 108.75 77.58 108.88C77.4 109 77.26 109.17 77.16 109.39C77.06 109.61 77.01 109.86 77.01 110.14C77.01 110.43 77.06 110.68 77.16 110.9C77.27 111.12 77.41 111.29 77.59 111.41C77.77 111.53 77.98 111.6 78.2 111.6C78.43 111.6 78.62 111.53 78.8 111.41C78.98 111.29 79.11 111.12 79.21 110.9C79.3 110.68 79.35 110.43 79.35 110.15C79.35 109.87 79.3 109.62 79.2 109.4Z" fill="#231815" fill-opacity="1.000000" fill-rule="nonzero"/>
	<path id="path" d="M84.02 110.26L81.42 110.26C81.44 110.66 81.56 110.99 81.78 111.24C82 111.49 82.29 111.61 82.64 111.61C82.85 111.61 83.05 111.56 83.24 111.45C83.43 111.35 83.58 111.21 83.68 111.03L83.96 111.22C83.84 111.45 83.66 111.62 83.42 111.75C83.19 111.88 82.93 111.94 82.64 111.94C82.32 111.94 82.04 111.87 81.8 111.72C81.56 111.57 81.38 111.36 81.25 111.09C81.12 110.82 81.05 110.51 81.05 110.15C81.05 109.79 81.11 109.47 81.24 109.2C81.36 108.92 81.55 108.71 81.78 108.56C82.01 108.41 82.28 108.33 82.59 108.33C82.89 108.33 83.14 108.4 83.36 108.53C83.58 108.67 83.75 108.85 83.88 109.1C84 109.34 84.06 109.62 84.06 109.93C84.05 110.03 84.04 110.14 84.02 110.26ZM83.68 109.92C83.68 109.55 83.58 109.25 83.38 109.01C83.18 108.78 82.92 108.67 82.59 108.67C82.27 108.67 82.01 108.78 81.8 109.01C81.59 109.23 81.46 109.54 81.43 109.92L83.68 109.92Z" fill="#231815" fill-opacity="1.000000" fill-rule="nonzero"/>
	<path id="path" d="M85.65 111.75C85.41 111.62 85.23 111.43 85.11 111.2L85.42 111.02C85.53 111.21 85.67 111.35 85.86 111.46C86.05 111.57 86.26 111.62 86.49 111.62C86.75 111.62 86.97 111.56 87.13 111.45C87.29 111.34 87.37 111.19 87.37 111.01C87.37 110.83 87.29 110.7 87.13 110.59C86.97 110.48 86.73 110.39 86.41 110.31C86.02 110.23 85.72 110.1 85.52 109.95C85.32 109.79 85.23 109.59 85.23 109.34C85.23 109.03 85.34 108.79 85.56 108.61C85.78 108.42 86.08 108.33 86.45 108.33C86.74 108.33 86.99 108.4 87.21 108.53C87.42 108.65 87.6 108.83 87.74 109.05L87.44 109.26C87.33 109.07 87.19 108.93 87.02 108.82C86.84 108.72 86.65 108.67 86.45 108.67C86.19 108.67 85.98 108.73 85.83 108.84C85.67 108.96 85.6 109.11 85.6 109.3C85.6 109.47 85.68 109.61 85.84 109.72C86 109.83 86.25 109.92 86.57 110C86.94 110.07 87.23 110.19 87.43 110.35C87.63 110.52 87.73 110.72 87.73 110.96C87.73 111.26 87.62 111.51 87.39 111.69C87.16 111.87 86.86 111.95 86.47 111.95C86.16 111.95 85.88 111.89 85.65 111.75Z" fill="#231815" fill-opacity="1.000000" fill-rule="nonzero"/>
</svg>
