<svg width="131.000000" height="33.000000" viewBox="0 0 131 33" fill="none" xmlns="http://www.w3.org/2000/svg" xmlns:xlink="http://www.w3.org/1999/xlink">
	<desc>
			Created with Pixso.
	</desc>
	<defs/>
	<path id="path" d="M46.91 5.86C49.62 5.94 51.63 5.97 52.93 5.97C53.91 5.97 55 5.94 56.18 5.89C56.61 5.87 56.95 5.86 57.23 5.86C57.33 5.86 57.51 5.86 57.75 5.86C57.79 6.08 57.84 6.52 57.89 7.19L58.01 8.42C58.01 8.63 57.93 8.73 57.75 8.73C57.62 8.73 57.5 8.6 57.38 8.35C57.18 7.93 56.93 7.57 56.62 7.26C56.3 6.96 55.95 6.76 55.53 6.66C55.12 6.56 54.45 6.51 53.5 6.51C53.42 7.31 53.38 8.31 53.38 9.51C53.38 10.73 53.4 11.92 53.45 13.05C53.5 14.19 53.55 14.88 53.62 15.11C53.69 15.35 53.8 15.52 53.96 15.63C54.13 15.74 54.51 15.82 55.1 15.86C55.31 15.87 55.41 15.95 55.41 16.08C55.41 16.22 55.32 16.3 55.14 16.3L54.92 16.29L53.3 16.25C52.04 16.25 51.27 16.26 51 16.27L50.01 16.3C49.93 16.3 49.77 16.3 49.52 16.29C49.4 16.26 49.34 16.2 49.34 16.09C49.34 15.94 49.44 15.87 49.64 15.87C50.11 15.87 50.45 15.77 50.69 15.58C50.92 15.38 51.07 15.08 51.13 14.66C51.18 14.24 51.21 13.33 51.21 11.92C51.21 9.71 51.14 7.91 51 6.51C50.14 6.51 49.52 6.55 49.14 6.62C48.75 6.69 48.38 6.88 48.03 7.2C47.67 7.51 47.38 7.92 47.16 8.42C47.07 8.62 46.97 8.72 46.85 8.72C46.68 8.72 46.59 8.64 46.59 8.48C46.59 8.44 46.62 8.09 46.69 7.46C46.75 6.82 46.83 6.29 46.91 5.86Z" fill="#231815" fill-opacity="1.000000" fill-rule="nonzero"/>
	<path id="path" d="M61.16 10.97C61.42 10.44 61.72 10.05 62.06 9.79C62.4 9.53 62.78 9.4 63.19 9.4C63.59 9.4 63.91 9.51 64.14 9.74C64.38 9.97 64.5 10.26 64.5 10.6C64.5 10.87 64.41 11.1 64.24 11.29C64.07 11.48 63.87 11.58 63.62 11.58C63.44 11.58 63.29 11.53 63.17 11.44C63.05 11.34 62.92 11.18 62.78 10.94C62.6 10.6 62.43 10.42 62.29 10.42C62.1 10.42 61.88 10.62 61.63 11.01C61.39 11.4 61.27 12.16 61.27 13.28C61.27 14.7 61.31 15.49 61.41 15.65C61.51 15.81 61.72 15.89 62.05 15.89C62.33 15.89 62.48 15.96 62.48 16.12C62.48 16.27 62.34 16.34 62.06 16.34C61.9 16.34 61.67 16.33 61.37 16.3C61.1 16.28 60.85 16.26 60.61 16.26C60.09 16.26 59.58 16.28 59.07 16.32C58.86 16.33 58.73 16.34 58.7 16.34C58.48 16.34 58.37 16.26 58.37 16.09C58.37 15.95 58.5 15.88 58.75 15.86C59 15.85 59.18 15.79 59.28 15.69C59.38 15.58 59.43 15.35 59.43 14.99L59.46 13.04C59.46 12.64 59.44 12.15 59.41 11.56C59.38 10.97 59.35 10.62 59.32 10.51C59.3 10.4 59.23 10.3 59.12 10.21C59.02 10.12 58.87 10.07 58.69 10.05C58.5 10.03 58.38 10.01 58.33 9.98C58.28 9.95 58.26 9.89 58.26 9.8C58.26 9.66 58.39 9.59 58.65 9.58C59.13 9.58 59.95 9.52 61.1 9.4L61.16 10.97Z" fill="#231815" fill-opacity="1.000000" fill-rule="nonzero"/>
	<path id="path" d="M67.58 9.55C67.61 10.08 67.62 10.82 67.62 11.74C67.62 13.15 67.64 14.05 67.66 14.44C67.69 14.84 67.79 15.13 67.97 15.33C68.15 15.53 68.36 15.63 68.59 15.63C68.86 15.63 69.13 15.53 69.41 15.32C69.69 15.12 69.9 14.85 70.03 14.53C70.16 14.2 70.23 13.66 70.23 12.92L70.25 11.19C70.25 10.73 70.22 10.43 70.17 10.28C70.12 10.14 69.95 10.06 69.67 10.05C69.35 10.03 69.2 9.95 69.2 9.81C69.2 9.72 69.24 9.66 69.31 9.64C69.39 9.61 69.59 9.6 69.91 9.6C70.64 9.6 71.31 9.58 71.94 9.55C71.96 9.75 71.97 10.86 71.97 12.89C71.97 14.51 71.98 15.4 72.02 15.55C72.05 15.7 72.22 15.79 72.52 15.81C72.71 15.83 72.8 15.91 72.8 16.04C72.8 16.19 72.69 16.26 72.48 16.26C72.44 16.26 72.38 16.26 72.29 16.26C72.14 16.25 71.97 16.24 71.77 16.24C71.08 16.24 70.69 16.24 70.62 16.25C70.54 16.25 70.47 16.26 70.41 16.26C70.31 16.26 70.25 16.24 70.23 16.21C70.2 16.17 70.19 16.07 70.19 15.9C70.19 15.63 70.21 15.36 70.25 15.08C69.89 15.52 69.51 15.85 69.11 16.07C68.71 16.29 68.29 16.4 67.85 16.4C66.52 16.4 65.86 15.65 65.86 14.16L65.86 11.74C65.86 10.91 65.83 10.42 65.77 10.28C65.71 10.13 65.55 10.04 65.29 10.01C65.06 9.98 64.95 9.91 64.95 9.8C64.95 9.66 65.05 9.59 65.25 9.59C66.65 9.59 67.43 9.58 67.58 9.55Z" fill="#231815" fill-opacity="1.000000" fill-rule="nonzero"/>
	<path id="path" d="M79.3 14.08C79.3 14.46 79.2 14.82 79 15.18C78.81 15.53 78.51 15.83 78.12 16.06C77.72 16.29 77.26 16.4 76.74 16.4C76.08 16.4 75.52 16.27 75.07 16C74.87 15.88 74.74 15.83 74.68 15.83C74.62 15.83 74.56 15.87 74.53 15.96C74.44 16.16 74.34 16.26 74.23 16.26C74.16 16.26 74.11 16.24 74.08 16.18C74.06 16.13 74.03 15.9 74.01 15.49C73.99 15.07 73.99 14.58 73.99 14.02C73.99 13.8 74.05 13.69 74.17 13.69C74.3 13.69 74.43 13.85 74.57 14.17C75.07 15.35 75.76 15.93 76.62 15.93C76.93 15.93 77.18 15.85 77.4 15.7C77.61 15.54 77.71 15.31 77.71 15.02C77.71 14.77 77.62 14.55 77.42 14.37C77.22 14.19 76.85 13.97 76.3 13.69C75.46 13.28 74.89 12.92 74.58 12.62C74.27 12.31 74.11 11.9 74.11 11.39C74.11 10.8 74.34 10.32 74.79 9.95C75.25 9.58 75.8 9.4 76.47 9.4C76.99 9.4 77.53 9.56 78.07 9.87C78.14 9.91 78.21 9.93 78.25 9.93C78.32 9.93 78.37 9.88 78.41 9.76C78.46 9.62 78.54 9.54 78.63 9.54C78.7 9.54 78.75 9.57 78.78 9.61C78.8 9.66 78.84 9.9 78.89 10.34C78.93 10.78 78.96 11.15 78.96 11.44C78.96 11.65 78.9 11.75 78.78 11.75C78.65 11.75 78.52 11.6 78.39 11.31C77.95 10.34 77.31 9.86 76.48 9.86C76.17 9.86 75.93 9.93 75.74 10.08C75.55 10.23 75.46 10.39 75.46 10.57C75.46 10.79 75.58 10.99 75.82 11.17C76.06 11.36 76.52 11.61 77.22 11.93C77.82 12.2 78.23 12.41 78.46 12.56C78.69 12.71 78.89 12.92 79.05 13.2C79.21 13.48 79.3 13.78 79.3 14.08Z" fill="#231815" fill-opacity="1.000000" fill-rule="nonzero"/>
	<path id="path" d="M83.5 9.52C83.82 9.51 84.3 9.5 84.96 9.5C85.26 9.5 85.51 9.53 85.7 9.58C85.62 9.97 85.55 10.18 85.49 10.2C85.43 10.23 84.77 10.28 83.5 10.35L83.41 13.8C83.41 14.29 83.44 14.65 83.49 14.88C83.54 15.11 83.65 15.3 83.83 15.46C84.01 15.62 84.23 15.69 84.52 15.69C84.76 15.69 85.1 15.57 85.54 15.31C85.61 15.27 85.67 15.26 85.71 15.26C85.81 15.26 85.86 15.31 85.86 15.41C85.86 15.56 85.65 15.77 85.23 16.03C84.81 16.29 84.31 16.42 83.74 16.42C83.07 16.42 82.54 16.26 82.16 15.93C81.77 15.6 81.58 14.91 81.58 13.85C81.58 12.68 81.6 11.52 81.64 10.35C81.13 10.35 80.76 10.34 80.55 10.32C80.33 10.29 80.23 10.22 80.23 10.09C80.23 9.98 80.35 9.9 80.6 9.84C81.08 9.73 81.52 9.53 81.9 9.24C82.28 8.96 82.61 8.5 82.88 7.88C82.99 7.62 83.07 7.47 83.11 7.41C83.14 7.36 83.2 7.33 83.27 7.33C83.42 7.33 83.5 7.46 83.5 7.71L83.5 9.52Z" fill="#231815" fill-opacity="1.000000" fill-rule="nonzero"/>
	<path id="path" d="M99.31 6.65C99.42 6.52 99.54 6.37 99.66 6.2C99.8 6 99.91 5.89 100.01 5.89C100.11 5.89 100.18 5.92 100.21 5.97C100.24 6.02 100.27 6.19 100.29 6.46L100.45 8.9L100.46 9.21C100.46 9.42 100.38 9.52 100.21 9.52C100.1 9.52 100.01 9.44 99.95 9.27C99.73 8.71 99.35 8.1 98.79 7.42C98.24 6.75 97.53 6.41 96.69 6.41C96.06 6.41 95.53 6.59 95.11 6.96C94.68 7.32 94.35 7.81 94.11 8.45C93.87 9.08 93.76 9.83 93.76 10.71C93.76 12.22 94.09 13.42 94.75 14.31C95.41 15.2 96.24 15.64 97.23 15.64C98.3 15.64 99.28 14.99 100.17 13.7C100.28 13.54 100.38 13.47 100.48 13.47C100.65 13.47 100.73 13.55 100.73 13.72C100.73 14.06 100.32 14.61 99.5 15.36C98.67 16.11 97.65 16.48 96.41 16.48C94.77 16.48 93.47 15.98 92.53 14.97C91.58 13.96 91.1 12.71 91.1 11.24C91.1 9.77 91.58 8.49 92.54 7.41C93.5 6.33 94.71 5.79 96.17 5.79C97.2 5.79 98.25 6.07 99.31 6.65Z" fill="#231815" fill-opacity="1.000000" fill-rule="nonzero"/>
	<path id="path" d="M104.39 5.6C104.37 6.12 104.36 6.57 104.36 6.94L104.37 9.03C104.37 9.93 104.38 10.47 104.39 10.68C104.7 10.26 105.04 9.94 105.42 9.73C105.8 9.52 106.22 9.41 106.67 9.41C107.04 9.41 107.38 9.5 107.71 9.67C108.04 9.84 108.29 10.12 108.48 10.51C108.65 10.91 108.74 11.59 108.74 12.57L108.72 15.03C108.72 15.57 108.93 15.86 109.36 15.9C109.52 15.92 109.61 15.99 109.61 16.11C109.61 16.26 109.52 16.34 109.34 16.34C109.29 16.34 109.22 16.33 109.13 16.33C108.76 16.28 108.22 16.26 107.51 16.26C107.39 16.26 107.17 16.28 106.86 16.31C106.64 16.33 106.45 16.34 106.29 16.34C106.07 16.34 105.97 16.27 105.97 16.13C105.97 16.01 106.09 15.93 106.33 15.89C106.57 15.86 106.72 15.71 106.79 15.45C106.86 15.19 106.89 14.4 106.89 13.07C106.89 11.87 106.83 11.08 106.71 10.71C106.58 10.34 106.33 10.15 105.96 10.15C105.65 10.15 105.34 10.31 105.04 10.63C104.73 10.94 104.54 11.38 104.44 11.94C104.35 12.51 104.3 13.2 104.3 14.02C104.3 14.44 104.32 14.81 104.36 15.13C104.4 15.44 104.46 15.64 104.54 15.71C104.61 15.79 104.74 15.84 104.93 15.87C105.12 15.89 105.22 15.98 105.22 16.12C105.22 16.26 105.11 16.33 104.89 16.33C104.72 16.33 104.48 16.31 104.16 16.28C103.9 16.26 103.67 16.25 103.46 16.25C103.05 16.25 102.67 16.27 102.31 16.31C102.13 16.33 101.9 16.34 101.61 16.34C101.46 16.34 101.39 16.27 101.39 16.12C101.39 16 101.49 15.93 101.71 15.89C101.97 15.86 102.16 15.75 102.26 15.56C102.36 15.37 102.43 14.68 102.47 13.5C102.5 12.32 102.52 10.51 102.52 8.08C102.52 7.33 102.47 6.85 102.35 6.63C102.24 6.4 102.04 6.25 101.77 6.16C101.51 6.08 101.38 5.98 101.38 5.87C101.38 5.73 101.49 5.66 101.72 5.66C102.51 5.66 103.41 5.64 104.39 5.6Z" fill="#231815" fill-opacity="1.000000" fill-rule="nonzero"/>
	<path id="path" d="M114.22 15.52C113.9 15.83 113.57 16.06 113.25 16.21C112.92 16.37 112.58 16.44 112.25 16.44C111.72 16.44 111.31 16.28 111.02 15.96C110.73 15.64 110.58 15.25 110.58 14.79C110.58 14.43 110.67 14.12 110.84 13.84C111.02 13.56 111.23 13.34 111.49 13.19C111.75 13.03 112.18 12.85 112.77 12.63C113.27 12.46 113.6 12.32 113.77 12.21C113.94 12.11 114.09 11.96 114.2 11.77C114.32 11.57 114.37 11.32 114.37 11.01C114.37 10.67 114.29 10.39 114.11 10.19C113.94 9.98 113.71 9.88 113.41 9.88C113.15 9.88 112.96 9.94 112.85 10.07C112.74 10.21 112.66 10.43 112.6 10.72C112.48 11.31 112.16 11.61 111.64 11.61C111.43 11.61 111.24 11.55 111.09 11.42C110.94 11.3 110.86 11.12 110.86 10.88C110.86 10.38 111.14 10.01 111.68 9.76C112.23 9.51 112.88 9.39 113.64 9.39C114.29 9.39 114.82 9.49 115.23 9.69C115.64 9.88 115.9 10.11 116.01 10.37C116.13 10.64 116.19 11.04 116.19 11.59L116.17 13.45C116.17 14.42 116.2 15.05 116.27 15.32C116.33 15.6 116.47 15.74 116.69 15.74C116.72 15.74 116.76 15.73 116.81 15.73C116.92 15.72 116.99 15.71 117.02 15.71C117.24 15.71 117.35 15.77 117.35 15.89C117.35 15.97 117.3 16.04 117.21 16.09C117.12 16.15 116.85 16.22 116.41 16.3C115.96 16.38 115.56 16.43 115.2 16.43C114.84 16.43 114.59 16.36 114.46 16.22C114.33 16.08 114.25 15.85 114.22 15.52ZM114.33 12.38C114.2 12.54 113.9 12.74 113.43 12.99C112.99 13.22 112.7 13.42 112.56 13.6C112.41 13.78 112.34 14.05 112.34 14.39C112.34 14.76 112.41 15.04 112.57 15.23C112.72 15.42 112.91 15.51 113.14 15.51C113.44 15.51 113.72 15.37 113.98 15.09C114.24 14.81 114.37 14.32 114.37 13.61C114.37 13.4 114.36 12.99 114.33 12.38Z" fill="#231815" fill-opacity="1.000000" fill-rule="nonzero"/>
	<path id="path" d="M120.96 9.39C120.99 10.12 121 11.42 121 13.29L120.97 14.97C120.97 15.31 121.03 15.54 121.14 15.65C121.25 15.77 121.44 15.84 121.69 15.88C121.98 15.92 122.13 16 122.13 16.13C122.13 16.27 122.02 16.34 121.79 16.34C121.68 16.34 121.49 16.33 121.22 16.32C120.64 16.28 120.07 16.26 119.51 16.26C119.23 16.26 118.95 16.28 118.66 16.31C118.49 16.33 118.37 16.34 118.31 16.34C118.08 16.34 117.97 16.27 117.97 16.13C117.97 16 118.12 15.92 118.42 15.89C118.82 15.85 119.05 15.72 119.1 15.49C119.14 15.25 119.17 14.78 119.17 14.07C119.17 13.16 119.15 12.31 119.12 11.55C119.09 10.78 119.04 10.34 118.96 10.23C118.88 10.12 118.68 10.04 118.35 10.01C118.1 9.98 117.97 9.91 117.97 9.78C117.97 9.65 118.1 9.58 118.36 9.56L118.52 9.55L120.96 9.39ZM120.85 6.75C120.85 7.05 120.74 7.32 120.52 7.54C120.3 7.76 120.03 7.87 119.73 7.87C119.41 7.87 119.15 7.76 118.93 7.54C118.71 7.32 118.6 7.05 118.6 6.75C118.6 6.43 118.71 6.17 118.93 5.95C119.15 5.73 119.41 5.62 119.73 5.62C120.03 5.62 120.3 5.73 120.52 5.95C120.74 6.17 120.85 6.43 120.85 6.75Z" fill="#231815" fill-opacity="1.000000" fill-rule="nonzero"/>
	<path id="path" d="M125.65 10.92C126.01 10.42 126.39 10.04 126.81 9.79C127.22 9.54 127.67 9.41 128.14 9.41C128.54 9.41 128.9 9.52 129.23 9.72C129.56 9.92 129.78 10.17 129.9 10.45C130.02 10.73 130.08 11.13 130.08 11.64L130 14.76C130 15.19 130.04 15.47 130.12 15.62C130.2 15.76 130.36 15.85 130.61 15.89C130.82 15.92 130.93 16.01 130.93 16.14C130.93 16.27 130.83 16.34 130.62 16.34C130.45 16.34 130.07 16.32 129.49 16.28C129.28 16.27 129.12 16.26 128.99 16.26C128.87 16.26 128.53 16.29 127.96 16.34L127.58 16.34C127.36 16.34 127.26 16.27 127.26 16.13C127.26 16.02 127.35 15.94 127.55 15.9C127.72 15.87 127.87 15.81 127.97 15.72C128.07 15.64 128.14 15.23 128.18 14.5C128.21 13.76 128.23 13.03 128.23 12.3C128.23 11.5 128.16 10.95 128.04 10.65C127.91 10.35 127.67 10.21 127.31 10.21C126.86 10.21 126.45 10.53 126.07 11.18C125.69 11.83 125.51 12.82 125.51 14.17C125.51 14.69 125.53 15.07 125.58 15.3C125.64 15.54 125.7 15.68 125.77 15.75C125.85 15.8 126.01 15.86 126.26 15.9C126.4 15.92 126.48 16 126.48 16.12C126.48 16.27 126.37 16.34 126.15 16.34C126.05 16.34 125.94 16.34 125.81 16.33C125.31 16.29 125.04 16.27 125 16.27C124.25 16.27 123.63 16.29 123.15 16.34C123.07 16.35 123.01 16.36 122.96 16.36C122.77 16.36 122.67 16.28 122.67 16.13C122.67 16 122.76 15.93 122.93 15.91C123.2 15.87 123.38 15.8 123.47 15.69C123.57 15.57 123.63 15.21 123.68 14.61C123.72 14.01 123.75 13.29 123.75 12.45C123.75 11.39 123.71 10.73 123.63 10.48C123.55 10.22 123.36 10.04 123.07 9.93C122.85 9.84 122.75 9.76 122.75 9.68C122.75 9.56 122.9 9.5 123.21 9.5C124.08 9.5 124.78 9.46 125.31 9.4C125.51 9.84 125.62 10.35 125.65 10.92Z" fill="#231815" fill-opacity="1.000000" fill-rule="nonzero"/>
	<path id="path" d="M36.8 7.51L36.8 1.96C36.8 1.14 36.13 0.47 35.31 0.47L1.96 0.47C1.14 0.47 0.47 1.14 0.47 1.96L0.47 7.51C0.47 8.33 1.14 9 1.96 9L8.87 9C9.69 9 10.36 9.66 10.36 10.48L10.36 14.31C10.36 15.13 11.02 15.79 11.84 15.79L19.52 15.79C20.35 15.79 21.01 16.46 21.01 17.28L21.01 22.09C21.01 22.91 20.35 23.57 19.52 23.57L11.84 23.57C11.02 23.57 10.35 24.24 10.35 25.06L10.35 31.01C10.35 31.83 11.02 32.5 11.84 32.5L19.98 32.5C20.8 32.5 21.47 31.83 21.47 31.01L21.47 25.61C21.47 24.79 22.14 24.12 22.96 24.12L25.43 24.12C26.25 24.12 26.91 23.45 26.91 22.63L26.91 16.68C26.91 15.86 26.25 15.2 25.43 15.2L22.96 15.2C22.14 15.2 21.47 14.53 21.47 13.71L21.47 10.48C21.47 9.66 22.14 9 22.96 9L35.31 9C36.13 9 36.8 8.33 36.8 7.51Z" fill="#FFFFFF" fill-opacity="1.000000" fill-rule="nonzero"/>
	<path id="path" d="M19.98 32.97L11.84 32.97C10.76 32.97 9.88 32.09 9.88 31.01L9.88 25.06C9.88 23.97 10.76 23.09 11.84 23.09L19.52 23.09C20.08 23.09 20.53 22.64 20.53 22.08L20.53 17.27C20.53 16.72 20.08 16.26 19.52 16.26L11.84 16.26C10.76 16.26 9.88 15.38 9.88 14.3L9.88 10.48C9.88 9.93 9.42 9.47 8.87 9.47L1.96 9.47C0.88 9.47 0 8.59 0 7.51L0 1.96C0 0.87 0.88 0 1.96 0L35.31 0C36.39 0 37.27 0.87 37.27 1.96L37.27 7.51C37.27 8.59 36.39 9.48 35.31 9.48L22.96 9.48C22.4 9.48 21.95 9.93 21.95 10.48L21.95 13.71C21.95 14.27 22.4 14.72 22.96 14.72L25.43 14.72C26.51 14.72 27.39 15.6 27.39 16.68L27.39 22.63C27.39 23.72 26.51 24.6 25.43 24.6L22.96 24.6C22.4 24.6 21.95 25.05 21.95 25.61L21.95 31.01C21.95 32.09 21.07 32.97 19.98 32.97ZM11.84 24.05C11.28 24.05 10.83 24.5 10.83 25.06L10.83 31.01C10.83 31.56 11.28 32.02 11.84 32.02L19.98 32.02C20.54 32.02 20.99 31.56 20.99 31.01L20.99 25.6C20.99 24.52 21.87 23.64 22.96 23.64L25.43 23.64C25.99 23.64 26.44 23.19 26.44 22.63L26.44 16.68C26.44 16.12 25.99 15.67 25.43 15.67L22.96 15.67C21.88 15.67 20.99 14.79 20.99 13.71L20.99 10.48C20.99 9.4 21.87 8.52 22.96 8.52L35.31 8.52C35.87 8.52 36.32 8.07 36.32 7.51L36.32 1.96C36.32 1.4 35.87 0.95 35.31 0.95L1.96 0.95C1.4 0.95 0.95 1.4 0.95 1.96L0.95 7.51C0.95 8.07 1.4 8.52 1.96 8.52L8.87 8.52C9.95 8.52 10.83 9.4 10.83 10.48L10.83 14.31C10.83 14.86 11.29 15.31 11.84 15.31L19.52 15.31C20.61 15.31 21.49 16.2 21.49 17.28L21.49 22.09C21.49 23.17 20.61 24.05 19.52 24.05L11.84 24.05Z" fill="#3FA9F5" fill-opacity="1.000000" fill-rule="nonzero"/>
	<path id="path" d="M50.79 26.4L49.45 22.93L49.84 22.93L50.99 25.93L51.01 25.93L52.15 22.93L52.55 22.93L51.19 26.4L50.79 26.4Z" fill="#231815" fill-opacity="1.000000" fill-rule="nonzero"/>
	<path id="path" d="M53.71 26.25C53.51 26.08 53.42 25.85 53.42 25.57C53.42 24.84 54.01 24.48 55.2 24.48L55.76 24.48L55.76 24.09C55.76 23.8 55.67 23.58 55.51 23.42C55.34 23.26 55.11 23.18 54.82 23.18C54.52 23.18 54.22 23.3 53.91 23.55L53.69 23.29C53.85 23.15 54.03 23.04 54.23 22.96C54.42 22.88 54.63 22.84 54.85 22.84C55.25 22.84 55.56 22.95 55.78 23.16C56.01 23.36 56.12 23.65 56.12 24.02L56.12 26.4L55.76 26.4L55.76 25.81L55.73 25.81C55.61 26.03 55.44 26.2 55.23 26.32C55.01 26.44 54.77 26.5 54.51 26.5C54.17 26.5 53.9 26.41 53.71 26.25ZM55.14 26.03C55.33 25.94 55.47 25.82 55.59 25.65C55.7 25.48 55.75 25.29 55.75 25.08L55.75 24.82L55.27 24.82C54.28 24.82 53.79 25.06 53.79 25.55C53.79 25.74 53.86 25.89 54 26C54.14 26.11 54.33 26.16 54.57 26.16C54.77 26.16 54.96 26.12 55.14 26.03Z" fill="#231815" fill-opacity="1.000000" fill-rule="nonzero"/>
	<path id="path" d="M58.19 26.27C57.95 26.12 57.76 25.9 57.63 25.63C57.5 25.35 57.44 25.03 57.44 24.67C57.44 24.31 57.5 24 57.63 23.72C57.76 23.45 57.95 23.24 58.19 23.09C58.43 22.94 58.71 22.86 59.03 22.86C59.29 22.86 59.53 22.93 59.76 23.06C59.99 23.19 60.16 23.37 60.29 23.59L60.01 23.79C59.9 23.61 59.76 23.47 59.58 23.36C59.4 23.26 59.21 23.21 59.01 23.21C58.77 23.21 58.56 23.27 58.38 23.39C58.2 23.52 58.06 23.69 57.96 23.91C57.86 24.13 57.81 24.39 57.81 24.67C57.81 24.96 57.86 25.22 57.96 25.45C58.06 25.67 58.19 25.85 58.38 25.97C58.56 26.1 58.77 26.16 59 26.16C59.21 26.16 59.4 26.11 59.58 26.01C59.76 25.9 59.9 25.76 60.01 25.58L60.29 25.78C60.17 26.01 59.99 26.18 59.76 26.31C59.53 26.44 59.29 26.51 59.03 26.51C58.71 26.5 58.43 26.43 58.19 26.27Z" fill="#231815" fill-opacity="1.000000" fill-rule="nonzero"/>
	<path id="path" d="M64.4 22.93L64.4 26.4L64.03 26.4L64.03 25.79L64.01 25.79C63.9 26.01 63.74 26.18 63.52 26.31C63.31 26.43 63.07 26.5 62.82 26.5C62.43 26.5 62.12 26.37 61.9 26.13C61.68 25.89 61.57 25.54 61.57 25.1L61.57 22.93L61.94 22.93L61.94 25.04C61.94 25.39 62.03 25.66 62.2 25.86C62.38 26.06 62.61 26.16 62.91 26.16C63.13 26.16 63.32 26.11 63.49 26C63.67 25.9 63.8 25.76 63.89 25.58C63.99 25.41 64.03 25.21 64.03 25L64.03 22.93L64.4 22.93Z" fill="#231815" fill-opacity="1.000000" fill-rule="nonzero"/>
	<path id="path" d="M68.71 22.93L68.71 26.4L68.34 26.4L68.34 25.79L68.31 25.79C68.2 26.01 68.04 26.18 67.83 26.31C67.61 26.43 67.38 26.5 67.13 26.5C66.73 26.5 66.43 26.37 66.21 26.13C65.99 25.89 65.88 25.54 65.88 25.1L65.88 22.93L66.25 22.93L66.25 25.04C66.25 25.39 66.34 25.66 66.51 25.86C66.68 26.06 66.92 26.16 67.21 26.16C67.43 26.16 67.63 26.11 67.8 26C67.97 25.9 68.11 25.76 68.2 25.58C68.29 25.41 68.34 25.21 68.34 25L68.34 22.93L68.71 22.93Z" fill="#231815" fill-opacity="1.000000" fill-rule="nonzero"/>
	<path id="path" d="M70.22 26.4L70.22 22.93L70.59 22.93L70.59 23.54L70.61 23.54C70.72 23.33 70.87 23.16 71.06 23.03C71.25 22.91 71.45 22.84 71.66 22.84C71.91 22.84 72.12 22.92 72.3 23.06C72.47 23.21 72.61 23.41 72.7 23.68L72.72 23.68C72.82 23.42 72.98 23.22 73.19 23.07C73.4 22.92 73.64 22.84 73.91 22.84C74.27 22.84 74.56 22.97 74.77 23.22C74.98 23.47 75.08 23.82 75.08 24.25L75.08 26.4L74.71 26.4L74.71 24.31C74.71 23.97 74.63 23.69 74.47 23.49C74.31 23.28 74.1 23.18 73.84 23.18C73.64 23.18 73.47 23.22 73.32 23.32C73.17 23.42 73.05 23.56 72.96 23.73C72.88 23.91 72.84 24.12 72.84 24.35L72.84 26.4L72.47 26.4L72.47 24.31C72.47 23.97 72.38 23.7 72.22 23.49C72.06 23.28 71.85 23.18 71.59 23.18C71.41 23.18 71.25 23.23 71.09 23.33C70.93 23.43 70.81 23.57 70.72 23.75C70.63 23.93 70.58 24.13 70.58 24.35L70.58 26.4L70.22 26.4Z" fill="#231815" fill-opacity="1.000000" fill-rule="nonzero"/>
	<path id="path" d="M79.4 26.4L79.4 22.93L79.76 22.93L79.76 23.57L79.79 23.57C79.9 23.35 80.06 23.17 80.28 23.04C80.49 22.91 80.72 22.84 80.98 22.84C81.37 22.84 81.67 22.97 81.89 23.22C82.11 23.47 82.23 23.81 82.23 24.25L82.23 26.4L81.86 26.4L81.86 24.31C81.86 23.97 81.77 23.69 81.6 23.49C81.42 23.28 81.19 23.18 80.9 23.18C80.67 23.18 80.48 23.23 80.31 23.34C80.13 23.44 80 23.58 79.91 23.76C79.81 23.94 79.77 24.14 79.77 24.35L79.77 26.4L79.4 26.4Z" fill="#231815" fill-opacity="1.000000" fill-rule="nonzero"/>
	<path id="path" d="M86.53 24.78L83.91 24.78C83.93 25.2 84.05 25.53 84.28 25.78C84.5 26.02 84.79 26.15 85.15 26.15C85.36 26.15 85.56 26.1 85.75 25.99C85.94 25.89 86.08 25.75 86.19 25.57L86.48 25.76C86.35 25.98 86.17 26.16 85.93 26.29C85.7 26.42 85.44 26.48 85.15 26.48C84.83 26.48 84.54 26.41 84.3 26.26C84.06 26.11 83.87 25.9 83.74 25.63C83.61 25.35 83.54 25.04 83.54 24.68C83.54 24.31 83.6 23.99 83.73 23.71C83.86 23.44 84.04 23.22 84.27 23.07C84.51 22.92 84.78 22.84 85.09 22.84C85.39 22.84 85.65 22.91 85.87 23.04C86.09 23.18 86.26 23.37 86.38 23.61C86.5 23.85 86.57 24.13 86.57 24.45C86.57 24.55 86.56 24.66 86.53 24.78ZM86.19 24.45C86.19 24.07 86.09 23.76 85.89 23.53C85.68 23.3 85.42 23.18 85.09 23.18C84.77 23.18 84.51 23.29 84.3 23.52C84.08 23.75 83.96 24.06 83.92 24.45L86.19 24.45Z" fill="#231815" fill-opacity="1.000000" fill-rule="nonzero"/>
	<path id="path" d="M89.5 23.28L88.47 23.28L88.47 25.44C88.47 25.67 88.52 25.84 88.63 25.96C88.73 26.09 88.88 26.15 89.06 26.15C89.16 26.15 89.29 26.12 89.42 26.07L89.42 26.41C89.29 26.46 89.14 26.49 88.99 26.49C88.71 26.49 88.49 26.4 88.33 26.23C88.18 26.05 88.1 25.8 88.1 25.48L88.1 23.28L87.55 23.28L87.55 22.94L88.1 22.94L88.1 21.91L88.47 21.91L88.47 22.94L89.5 22.94L89.5 23.28Z" fill="#231815" fill-opacity="1.000000" fill-rule="nonzero"/>
	<path id="path" d="M91.31 26.4L90.18 22.93L90.58 22.93L91.49 25.89L91.52 25.89L92.44 22.93L92.85 22.93L93.77 25.89L93.79 25.89L94.7 22.93L95.1 22.93L93.98 26.4L93.58 26.4L92.65 23.44L92.63 23.44L91.71 26.4L91.31 26.4Z" fill="#231815" fill-opacity="1.000000" fill-rule="nonzero"/>
	<path id="path" d="M96.69 26.27C96.46 26.12 96.27 25.9 96.14 25.63C96.01 25.35 95.95 25.03 95.95 24.67C95.95 24.31 96.01 23.99 96.14 23.72C96.27 23.44 96.46 23.22 96.69 23.07C96.92 22.92 97.19 22.85 97.49 22.85C97.8 22.85 98.07 22.92 98.31 23.07C98.54 23.23 98.72 23.44 98.85 23.72C98.98 23.99 99.05 24.31 99.05 24.67C99.05 25.03 98.98 25.35 98.85 25.63C98.72 25.9 98.54 26.12 98.31 26.27C98.07 26.42 97.8 26.5 97.49 26.5C97.19 26.5 96.92 26.42 96.69 26.27ZM98.11 25.97C98.29 25.85 98.43 25.67 98.53 25.45C98.63 25.23 98.68 24.96 98.68 24.67C98.68 24.38 98.63 24.12 98.53 23.89C98.43 23.67 98.29 23.49 98.11 23.37C97.94 23.25 97.73 23.19 97.5 23.19C97.26 23.19 97.06 23.25 96.88 23.37C96.71 23.5 96.57 23.67 96.47 23.89C96.37 24.12 96.32 24.38 96.32 24.67C96.32 24.96 96.37 25.23 96.47 25.45C96.57 25.67 96.71 25.85 96.88 25.97C97.06 26.09 97.26 26.15 97.5 26.15C97.73 26.15 97.93 26.09 98.11 25.97Z" fill="#231815" fill-opacity="1.000000" fill-rule="nonzero"/>
	<path id="path" d="M100.4 26.4L100.4 22.93L100.76 22.93L100.76 23.71L100.79 23.71C100.93 23.46 101.12 23.25 101.36 23.09C101.6 22.93 101.87 22.84 102.19 22.84L102.24 22.84L102.24 23.24L102.16 23.24C101.89 23.24 101.64 23.3 101.43 23.42C101.22 23.53 101.06 23.68 100.94 23.86C100.82 24.04 100.76 24.22 100.76 24.4L100.76 26.4L100.4 26.4Z" fill="#231815" fill-opacity="1.000000" fill-rule="nonzero"/>
	<path id="path" d="M106.02 26.4L105.56 26.4L104.05 24.66L103.7 24.99L103.7 26.4L103.34 26.4L103.34 21.42L103.7 21.42L103.7 24.51L105.41 22.93L105.93 22.93L104.32 24.42L106.02 26.4Z" fill="#231815" fill-opacity="1.000000" fill-rule="nonzero"/>
	<path id="path" d="M109.94 26.4L109.94 22.93L110.31 22.93L110.31 23.57L110.33 23.57C110.44 23.35 110.6 23.17 110.82 23.04C111.03 22.91 111.27 22.84 111.52 22.84C111.91 22.84 112.21 22.97 112.44 23.22C112.66 23.47 112.77 23.81 112.77 24.25L112.77 26.4L112.41 26.4L112.41 24.31C112.41 23.97 112.32 23.69 112.14 23.49C111.96 23.28 111.73 23.18 111.44 23.18C111.22 23.18 111.02 23.23 110.85 23.34C110.68 23.44 110.54 23.58 110.45 23.76C110.35 23.94 110.31 24.14 110.31 24.35L110.31 26.4L109.94 26.4Z" fill="#231815" fill-opacity="1.000000" fill-rule="nonzero"/>
	<path id="path" d="M114.82 26.27C114.59 26.12 114.41 25.9 114.28 25.63C114.15 25.35 114.08 25.03 114.08 24.67C114.08 24.31 114.15 23.99 114.28 23.72C114.41 23.44 114.59 23.22 114.82 23.07C115.06 22.92 115.33 22.85 115.63 22.85C115.94 22.85 116.21 22.92 116.44 23.07C116.67 23.23 116.85 23.44 116.98 23.72C117.11 23.99 117.18 24.31 117.18 24.67C117.18 25.03 117.11 25.35 116.98 25.63C116.85 25.9 116.67 26.12 116.44 26.27C116.21 26.42 115.94 26.5 115.63 26.5C115.33 26.5 115.06 26.42 114.82 26.27ZM116.25 25.97C116.42 25.85 116.56 25.67 116.66 25.45C116.76 25.23 116.81 24.96 116.81 24.67C116.81 24.38 116.76 24.12 116.66 23.89C116.56 23.67 116.42 23.49 116.25 23.37C116.07 23.25 115.86 23.19 115.63 23.19C115.4 23.19 115.19 23.25 115.01 23.37C114.84 23.5 114.7 23.67 114.6 23.89C114.5 24.12 114.45 24.38 114.45 24.67C114.45 24.96 114.5 25.23 114.6 25.45C114.7 25.67 114.84 25.85 115.01 25.97C115.19 26.09 115.39 26.15 115.63 26.15C115.86 26.15 116.07 26.09 116.25 25.97Z" fill="#231815" fill-opacity="1.000000" fill-rule="nonzero"/>
	<path id="path" d="M121.45 26.4L121.09 26.4L121.09 25.73L121.06 25.73C120.95 25.97 120.79 26.16 120.58 26.3C120.37 26.43 120.13 26.5 119.86 26.5C119.58 26.5 119.32 26.42 119.09 26.26C118.87 26.1 118.69 25.88 118.56 25.6C118.43 25.32 118.37 25 118.37 24.65C118.37 24.3 118.43 23.99 118.56 23.72C118.69 23.44 118.87 23.23 119.09 23.07C119.32 22.92 119.58 22.84 119.86 22.84C120.12 22.84 120.35 22.91 120.56 23.05C120.77 23.19 120.94 23.38 121.07 23.62L121.09 23.62L121.09 21.42L121.45 21.42L121.45 26.4ZM120.95 23.92C120.85 23.69 120.71 23.52 120.53 23.39C120.35 23.27 120.15 23.21 119.93 23.21C119.7 23.21 119.49 23.27 119.31 23.39C119.13 23.51 118.99 23.69 118.89 23.91C118.79 24.13 118.74 24.38 118.74 24.67C118.74 24.95 118.79 25.21 118.89 25.43C119 25.65 119.14 25.82 119.32 25.95C119.51 26.07 119.71 26.13 119.94 26.13C120.16 26.13 120.36 26.07 120.54 25.95C120.72 25.82 120.85 25.65 120.95 25.43C121.05 25.21 121.09 24.96 121.09 24.67C121.1 24.39 121.05 24.14 120.95 23.92Z" fill="#231815" fill-opacity="1.000000" fill-rule="nonzero"/>
	<path id="path" d="M125.8 24.78L123.18 24.78C123.2 25.2 123.32 25.53 123.54 25.78C123.76 26.02 124.05 26.15 124.41 26.15C124.62 26.15 124.82 26.1 125.01 25.99C125.2 25.89 125.35 25.75 125.46 25.57L125.74 25.76C125.61 25.98 125.43 26.16 125.2 26.29C124.96 26.42 124.7 26.48 124.41 26.48C124.09 26.48 123.81 26.41 123.57 26.26C123.32 26.11 123.14 25.9 123.01 25.63C122.87 25.35 122.81 25.04 122.81 24.68C122.81 24.31 122.87 23.99 123 23.71C123.13 23.44 123.31 23.22 123.54 23.07C123.77 22.92 124.05 22.84 124.36 22.84C124.65 22.84 124.91 22.91 125.13 23.04C125.36 23.18 125.53 23.37 125.65 23.61C125.77 23.85 125.83 24.13 125.83 24.45C125.83 24.55 125.82 24.66 125.8 24.78ZM125.45 24.45C125.45 24.07 125.35 23.76 125.15 23.53C124.95 23.3 124.68 23.18 124.36 23.18C124.04 23.18 123.77 23.29 123.56 23.52C123.35 23.75 123.23 24.06 123.19 24.45L125.45 24.45Z" fill="#231815" fill-opacity="1.000000" fill-rule="nonzero"/>
	<path id="path" d="M127.44 26.29C127.2 26.16 127.02 25.97 126.89 25.74L127.21 25.56C127.32 25.75 127.46 25.89 127.65 26C127.84 26.11 128.05 26.16 128.28 26.16C128.55 26.16 128.76 26.11 128.92 26C129.08 25.88 129.16 25.73 129.16 25.54C129.16 25.37 129.08 25.23 128.92 25.12C128.77 25.01 128.53 24.92 128.21 24.85C127.8 24.76 127.5 24.63 127.31 24.48C127.11 24.32 127.01 24.11 127.01 23.86C127.01 23.55 127.12 23.3 127.34 23.12C127.57 22.94 127.87 22.85 128.25 22.85C128.53 22.85 128.78 22.91 129 23.04C129.23 23.17 129.41 23.34 129.55 23.57L129.24 23.78C129.13 23.59 128.99 23.44 128.82 23.34C128.64 23.23 128.45 23.18 128.24 23.18C127.98 23.18 127.77 23.24 127.62 23.36C127.46 23.47 127.39 23.63 127.39 23.82C127.39 23.99 127.47 24.13 127.63 24.24C127.8 24.36 128.04 24.45 128.37 24.52C128.74 24.6 129.03 24.72 129.23 24.89C129.44 25.05 129.53 25.25 129.53 25.49C129.53 25.81 129.42 26.05 129.19 26.23C128.96 26.41 128.65 26.5 128.27 26.5C127.95 26.5 127.67 26.43 127.44 26.29Z" fill="#231815" fill-opacity="1.000000" fill-rule="nonzero"/>
</svg>
