<svg width="148.000000" height="129.000000" viewBox="0 0 148 129" fill="none" xmlns="http://www.w3.org/2000/svg" xmlns:xlink="http://www.w3.org/1999/xlink">
	<desc>
			Created with Pixso.
	</desc>
	<defs>
		<linearGradient x1="0.000238" y1="63.497986" x2="147.998688" y2="63.497986" id="paint_linear_66_681_0" gradientUnits="userSpaceOnUse">
			<stop stop-color="#0BB8E8"/>
			<stop offset="1.000000" stop-color="#00DCF8"/>
		</linearGradient>
	</defs>
	<path id="path" d="M148 27.36L148 4.98C148 1.67 145.28 -1 141.94 -1L6.05 -1C2.71 -1 0 1.67 0 4.98L0 27.36C0 30.66 2.71 33.34 6.05 33.34L34.2 33.34C37.55 33.34 40.26 36.02 40.26 39.33L40.26 54.72C40.26 58.02 42.97 60.7 46.32 60.7L77.61 60.7C80.96 60.7 83.67 63.38 83.67 66.69L83.67 86.07C83.67 89.37 80.96 92.05 77.61 92.05L46.32 92.05C42.97 92.05 40.26 94.73 40.26 98.04L40.26 122.01C40.26 125.32 42.97 128 46.32 128L79.49 128C82.84 128 85.55 125.32 85.55 122.01L85.55 100.23C85.55 96.92 88.26 94.25 91.61 94.25L101.67 94.25C105.02 94.25 107.73 91.57 107.73 88.26L107.73 64.29C107.73 60.98 105.02 58.3 101.67 58.3L91.61 58.3C88.26 58.3 85.55 55.62 85.55 52.32L85.55 39.33C85.55 36.02 88.26 33.34 91.61 33.34L141.94 33.34C145.28 33.34 148 30.66 148 27.36Z" fill="url(#paint_linear_66_681_0)" fill-opacity="1.000000" fill-rule="nonzero"/>
</svg>
