<svg width="20.000000" height="19.000000" viewBox="0 0 20 19" fill="none" xmlns="http://www.w3.org/2000/svg" xmlns:xlink="http://www.w3.org/1999/xlink">
	<desc>
			Created with Pixso.
	</desc>
	<defs/>
	<path id="矢量 87" d="M2.94 13L2.94 15C2.94 15.5 3.12 15.99 3.46 16.36C3.8 16.73 4.26 16.95 4.75 16.99L4.9 17L7.84 17L7.84 19L4.9 19C3.86 19 2.86 18.57 2.12 17.82C1.39 17.07 0.98 16.06 0.98 15L0.98 13L2.94 13ZM15.68 8L20 19L17.88 19L16.7 16L12.7 16L11.52 19L9.41 19L13.72 8L15.68 8ZM14.7 10.88L13.48 14L15.92 14L14.7 10.88ZM5.88 0L5.88 2L9.8 2L9.8 9L5.88 9L5.88 12L3.92 12L3.92 9L0 9L0 2L3.92 2L3.92 0L5.88 0ZM14.7 1C15.74 1 16.74 1.42 17.47 2.17C18.21 2.92 18.62 3.93 18.62 5L18.62 7L16.66 7L16.66 5C16.66 4.46 16.46 3.96 16.09 3.58C15.72 3.21 15.22 3 14.7 3L11.76 3L11.76 1L14.7 1ZM3.92 4L1.96 4L1.96 7L3.92 7L3.92 4ZM7.84 4L5.88 4L5.88 7L7.84 7L7.84 4Z" fill="#11183C" fill-opacity="1.000000" fill-rule="evenodd"/>
</svg>
