<svg width="337.000000" height="29.000000" viewBox="0 0 337 29" fill="none" xmlns="http://www.w3.org/2000/svg" xmlns:xlink="http://www.w3.org/1999/xlink">
	<desc>
			Created with Pixso.
	</desc>
	<defs/>
	<path id="You have successfully created a new password, click continue to enter the application" d="M109.92 12.34C108.24 10.63 107.13 8.4 107.13 5.68C107.13 2.95 108.24 0.72 109.92 -0.99L110.76 -0.55C109.15 1.11 108.16 3.18 108.16 5.68C108.16 8.17 109.15 10.24 110.76 11.9L109.92 12.34ZM93.36 6.92L93.36 5.06L92.08 5.06C91.55 5.06 91.14 5.14 91.02 5.26C90.96 5.06 90.82 4.61 90.7 4.37C90.92 4.3 91.13 3.94 91.36 3.43C91.47 3.2 91.73 2.59 91.99 1.84L90.54 1.84L90.54 0.94L92.28 0.94C92.43 0.4 92.59 -0.18 92.7 -0.75L93.69 -0.54C93.55 -0.05 93.4 0.45 93.23 0.94L96.7 0.94L96.7 1.84L92.92 1.84C92.6 2.68 92.25 3.49 91.89 4.18L93.36 4.18L93.36 2.51L94.3 2.51L94.3 4.18L96.35 4.18L96.34 5.06L94.3 5.06L94.3 6.92L96.65 6.92L96.65 7.83L94.3 7.83L94.3 10.21L93.36 10.21L93.36 7.83L90.67 7.83L90.67 6.92L93.36 6.92ZM287.8 6.92L287.8 5.06L286.53 5.06C286 5.06 285.59 5.14 285.46 5.26C285.41 5.06 285.27 4.61 285.14 4.37C285.37 4.3 285.58 3.94 285.8 3.43C285.91 3.2 286.18 2.59 286.43 1.84L284.99 1.84L284.99 0.94L286.73 0.94C286.88 0.4 287.03 -0.18 287.15 -0.75L288.14 -0.54C288 -0.05 287.85 0.45 287.68 0.94L291.15 0.94L291.15 1.84L287.37 1.84C287.05 2.68 286.7 3.49 286.33 4.18L287.8 4.18L287.8 2.51L288.74 2.51L288.74 4.18L290.8 4.18L290.79 5.06L288.74 5.06L288.74 6.92L291.09 6.92L291.09 7.83L288.74 7.83L288.74 10.21L287.8 10.21L287.8 7.83L285.12 7.83L285.12 6.92L287.8 6.92ZM7.87 -0.72C8.28 -0.13 8.7 0.61 8.89 1.1L7.96 1.5C7.77 1.01 7.34 0.21 6.99 -0.36L7.87 -0.72ZM13.75 4.96C15.28 3.6 16.69 1.46 17.55 -0.71L18.55 -0.4C18.13 0.62 17.64 1.62 17.07 2.57L17.07 12.07L16.05 12.07L16.05 4.11C15.53 4.81 14.97 5.45 14.4 6C14.3 5.75 13.98 5.21 13.75 4.96ZM37.34 -0.71L37.34 0.87L40.59 0.87L40.59 1.87L37.34 1.87L37.34 3.45L36.27 3.45L36.27 1.87L32.53 1.87L32.53 3.45L31.48 3.45L31.48 1.87L28.23 1.87L28.23 0.87L31.48 0.87L31.48 -0.71L32.53 -0.71L32.53 0.87L36.27 0.87L36.27 -0.71L37.34 -0.71ZM48.81 3.52L53.07 3.52L53.07 7.97L43.75 7.97L43.75 3.52L47.77 3.52L47.77 -0.71L48.81 -0.71L48.81 0.78L54.1 0.78L54.1 1.76L48.81 1.76L48.81 3.52ZM333.53 -0.71L333.53 0.87L336.77 0.87L336.77 1.87L333.53 1.87L333.53 3.45L332.45 3.45L332.45 1.87L328.71 1.87L328.71 3.45L327.66 3.45L327.66 1.87L324.41 1.87L324.41 0.87L327.66 0.87L327.66 -0.71L328.71 -0.71L328.71 0.87L332.45 0.87L332.45 -0.71L333.53 -0.71ZM88.13 0.89L88.13 1.8L85.47 1.8C85.15 2.53 84.77 3.18 84.37 3.7C84.28 3.48 84 3 83.85 2.78C84.52 1.92 85.05 0.62 85.36 -0.69L86.26 -0.46C86.16 -0.01 86.01 0.45 85.84 0.89L88.13 0.89ZM282.58 0.89L282.58 1.8L279.92 1.8C279.6 2.53 279.22 3.18 278.82 3.7C278.73 3.48 278.45 3 278.3 2.78C278.97 1.92 279.5 0.62 279.81 -0.69L280.71 -0.46C280.61 -0.01 280.45 0.45 280.29 0.89L282.58 0.89ZM261.18 3.65C261.43 3.15 261.69 2.59 261.9 2.1L260.01 2.1L260.01 10.79C260.01 11.37 259.89 11.65 259.51 11.82C259.13 11.99 258.53 12.02 257.66 12.02C257.6 11.74 257.44 11.3 257.3 11.02C257.96 11.04 258.56 11.04 258.74 11.04C258.92 11.02 258.99 10.98 258.99 10.79L258.99 2.1L257.59 2.1C257.23 3.17 256.76 4.14 256.26 4.88C256.08 4.71 255.63 4.46 255.38 4.33L255.43 4.25L253.78 4.25L253.78 4.78C254.19 5.2 255.33 6.46 255.57 6.78L254.99 7.61C254.76 7.21 254.23 6.43 253.78 5.81L253.78 12.09L252.82 12.09L252.82 5.9C252.27 7.3 251.57 8.66 250.89 9.53C250.77 9.27 250.52 8.87 250.37 8.64C251.22 7.65 252.16 5.86 252.69 4.25L250.66 4.25L250.66 3.27L252.82 3.27L252.82 1C252.23 1.12 251.64 1.22 251.08 1.31C251.04 1.08 250.9 0.75 250.79 0.51C252.24 0.26 253.98 -0.15 254.96 -0.6L255.57 0.21C255.06 0.43 254.44 0.62 253.78 0.78L253.78 3.27L255.56 3.27L255.56 4.08C256.39 2.87 256.98 1.1 257.3 -0.68L258.29 -0.5C258.18 0.06 258.04 0.61 257.9 1.12L262.39 1.12L262.55 1.08L263.21 1.28C262.88 2.13 262.46 3.07 262.09 3.87L261.18 3.65ZM-0.09 4.89C1.17 3.53 2.32 1.45 3.03 -0.67L3.95 -0.39C3.63 0.55 3.22 1.49 2.78 2.37L2.78 12.12L1.81 12.12L1.81 4.05C1.39 4.72 0.93 5.32 0.48 5.86C0.38 5.63 0.09 5.13 -0.09 4.89ZM303.13 7.15L303.13 10.59L308.8 10.59L308.8 11.61L296.43 11.61L296.43 10.59L302.03 10.59L302.03 7.15L297.72 7.15L297.72 6.15L302.03 6.15L302.03 3.09L297.07 3.09L297.07 2.06L303.22 2.06C302.67 1.42 301.68 0.54 300.84 -0.08L301.68 -0.67C302.57 -0.02 303.69 0.93 304.24 1.59L303.58 2.06L308.1 2.06L308.1 3.09L303.13 3.09L303.13 6.15L307.53 6.15L307.53 7.15L303.13 7.15ZM82.68 5.69L82.68 6.68L79.13 6.68C79.79 8.78 81.04 10.42 82.91 11.18C82.68 11.4 82.35 11.82 82.19 12.1C80.28 11.18 79.02 9.43 78.29 7.1C77.87 9.04 76.8 10.79 74.18 12.1C74.04 11.85 73.72 11.48 73.48 11.3C75.98 10.09 76.98 8.45 77.36 6.68L74.61 6.68L74.61 5.69L77.49 5.69C77.55 5.18 77.57 4.68 77.57 4.16L77.57 2.62L75.03 2.62L75.03 1.64L77.57 1.64L77.57 -0.57L78.56 -0.57L78.56 1.64L81.69 1.64L81.69 5.69L82.68 5.69ZM72.83 7.55L74.37 6.91L74.6 7.82C73.14 8.5 71.56 9.2 70.36 9.75L69.95 8.71C70.47 8.52 71.13 8.25 71.85 7.96L71.85 3.62L70.19 3.62L70.19 2.62L71.85 2.62L71.85 -0.55L72.83 -0.55L72.83 2.62L74.36 2.62L74.36 3.62L72.83 3.62L72.83 7.55ZM26.79 5.23L26.79 6.23L22.84 6.23L22.84 10.53L26.58 10.53L26.58 11.54L18.21 11.54L18.21 10.53L21.8 10.53L21.8 6.23L17.67 6.23L17.67 5.23L21.8 5.23L21.8 1.53C20.68 1.73 19.52 1.9 18.46 2.02C18.41 1.77 18.25 1.38 18.13 1.14C20.72 0.8 23.75 0.24 25.46 -0.37L26.23 0.5C25.27 0.8 24.1 1.1 22.84 1.35L22.84 5.23L26.79 5.23ZM89.17 -0.16C89.62 0.59 90.1 1.6 90.32 2.26L89.42 2.61C89.21 1.94 88.75 0.89 88.33 0.13L89.17 -0.16ZM283.62 -0.16C284.07 0.59 284.54 1.6 284.76 2.26L283.87 2.61C283.66 1.94 283.2 0.89 282.78 0.13L283.62 -0.16ZM277.01 4.32L277.01 5.3L275.44 5.3C275.36 6.78 275.25 7.94 275.15 8.82L276.6 8.82L276.6 9.78L274.99 9.78C274.84 10.63 274.67 11.11 274.43 11.39C274.11 11.84 273.79 11.99 273.27 12.03C272.78 12.09 271.96 12.06 271.17 12C271.14 11.72 271.03 11.33 270.88 11.06C271.75 11.14 272.51 11.15 272.87 11.15C273.13 11.15 273.3 11.11 273.47 10.88C273.62 10.71 273.78 10.37 273.9 9.78L265.54 9.78C265.79 8.57 266.06 6.98 266.33 5.3L264.69 5.3L264.69 4.32L266.48 4.32C266.71 2.81 266.9 1.26 267.06 -0.04L275.68 -0.04L275.68 0.55C275.62 1.98 275.57 3.24 275.5 4.32L277.01 4.32ZM57.83 1.04L57.83 10.66L68.68 10.66L68.68 11.65L56.8 11.65L56.8 0.05L68.33 0.05L68.33 1.04L57.83 1.04ZM310.88 0.13L322.34 0.13L322.34 10.69C322.34 11.34 322.16 11.67 321.71 11.85C321.26 12.02 320.51 12.04 319.25 12.03C319.19 11.74 319 11.29 318.86 11C319.64 11.03 320.41 11.03 320.79 11.02C320.86 11.02 320.91 11.02 320.96 11.02C321.21 11.01 321.32 10.93 321.32 10.69L321.32 1.11L311.91 1.11L311.91 12.04L310.88 12.04L310.88 0.13ZM216.01 1.8Q216.26 2.02 216.71 2.02Q217.1 2.02 217.34 1.83Q217.38 1.8 217.42 1.77Q217.5 1.69 217.56 1.6Q217.68 1.39 217.68 1.11Q217.68 0.75 217.5 0.52Q217.47 0.48 217.42 0.44Q217.42 0.43 217.41 0.42Q217.16 0.2 216.71 0.2Q216.33 0.2 216.09 0.38Q216.04 0.42 216 0.45Q215.93 0.53 215.87 0.61Q215.75 0.82 215.75 1.11Q215.75 1.48 215.92 1.7Q215.96 1.75 216 1.78Q216 1.79 216.01 1.8ZM246.95 0.29L247.12 0.23L247.82 0.55C247.01 3.76 245.55 6.23 243.63 8.08C245.17 9.41 247.06 10.42 249.35 10.98C249.11 11.2 248.81 11.64 248.66 11.92C246.29 11.28 244.39 10.24 242.84 8.82C241.14 10.25 239.18 11.25 237.08 11.93C236.97 11.67 236.66 11.19 236.42 10.98C238.51 10.37 240.44 9.43 242.09 8.1C240.4 6.29 239.2 4 238.33 1.31L237.26 1.31L237.26 0.29L246.95 0.29ZM171.15 10.86Q171.78 11.14 172.53 11.14Q172.71 11.14 172.89 11.11Q173.2 11.07 173.51 10.97Q174 10.8 174.37 10.52Q174.7 10.27 174.91 9.99L174.91 11L176.35 11L176.35 0.64L174.91 0.64L174.91 4.55Q174.72 4.33 174.46 4.14Q174.05 3.84 173.54 3.67Q173.33 3.6 173.11 3.55Q172.81 3.49 172.49 3.49Q171.77 3.49 171.17 3.75Q170.93 3.85 170.71 3.99Q170.46 4.14 170.25 4.33Q169.78 4.75 169.47 5.35Q169.01 6.21 169.01 7.31Q169.01 8.4 169.46 9.25Q169.47 9.27 169.48 9.28Q169.79 9.86 170.24 10.27Q170.47 10.48 170.73 10.64Q170.93 10.77 171.15 10.86ZM199.97 0.64L199.97 11L201.41 11L201.41 6.54Q201.41 6.28 201.49 6.04Q201.52 5.95 201.56 5.86Q201.62 5.73 201.7 5.61Q201.81 5.45 201.96 5.31Q202 5.27 202.04 5.24Q202.27 5.05 202.57 4.94Q202.92 4.81 203.34 4.81Q203.86 4.78 204.21 4.97Q204.3 5.02 204.37 5.08Q204.6 5.26 204.73 5.57Q204.9 5.98 204.9 6.61L204.9 11L206.34 11L206.34 6.51Q206.34 5.49 206.06 4.82Q205.84 4.3 205.45 3.98Q205.34 3.89 205.22 3.82Q204.66 3.49 203.82 3.49Q203.68 3.49 203.54 3.51Q203.1 3.55 202.67 3.75Q202.16 3.99 201.77 4.36Q201.74 4.39 201.7 4.42Q201.53 4.6 201.41 4.78L201.41 0.64L199.97 0.64ZM274.45 4.32C274.52 3.31 274.56 2.19 274.62 0.92L268.01 0.92C267.87 1.99 267.7 3.17 267.53 4.32L274.45 4.32ZM192.93 10.77Q193.78 11.14 194.8 11.14Q194.86 11.14 194.91 11.13Q195.54 11.12 196.17 10.96Q196.85 10.79 197.4 10.48Q197.95 10.17 198.27 9.79L197.52 8.56Q197.4 8.68 197.26 8.79Q197.05 8.97 196.8 9.12Q196.72 9.17 196.64 9.21Q196.32 9.38 195.96 9.48Q195.75 9.54 195.53 9.57Q195.29 9.61 195.05 9.61Q194.3 9.61 193.67 9.36Q193.23 9.19 192.87 8.9Q192.73 8.79 192.6 8.66Q192.58 8.64 192.56 8.61Q192.15 8.17 191.91 7.55Q191.66 6.89 191.66 6.09Q191.66 5.34 191.92 4.7Q192.17 4.07 192.6 3.61L192.61 3.6Q192.79 3.41 193 3.26Q193.3 3.04 193.65 2.88Q193.75 2.84 193.85 2.81Q194.36 2.62 194.93 2.62Q195.05 2.62 195.18 2.64Q195.7 2.68 196.21 2.93Q196.85 3.24 197.45 3.85L198.46 2.81Q198.1 2.31 197.55 1.93Q197 1.54 196.32 1.33Q195.94 1.21 195.56 1.15Q195.25 1.11 194.93 1.11Q194.06 1.11 193.29 1.39Q193.17 1.44 193.05 1.49Q192.66 1.66 192.3 1.9Q191.88 2.18 191.52 2.55Q191.33 2.76 191.15 2.99Q190.76 3.51 190.5 4.14Q190.49 4.16 190.48 4.18Q190.13 5.07 190.13 6.09Q190.13 7.2 190.47 8.13Q190.77 8.95 191.3 9.58Q191.37 9.66 191.44 9.73Q191.74 10.05 192.1 10.31Q192.48 10.58 192.93 10.77ZM227.27 12.73L228.04 13.6Q229.5 12.69 230.37 11.39Q230.52 11.17 230.65 10.93Q230.9 10.49 231.08 10.01Q231.55 8.79 231.55 7.38Q231.55 5.89 231.03 4.61Q230.87 4.21 230.65 3.83Q230.54 3.62 230.41 3.42Q229.54 2.09 228.05 1.17L227.27 2.04Q228.63 2.98 229.37 4.28Q229.41 4.34 229.45 4.41Q229.76 5 229.95 5.62Q230.19 6.47 230.19 7.38Q230.19 8.29 229.95 9.12Q229.77 9.76 229.45 10.36Q229.42 10.4 229.4 10.44Q228.65 11.77 227.27 12.73ZM114.64 2.65L114.64 11L116.15 11L116.15 2.65L118.98 2.65L118.98 1.2L111.89 1.2L111.89 2.65L114.64 2.65ZM150.11 1.2L150.11 11L151.63 11L151.63 6.92Q151.63 6.77 151.62 6.54Q151.61 6.31 151.58 5.9Q151.55 5.49 151.5 4.82Q151.46 4.29 151.39 3.52L157.08 11L158.47 11L158.47 1.2L156.96 1.2L156.96 4.42Q156.96 5.44 156.99 6.35Q157.02 7.26 157.08 8.01Q157.11 8.44 157.16 8.81L151.47 1.2L150.11 1.2ZM242.89 7.37C244.5 5.83 245.76 3.84 246.52 1.31L239.39 1.31C240.16 3.69 241.31 5.75 242.89 7.37ZM272.11 3.93C271.54 3.35 270.36 2.59 269.38 2.09L270 1.46C270.95 1.92 272.15 2.65 272.74 3.21L272.11 3.93ZM3.77 2.47L3.77 1.59L12.63 1.59L12.63 2.47L3.77 2.47ZM63.89 5.77C65.13 6.92 66.27 8.04 67.01 8.94L66.18 9.68C65.48 8.81 64.41 7.68 63.19 6.53C62.01 7.75 60.72 8.84 59.42 9.68C59.24 9.48 58.85 9.08 58.6 8.91C59.95 8.1 61.28 7.03 62.46 5.83C61.33 4.78 60.13 3.73 59.04 2.83L59.77 2.22C60.83 3.07 62.02 4.09 63.14 5.1C64.1 4.05 64.94 2.89 65.61 1.71L66.58 2.1C65.8 3.41 64.89 4.64 63.89 5.77ZM141.36 5.04L141.36 11L142.81 11L142.81 5.04L144.51 5.04L144.51 3.65L142.81 3.65L142.81 1.77L141.36 1.77L141.36 3.65L139.84 3.65L139.84 5.04L141.36 5.04ZM315.3 5.95C315.85 6.74 316.33 7.5 316.67 8.1L315.99 8.77C315.72 8.26 315.34 7.65 314.92 6.99C314.36 8.31 313.68 9.41 312.83 10.31C312.68 10.17 312.25 9.87 312.02 9.73C312.99 8.8 313.73 7.55 314.26 6.07C313.65 5.18 312.96 4.28 312.33 3.51L312.97 2.93C313.52 3.56 314.08 4.29 314.61 5C314.88 4.08 315.08 3.11 315.24 2.08L316.19 2.18C315.97 3.53 315.68 4.81 315.3 5.95ZM319.26 5.98C319.88 6.92 320.41 7.84 320.75 8.59L320.02 9.19C319.74 8.59 319.35 7.84 318.87 7.06C318.31 8.39 317.62 9.51 316.74 10.42C316.56 10.27 316.15 9.97 315.91 9.85C316.95 8.91 317.69 7.62 318.25 6.08C317.65 5.2 316.98 4.29 316.35 3.51L317.02 2.99C317.55 3.6 318.08 4.3 318.59 5C318.86 4.09 319.04 3.13 319.19 2.1L320.13 2.2C319.92 3.57 319.64 4.84 319.26 5.98ZM80.72 2.62L78.56 2.62L78.56 4.16C78.56 4.68 78.55 5.18 78.5 5.69L80.72 5.69L80.72 2.62ZM86.65 7.26L86.65 9.95L87.87 9.15C87.94 9.39 88.07 9.75 88.18 9.93C86.09 11.39 85.75 11.65 85.56 11.9C85.45 11.7 85.18 11.33 85.01 11.18C85.27 10.98 85.69 10.51 85.69 9.85L85.69 7.26L84.12 7.26L84.12 6.35L85.69 6.35L85.69 4.37L84.61 4.37L84.61 3.48L87.88 3.48L87.88 4.37L86.65 4.37L86.65 6.35L88.19 6.35L88.19 7.26L86.65 7.26ZM179.81 10.68Q180.66 11.14 181.77 11.14Q182.29 11.14 182.82 10.99Q183.36 10.84 183.84 10.59Q184.33 10.34 184.66 10L183.94 8.98Q183.39 9.45 182.92 9.64Q182.45 9.82 181.91 9.82Q181.14 9.82 180.55 9.51Q180.22 9.34 179.98 9.09Q179.78 8.89 179.64 8.64Q179.4 8.21 179.34 7.66L184.96 7.66L184.97 7.05Q184.99 6.28 184.74 5.63Q184.53 5.07 184.16 4.64Q184.11 4.57 184.04 4.5Q183.89 4.34 183.71 4.2Q183.38 3.93 182.97 3.75Q182.85 3.7 182.73 3.66Q182.22 3.48 181.64 3.48Q180.83 3.48 180.14 3.76Q179.64 3.97 179.25 4.29Q179.09 4.43 178.95 4.58Q178.9 4.63 178.85 4.68Q178.42 5.17 178.17 5.82Q177.89 6.53 177.89 7.4Q177.89 8.37 178.29 9.15Q178.33 9.24 178.39 9.33Q178.59 9.67 178.85 9.95Q179.24 10.36 179.76 10.65Q179.78 10.67 179.81 10.68ZM179.39 6.51Q179.46 6.2 179.58 5.94Q179.74 5.6 180 5.36Q180.16 5.21 180.36 5.1Q180.88 4.81 181.64 4.81Q181.98 4.81 182.27 4.91Q182.4 4.95 182.52 5.02Q182.74 5.13 182.92 5.29Q183.07 5.43 183.19 5.59Q183.29 5.73 183.36 5.88Q183.48 6.13 183.5 6.42L183.5 6.51L179.39 6.51ZM281.1 7.26L281.1 9.95L282.32 9.15C282.39 9.39 282.51 9.75 282.62 9.93C280.54 11.39 280.2 11.65 280.01 11.9C279.89 11.7 279.63 11.33 279.46 11.18C279.71 10.98 280.13 10.51 280.13 9.85L280.13 7.26L278.56 7.26L278.56 6.35L280.13 6.35L280.13 4.37L279.05 4.37L279.05 3.48L282.33 3.48L282.33 4.37L281.1 4.37L281.1 6.35L282.64 6.35L282.64 7.26L281.1 7.26ZM119.64 3.65L119.64 11L121.09 11L121.09 6.93Q121.09 6.55 121.23 6.22Q121.24 6.2 121.25 6.19Q121.35 5.96 121.49 5.77Q121.57 5.67 121.66 5.58Q121.77 5.48 121.89 5.39Q122.06 5.26 122.26 5.18Q122.39 5.12 122.53 5.09Q122.75 5.03 122.98 5.03Q123.18 5.03 123.38 5.08Q123.58 5.13 123.75 5.2L124.13 3.63Q124 3.57 123.79 3.53Q123.57 3.49 123.33 3.49Q123.2 3.49 123.08 3.51Q122.7 3.55 122.33 3.75Q122.26 3.78 122.19 3.82Q121.79 4.06 121.47 4.43Q121.24 4.71 121.09 5.02L121.09 3.65L119.64 3.65ZM134.53 10.81Q135.27 11.14 136.2 11.14Q136.94 11.14 137.54 10.85Q138.03 10.63 138.36 10.25Q138.43 10.17 138.5 10.08Q138.66 9.86 138.74 9.62Q138.86 9.3 138.86 8.95Q138.86 8.52 138.74 8.17Q138.71 8.06 138.66 7.95Q138.54 7.73 138.35 7.55Q138.09 7.27 137.63 7.05Q137.18 6.84 136.48 6.65Q136 6.54 135.69 6.42Q135.39 6.29 135.23 6.18Q135.16 6.12 135.1 6.05Q135.05 5.98 135.01 5.91Q134.99 5.85 134.97 5.8Q134.93 5.69 134.92 5.56Q134.92 5.35 135 5.18Q135.03 5.13 135.07 5.08Q135.14 4.98 135.25 4.9Q135.41 4.79 135.65 4.74Q135.89 4.68 136.18 4.68Q136.45 4.68 136.77 4.79Q137.09 4.9 137.41 5.11Q137.5 5.17 137.59 5.24Q137.8 5.39 137.99 5.58L138.82 4.67Q138.52 4.3 138.09 4.04Q138.08 4.03 138.07 4.02Q137.64 3.77 137.14 3.63Q136.77 3.53 136.39 3.5Q136.25 3.49 136.11 3.49Q135.37 3.49 134.78 3.77Q134.27 4 133.93 4.38Q133.88 4.45 133.83 4.51Q133.69 4.7 133.61 4.91Q133.48 5.23 133.48 5.6Q133.48 5.98 133.58 6.3Q133.6 6.38 133.64 6.46Q133.73 6.68 133.89 6.88Q134.17 7.21 134.68 7.48Q135.2 7.75 136.01 7.96Q136.49 8.08 136.79 8.2Q137.09 8.32 137.23 8.42Q137.35 8.52 137.42 8.65Q137.5 8.81 137.5 9.01Q137.5 9.2 137.43 9.36Q137.42 9.38 137.42 9.39Q137.39 9.43 137.37 9.47Q137.29 9.6 137.17 9.69Q137.01 9.82 136.79 9.88Q136.57 9.95 136.32 9.95Q135.69 9.95 135.19 9.73Q134.7 9.51 134.28 9.02L133.3 9.86Q133.52 10.15 133.8 10.37Q134.13 10.64 134.53 10.81ZM162.51 10.79Q163.25 11.14 164.16 11.14Q165 11.14 165.7 10.82Q165.89 10.74 166.06 10.64Q166.47 10.4 166.79 10.08Q167.14 9.73 167.4 9.28Q167.45 9.18 167.5 9.09Q167.89 8.3 167.89 7.31Q167.89 6.32 167.49 5.52Q167.45 5.43 167.4 5.35Q167.14 4.89 166.78 4.53Q166.46 4.22 166.06 3.99Q165.89 3.89 165.7 3.8Q165 3.49 164.16 3.49Q163.25 3.49 162.51 3.84Q162.37 3.91 162.23 3.99Q161.85 4.21 161.54 4.51Q161.16 4.87 160.89 5.35Q160.85 5.42 160.81 5.5Q160.4 6.31 160.4 7.31Q160.4 8.31 160.8 9.1Q160.84 9.19 160.89 9.28Q161.16 9.75 161.53 10.11Q161.84 10.41 162.23 10.64Q162.37 10.72 162.51 10.79ZM212.65 10.16L212.65 11L213.95 11L213.95 5.9Q213.95 5.13 213.62 4.59Q213.51 4.41 213.37 4.27Q213.08 3.96 212.67 3.77Q212.05 3.49 211.21 3.49Q210.54 3.49 209.94 3.69Q209.75 3.76 209.56 3.84Q208.8 4.19 208.14 4.9L209.08 5.84Q209.49 5.32 209.98 5.08Q210.02 5.06 210.06 5.04Q210.53 4.82 211.1 4.82Q211.62 4.82 212 5.05Q212.11 5.12 212.21 5.21Q212.4 5.37 212.51 5.58Q212.65 5.85 212.65 6.21L212.65 6.53L211.26 6.53Q210.45 6.53 209.83 6.68Q209.21 6.84 208.79 7.13Q208.54 7.31 208.37 7.54Q208.25 7.7 208.17 7.87Q207.96 8.32 207.96 8.91Q207.96 9.47 208.19 9.91Q208.24 10 208.29 10.08Q208.39 10.23 208.51 10.36Q208.79 10.66 209.18 10.85Q209.74 11.14 210.45 11.14Q210.72 11.14 210.98 11.08Q211.25 11.03 211.5 10.93Q211.58 10.89 211.66 10.86Q212.08 10.66 212.44 10.35Q212.55 10.26 212.65 10.16ZM212.65 8.85L212.65 7.68L211.08 7.68Q210.66 7.68 210.33 7.75Q210.01 7.83 209.77 7.99Q209.54 8.15 209.43 8.37Q209.32 8.59 209.32 8.88Q209.32 9.13 209.42 9.32Q209.44 9.37 209.47 9.42Q209.51 9.48 209.56 9.54Q209.7 9.69 209.89 9.78Q210.16 9.9 210.51 9.9Q210.91 9.9 211.27 9.8Q211.37 9.77 211.47 9.73Q211.84 9.58 212.15 9.35Q212.22 9.3 212.28 9.25Q212.5 9.06 212.65 8.85ZM219.67 3.65L219.67 11L221.11 11L221.11 6.54Q221.11 6.28 221.19 6.04Q221.21 5.95 221.26 5.86Q221.32 5.73 221.4 5.61Q221.51 5.45 221.66 5.31Q221.7 5.27 221.74 5.24Q221.97 5.05 222.27 4.94Q222.62 4.81 223.04 4.81Q223.56 4.78 223.91 4.97Q223.99 5.02 224.07 5.08Q224.3 5.26 224.42 5.57Q224.59 5.98 224.59 6.61L224.59 11L226.04 11L226.04 6.51Q226.04 5.49 225.76 4.82Q225.54 4.3 225.15 3.98Q225.04 3.89 224.92 3.82Q224.36 3.49 223.51 3.49Q223.38 3.49 223.24 3.51Q222.79 3.55 222.37 3.75Q221.85 3.99 221.47 4.36Q221.44 4.39 221.4 4.42Q221.23 4.6 221.11 4.78L221.11 3.65L219.67 3.65ZM4.78 3.59L11.53 3.59L11.53 4.44L4.78 4.44L4.78 3.59ZM126.57 10.82Q127.12 11.14 127.85 11.14Q128.37 11.14 128.82 10.98Q128.92 10.94 129.03 10.89Q129.42 10.72 129.74 10.45Q129.86 10.34 129.97 10.23Q130.16 10.04 130.29 9.82L130.29 11L131.73 11L131.73 3.65L130.29 3.65L130.29 8.07Q130.29 8.46 130.15 8.79L130.15 8.8Q130.03 9.08 129.84 9.29Q129.8 9.33 129.76 9.37Q129.75 9.38 129.74 9.39Q129.5 9.61 129.18 9.74Q128.85 9.87 128.44 9.87Q127.9 9.87 127.52 9.63Q127.33 9.5 127.17 9.32Q126.72 8.76 126.72 7.79L126.72 3.65L125.28 3.65L125.28 8.18Q125.28 9.09 125.59 9.75Q125.81 10.2 126.15 10.52Q126.31 10.66 126.49 10.77Q126.53 10.8 126.57 10.82ZM216.01 3.65L216.01 11L217.45 11L217.45 3.65L216.01 3.65ZM28.82 4.19L39.25 4.19L39.25 8.84C39.25 9.47 39.12 9.82 38.6 9.99C38.1 10.15 37.23 10.15 35.91 10.15C35.89 9.85 35.73 9.39 35.59 9.08C36.61 9.12 37.55 9.12 37.85 9.09C38.11 9.09 38.18 9.04 38.18 8.81L38.18 5.2L33.55 5.2L33.55 12.03L32.47 12.03L32.47 5.2L28.82 5.2L28.82 4.19ZM325 4.19L335.43 4.19L335.43 8.84C335.43 9.47 335.3 9.82 334.79 9.99C334.28 10.15 333.41 10.15 332.1 10.15C332.07 9.85 331.92 9.39 331.78 9.08C332.8 9.12 333.74 9.12 334.03 9.09C334.3 9.09 334.37 9.04 334.37 8.81L334.37 5.2L329.73 5.2L329.73 12.03L328.66 12.03L328.66 5.2L325 5.2L325 4.19ZM87.94 4.23L90.22 4.23L90.22 9.62C90.49 9.73 90.75 9.97 91.16 10.23C91.83 10.66 92.64 10.79 93.75 10.79C94.62 10.79 96.02 10.73 96.96 10.6C96.84 10.9 96.7 11.4 96.7 11.7C95.97 11.74 94.56 11.78 93.72 11.78C92.55 11.78 91.72 11.58 90.98 11.12C90.5 10.79 90.11 10.45 89.83 10.45C89.44 10.45 88.85 11.18 88.32 11.93L87.64 10.98C88.19 10.39 88.77 9.9 89.27 9.67L89.27 5.2L87.94 5.2L87.94 4.23ZM282.39 4.23L284.67 4.23L284.67 9.62C284.93 9.73 285.2 9.97 285.6 10.23C286.28 10.66 287.09 10.79 288.2 10.79C289.06 10.79 290.46 10.73 291.4 10.6C291.29 10.9 291.15 11.4 291.15 11.7C290.42 11.74 289.01 11.78 288.17 11.78C286.99 11.78 286.17 11.58 285.42 11.12C284.95 10.79 284.56 10.45 284.28 10.45C283.88 10.45 283.29 11.18 282.76 11.93L282.09 10.98C282.64 10.39 283.21 9.9 283.71 9.67L283.71 5.2L282.39 5.2L282.39 4.23ZM44.75 6.99L52.02 6.99L52.02 4.5L44.75 4.5L44.75 6.99ZM262.17 9.69C261.97 8.38 261.39 6.36 260.78 4.84L261.68 4.58C262.32 6.11 262.91 8.07 263.12 9.39L262.17 9.69ZM255.34 9.3C256.15 8.17 256.7 6.45 257.02 4.7L257.98 4.88C257.6 6.77 256.99 8.63 256.19 9.83C256.01 9.67 255.59 9.41 255.34 9.3ZM173.63 9.7Q173.22 9.89 172.72 9.89Q172.24 9.89 171.84 9.71Q171.7 9.64 171.56 9.55Q171.44 9.47 171.33 9.38Q170.99 9.08 170.77 8.64Q170.48 8.06 170.48 7.31Q170.48 6.57 170.77 5.99Q170.99 5.55 171.33 5.25Q171.44 5.16 171.56 5.08Q171.7 4.98 171.86 4.91Q172.25 4.74 172.72 4.74Q173.21 4.74 173.62 4.92Q173.76 4.99 173.88 5.08Q174.02 5.16 174.13 5.27Q174.47 5.56 174.68 5.99Q174.96 6.57 174.96 7.31Q174.96 8.06 174.68 8.64Q174.47 9.07 174.13 9.36Q174.02 9.47 173.88 9.55Q173.76 9.63 173.63 9.7ZM165.03 9.65Q164.63 9.82 164.16 9.82Q163.69 9.82 163.3 9.66Q163.13 9.59 162.97 9.49Q162.76 9.36 162.59 9.19Q162.33 8.93 162.15 8.6Q162.14 8.56 162.12 8.53Q161.86 7.98 161.87 7.31Q161.86 6.64 162.12 6.1Q162.14 6.07 162.15 6.03Q162.34 5.68 162.61 5.42Q162.77 5.26 162.97 5.14Q163.13 5.04 163.3 4.97Q163.69 4.81 164.16 4.81Q164.65 4.81 165.06 4.99Q165.2 5.05 165.33 5.13Q165.51 5.24 165.66 5.38Q165.95 5.65 166.14 6.02Q166.44 6.59 166.42 7.31Q166.44 7.98 166.18 8.53Q166.16 8.56 166.14 8.6Q165.96 8.94 165.69 9.2Q165.53 9.36 165.33 9.49Q165.19 9.58 165.03 9.65ZM267.39 5.3C267.2 6.59 267 7.8 266.8 8.82L274.07 8.82C274.2 7.96 274.31 6.81 274.4 5.3L267.39 5.3ZM11.53 6.4L4.78 6.4L4.78 5.55L11.53 5.55L11.53 6.4ZM269.48 5.83C270.57 6.35 271.84 7.19 272.46 7.84L271.77 8.53C271.18 7.87 269.93 6.99 268.83 6.45L269.48 5.83ZM5.49 12.07L4.58 12.07L4.58 7.58L11.67 7.58L11.67 12.03L10.74 12.03L10.74 11.53L5.49 11.53L5.49 12.07ZM10.74 10.66L10.74 8.45L5.49 8.45L5.49 10.66L10.74 10.66ZM53.68 11.95C53.36 11.18 52.59 9.97 51.89 9.08L52.8 8.73C53.51 9.61 54.31 10.77 54.66 11.56L53.68 11.95ZM44.92 9.06C44.46 10.15 43.74 11.33 42.99 12.06L42.03 11.6C42.77 10.97 43.49 9.85 43.94 8.81L44.92 9.06ZM50.03 11.9C49.89 11.22 49.47 10.06 49.05 9.2L49.99 8.99C50.42 9.83 50.87 10.97 51.03 11.67L50.03 11.9ZM46.49 11.95C46.49 11.25 46.36 10.09 46.18 9.19L47.17 9.1C47.35 9.99 47.51 11.14 47.52 11.81L46.49 11.95ZM232.81 12.86L233.34 13.5Q233.61 13.4 233.85 13.25Q233.97 13.17 234.08 13.08Q234.4 12.83 234.64 12.52Q234.66 12.5 234.67 12.48Q234.81 12.29 234.92 12.08Q235 11.92 235.06 11.75Q235.14 11.55 235.17 11.35Q235.2 11.15 235.2 10.94Q235.2 10.48 235.04 10.12Q234.9 9.81 234.67 9.62Q234.63 9.59 234.6 9.56Q234.44 9.45 234.27 9.4Q234.12 9.36 233.96 9.36Q233.63 9.36 233.41 9.51Q233.38 9.53 233.34 9.56Q233.25 9.64 233.19 9.74Q233.11 9.9 233.11 10.1Q233.11 10.24 233.14 10.37Q233.16 10.43 233.19 10.49Q233.27 10.67 233.55 10.94Q233.78 11.18 233.84 11.31Q233.9 11.42 233.91 11.53Q233.92 11.56 233.92 11.58Q233.92 11.85 233.61 12.21Q233.3 12.58 232.81 12.86ZM292.55 12.86L293.08 13.5Q293.35 13.4 293.59 13.25Q293.71 13.17 293.82 13.08Q294.14 12.83 294.38 12.52Q294.4 12.5 294.41 12.48Q294.55 12.29 294.66 12.08Q294.74 11.92 294.8 11.75Q294.87 11.55 294.91 11.35Q294.94 11.15 294.94 10.94Q294.94 10.48 294.78 10.12Q294.64 9.81 294.41 9.62Q294.37 9.59 294.33 9.56Q294.18 9.45 294.01 9.4Q293.86 9.36 293.7 9.36Q293.37 9.36 293.15 9.51Q293.11 9.53 293.08 9.56Q292.99 9.64 292.93 9.74Q292.84 9.9 292.84 10.1Q292.84 10.24 292.88 10.37Q292.9 10.43 292.93 10.49Q293.01 10.67 293.29 10.94Q293.51 11.18 293.58 11.31Q293.64 11.42 293.65 11.53Q293.65 11.56 293.65 11.58Q293.65 11.85 293.35 12.21Q293.04 12.58 292.55 12.86ZM151.79 20.44L151.79 21.35L148.03 21.35L148.03 23.52L151.79 23.52L151.79 24.45L148.03 24.45L148.03 26.73L153.45 26.73L153.45 27.68L141.62 27.68L141.62 26.73L146.96 26.73L146.96 24.45L143.37 24.45L143.37 23.52L146.96 23.52L146.96 21.35L143.28 21.35L143.28 20.44C142.75 20.81 142.19 21.12 141.64 21.4C141.49 21.12 141.18 20.78 140.92 20.54C143.45 19.38 146 17.34 147.4 15.14L148.32 15.56C148.24 15.68 148.16 15.81 148.07 15.93C149.79 17.94 151.85 19.38 154.12 20.57C153.85 20.79 153.54 21.14 153.39 21.45C152.84 21.12 152.31 20.79 151.79 20.44ZM263.79 20.44L263.79 21.35L260.03 21.35L260.03 23.52L263.79 23.52L263.79 24.45L260.03 24.45L260.03 26.73L265.45 26.73L265.45 27.68L253.62 27.68L253.62 26.73L258.96 26.73L258.96 24.45L255.37 24.45L255.37 23.52L258.96 23.52L258.96 21.35L255.28 21.35L255.28 20.44C254.75 20.81 254.19 21.12 253.64 21.4C253.49 21.12 253.18 20.78 252.92 20.54C255.45 19.38 258 17.34 259.4 15.14L260.32 15.56C260.24 15.68 260.16 15.81 260.07 15.93C261.79 17.94 263.85 19.38 266.12 20.57C265.85 20.79 265.54 21.14 265.39 21.45C264.84 21.12 264.31 20.79 263.79 20.44ZM138.2 17.88L128.72 17.88L128.72 19.95L127.7 19.95L127.7 16.89L133.1 16.89C132.91 16.43 132.65 15.88 132.41 15.46L133.45 15.17C133.78 15.7 134.14 16.38 134.34 16.89L139.27 16.89L139.27 19.95L138.2 19.95L138.2 17.88ZM278.35 17.94L268.62 17.94L268.62 20.11L267.6 20.11L267.6 16.98L273.13 16.98C272.92 16.51 272.67 15.95 272.45 15.51L273.52 15.21C273.82 15.75 274.18 16.48 274.38 16.98L279.41 16.98L279.41 19.77L278.35 19.77L278.35 17.94ZM121.26 17.48L125.45 17.48L125.45 18.01C125.22 24.39 125.04 26.55 124.48 27.23C124.17 27.62 123.85 27.75 123.37 27.79C122.88 27.85 122.09 27.82 121.3 27.78C121.27 27.47 121.15 27.05 120.95 26.76C121.86 26.84 122.7 26.84 123.02 26.84C123.3 26.84 123.46 26.81 123.6 26.63C124.06 26.14 124.27 24.01 124.45 18.44L120.9 18.44C120.5 19.38 120.07 20.23 119.58 20.89C119.4 20.72 118.95 20.44 118.73 20.3C119.66 19.07 120.42 17.14 120.87 15.22L121.86 15.46C121.69 16.15 121.5 16.82 121.26 17.48ZM43.68 16.27C47.27 16.12 51.55 15.75 53.95 15.23L54.68 16.07C51.87 16.66 47.55 17.01 43.92 17.15C43.91 16.89 43.78 16.51 43.68 16.27ZM115.32 17.52C115.53 16.84 115.79 15.91 115.88 15.25L117 15.46C116.76 16.15 116.52 16.92 116.28 17.52L118.6 17.52L118.6 26.6L114.71 26.6L114.71 27.71L113.76 27.71L113.76 17.52L115.32 17.52ZM250.07 17.87L240.87 17.87L240.87 19.7L239.84 19.7L239.84 16.9L244.96 16.9C244.77 16.47 244.51 15.93 244.31 15.51L245.37 15.26C245.65 15.78 245.97 16.43 246.18 16.9L251.15 16.9L251.15 19.7L250.07 19.7L250.07 17.87ZM21.05 15.54C20.87 16.17 20.63 16.82 20.37 17.45L27.59 17.45L27.59 18.44L19.95 18.44C19.46 19.45 18.92 20.4 18.26 21.3L18.26 28L17.24 28L17.24 22.53C16.75 23.06 16.2 23.52 15.62 23.94C15.52 23.66 15.25 23.23 15.08 23.01C16.68 21.87 17.91 20.22 18.78 18.44L15.42 18.44L15.42 17.45L19.24 17.45C19.54 16.73 19.79 15.99 19.98 15.28L21.05 15.54ZM167.77 21.14L167.77 22.18L160.99 22.18C160.05 23.69 158.99 25.15 157.94 26.29L164.86 25.81C164.27 24.96 163.59 24.1 162.97 23.37L163.87 22.95C165.14 24.32 166.49 26.17 167.14 27.39L166.14 27.93C165.96 27.57 165.74 27.16 165.46 26.71C157.88 27.32 157.11 27.37 156.57 27.58C156.51 27.36 156.36 26.83 156.22 26.56C156.51 26.49 156.83 26.15 157.24 25.67C157.63 25.26 158.79 23.76 159.69 22.18L155.28 22.18L155.28 21.14L160.95 21.14L160.95 18.5L156.37 18.5L156.37 17.48L160.95 17.48L160.95 15.28L162.03 15.28L162.03 17.48L166.73 17.48L166.73 18.5L162.03 18.5L162.03 21.14L167.77 21.14ZM176 15.28L176 17.77L181.08 17.77L181.08 24.32L180.02 24.32L180.02 23.52L176 23.52L176 28.06L174.92 28.06L174.92 23.52L170.92 23.52L170.92 24.39L169.9 24.39L169.9 17.77L174.92 17.77L174.92 15.28L176 15.28ZM214.92 19.95L217.48 19.95L217.48 20.9L211.18 20.9L211.18 19.95L213.91 19.95L213.91 18.04L211.62 18.04L211.62 17.08L213.91 17.08L213.91 15.28L214.92 15.28L214.92 17.08L217.19 17.08L217.19 18.04L214.92 18.04L214.92 19.95ZM302 15.28L302 17.77L307.08 17.77L307.08 24.32L306.02 24.32L306.02 23.52L302 23.52L302 28.06L300.92 28.06L300.92 23.52L296.92 23.52L296.92 24.39L295.9 24.39L295.9 17.77L300.92 17.77L300.92 15.28L302 15.28ZM323.04 18.31C324.2 17.53 325.55 16.27 326.25 15.28L327.24 15.67C326.33 16.9 324.91 18.26 323.66 19.14C323.5 18.92 323.22 18.51 323.04 18.31ZM7.9 19.52L12.16 19.52L12.16 23.97L2.85 23.97L2.85 19.52L6.87 19.52L6.87 15.29L7.9 15.29L7.9 16.78L13.19 16.78L13.19 17.76L7.9 17.76L7.9 19.52ZM77.97 21.69L76.95 21.69L76.95 19.34C75.73 20.72 73.85 21.83 71.95 22.37C71.81 22.12 71.52 21.75 71.28 21.54C73.11 21.1 74.98 20.14 76.11 18.96L71.54 18.96L71.54 17.99L76.95 17.99L76.95 15.29L77.97 15.29L77.97 17.99L83.5 17.99L83.5 18.96L78.62 18.96C80.34 19.79 82.35 20.81 83.45 21.49L82.94 22.33C81.82 21.6 79.73 20.48 77.97 19.6L77.97 21.69ZM103.89 21.31L104.01 22.26L102.06 22.84L102.06 26.74C102.06 27.33 101.91 27.61 101.55 27.76C101.18 27.93 100.61 27.96 99.66 27.96C99.62 27.7 99.46 27.28 99.34 27C99.87 27.02 100.37 27.01 100.63 27.01C100.69 27.01 100.73 27.01 100.77 27.01C100.96 27.01 101.04 26.94 101.04 26.74L101.04 23.15C100.41 23.34 99.82 23.51 99.29 23.66L98.98 22.67C99.56 22.53 100.27 22.33 101.04 22.11L101.04 19.07L99.12 19.07L99.12 18.09L101.04 18.09L101.04 15.29L102.06 15.29L102.06 18.09L103.68 18.09L103.68 19.07L102.06 19.07L102.06 21.84L103.89 21.31ZM197.14 20.84C198.62 19.51 200.05 17.43 200.9 15.29L201.93 15.61C201.54 16.56 201.04 17.5 200.52 18.37L200.52 28.07L199.43 28.07L199.43 20C198.92 20.68 198.39 21.31 197.83 21.83C197.7 21.6 197.35 21.06 197.14 20.84ZM62.9 15.55C62.9 15.48 62.91 15.4 62.91 15.33L64.06 15.33C64.04 15.84 64.03 16.54 63.96 17.36C64.17 19.03 65.01 24.88 69.95 27.08C69.65 27.32 69.35 27.67 69.19 27.96C65.69 26.32 64.2 22.87 63.52 20.26C62.88 23.06 61.4 26.2 57.98 28.02C57.8 27.74 57.46 27.42 57.14 27.2C62.76 24.36 62.87 17.9 62.9 15.55ZM111.75 18.58L111.75 19.57L107.18 19.57C106.91 22.81 106.11 25.99 103.72 27.9C103.52 27.67 103.2 27.39 102.92 27.22C105.19 25.48 105.9 22.56 106.17 19.57L104.03 19.57L104.03 18.58L106.22 18.58C106.29 17.48 106.29 16.37 106.31 15.35L107.33 15.35C107.31 16.38 107.3 17.49 107.25 18.58L111.75 18.58ZM222.49 18.54L223.87 18.54L223.87 19.55L222.49 19.55L222.49 26.71C222.49 27.36 222.31 27.65 221.9 27.84C221.47 28 220.79 28.04 219.64 28.04C219.58 27.75 219.39 27.3 219.23 27.02C219.95 27.04 220.61 27.04 220.94 27.04C221.02 27.04 221.08 27.04 221.12 27.04C221.37 27.02 221.47 26.95 221.47 26.71L221.47 19.55L217.69 19.55L217.69 18.54L221.47 18.54L221.47 15.4L222.49 15.4L222.49 18.54ZM226.79 15.45C227.45 16.02 228.23 16.86 228.57 17.43L227.73 18.01C227.39 17.43 226.65 16.56 226.01 15.93L226.79 15.45ZM283.72 18.01C283.39 17.45 282.67 16.58 282.04 15.96L282.83 15.47C283.48 16.05 284.23 16.87 284.56 17.45L283.72 18.01ZM79.51 17.5C79.97 16.96 80.57 16.13 80.91 15.54L81.99 15.88C81.47 16.59 80.84 17.34 80.35 17.82L79.51 17.5ZM204.83 25.86C204.83 26.63 204.97 26.79 205.64 26.79L207.93 26.79C208.68 26.79 208.77 26.18 208.89 23.8C209.17 24.01 209.6 24.24 209.91 24.31C209.77 26.91 209.46 27.81 207.99 27.81L205.53 27.81C204.12 27.81 203.73 27.39 203.73 25.83L203.73 23.43C203.09 23.84 202.43 24.22 201.79 24.54C201.62 24.34 201.28 23.97 201.02 23.76C201.91 23.33 202.84 22.78 203.73 22.17L203.73 15.54L204.83 15.54L204.83 21.34C206.28 20.18 207.61 18.81 208.58 17.31L209.6 17.98C208.33 19.76 206.62 21.37 204.83 22.67L204.83 25.86ZM73.94 15.59C74.54 16.13 75.2 16.93 75.46 17.46L74.56 17.92C74.29 17.39 73.66 16.56 73.07 16.01L73.94 15.59ZM109.2 15.6C109.88 16.21 110.72 17.1 111.11 17.66L110.35 18.25C109.98 17.67 109.15 16.76 108.48 16.12L109.2 15.6ZM191.02 19.63C190.25 18.76 188.63 17.39 187.31 16.45L188 15.77C189.3 16.66 190.97 17.98 191.77 18.86L191.02 19.63ZM310.19 16.05C310.99 16.56 312.11 17.34 312.67 17.82L311.95 18.58C311.41 18.08 310.31 17.26 309.5 16.69L310.19 16.05ZM229.48 16.06L237.23 16.06L237.23 26.76C237.23 27.34 237.09 27.61 236.72 27.79C236.34 27.96 235.71 27.98 234.79 27.98C234.73 27.7 234.59 27.26 234.46 27.01C235.11 27.02 235.76 27.02 235.93 27.01C236.14 27 236.21 26.95 236.21 26.76L236.21 17.03L229.48 17.03L229.48 16.06ZM285.44 16.07L293.22 16.07L293.22 26.8C293.22 27.39 293.09 27.65 292.73 27.82C292.37 28 291.78 28.02 290.93 28.02C290.87 27.74 290.73 27.32 290.59 27.04C291.07 27.06 291.55 27.05 291.79 27.05C291.85 27.05 291.89 27.05 291.92 27.05C292.1 27.05 292.16 26.98 292.16 26.8L292.16 17.06L285.44 17.06L285.44 16.07ZM328.59 16.13L335.42 16.13L335.42 17.11L328.59 17.11L328.59 16.13ZM313.83 16.16L320.83 16.16L320.83 17.14L313.83 17.14L313.83 16.16ZM41.47 16.27L41.47 17.31L37.04 17.31C36.73 17.82 36.39 18.33 36.04 18.85L36.04 28.03L34.93 28.03L34.93 20.25C33.52 21.86 31.81 23.3 29.87 24.32C29.71 24.06 29.38 23.65 29.17 23.41C31.93 22.03 34.32 19.7 35.7 17.31L29.52 17.31L29.52 16.27L41.47 16.27ZM92.01 20.93L97.71 20.93L97.71 22L92.01 22L92.01 28.04L90.88 28.04L90.88 22L85.29 22L85.29 20.93L90.88 20.93L90.88 17.34L86.01 17.34L86.01 16.29L97.07 16.29L97.07 17.34L92.01 17.34L92.01 20.93ZM147.5 16.69C146.36 18.1 144.89 19.39 143.32 20.42L151.75 20.42C150.21 19.38 148.81 18.2 147.5 16.69ZM259.5 16.69C258.36 18.1 256.89 19.39 255.32 20.42L263.75 20.42C262.21 19.38 260.81 18.2 259.5 16.69ZM54.44 22.12L54.44 20.22L44.53 20.22L44.53 22.12L43.54 22.12L43.54 19.29L45.77 19.29C45.6 18.79 45.21 18.02 44.85 17.45L45.74 17.2C46.15 17.77 46.57 18.53 46.74 19.03L45.91 19.29L52 19.29C52.46 18.59 53 17.63 53.3 16.92L54.35 17.24C53.98 17.92 53.48 18.68 53.06 19.29L55.46 19.29L55.46 22.12L54.44 22.12ZM49.48 16.94C49.82 17.59 50.12 18.44 50.22 18.97L49.24 19.21C49.16 18.67 48.87 17.8 48.54 17.15L49.48 16.94ZM235.4 19.84L235.4 20.84L233.44 20.84L233.44 25.57C233.44 26.2 233.3 26.48 232.85 26.65C232.43 26.81 231.7 26.83 230.6 26.83C230.56 26.53 230.39 26.1 230.25 25.82C231.08 25.85 231.86 25.85 232.08 25.83C232.31 25.82 232.38 25.76 232.38 25.55L232.38 21.7C231.31 23.23 229.79 24.54 228 25.5C227.84 25.3 227.51 24.94 227.28 24.77C229.18 23.8 230.82 22.36 231.79 20.84L227.91 20.84L227.91 19.84L232.38 19.84L232.38 17.98L233.44 17.98L233.44 19.84L235.4 19.84ZM322.9 22.47C324.34 21.45 325.85 19.84 326.82 18.26L327.79 18.62C327.35 19.34 326.82 20.05 326.25 20.74L326.25 28.1L325.21 28.1L325.21 21.89C324.68 22.43 324.15 22.93 323.63 23.34C323.48 23.13 323.11 22.68 322.9 22.47ZM226.82 28.07L225.8 28.07L225.8 18.43L226.82 18.43L226.82 28.07ZM282.87 28.07L281.82 28.07L281.82 18.43L282.87 18.43L282.87 28.07ZM114.71 21.38L117.65 21.38L117.65 18.45L114.71 18.45L114.71 21.38ZM251.53 20.71L251.53 21.7L248.87 21.7C248.38 22.99 247.72 24.06 246.87 24.9C248.6 25.62 250.18 26.39 251.25 27.08L250.38 27.98C249.36 27.28 247.75 26.45 245.98 25.68C244.5 26.83 242.62 27.53 240.34 28.03C240.23 27.76 239.91 27.32 239.68 27.08C241.8 26.71 243.55 26.14 244.91 25.22C243.65 24.71 242.37 24.24 241.21 23.87L241.23 23.86C241.69 23.27 242.2 22.51 242.71 21.7L239.49 21.7L239.49 20.71L243.3 20.71C243.72 19.95 244.12 19.15 244.41 18.45L245.52 18.68C245.24 19.34 244.89 20.02 244.51 20.71L251.53 20.71ZM272.6 19.39C271.49 20.37 269.97 21.42 268.34 22.12L267.73 21.23C269.38 20.64 270.81 19.7 271.89 18.78L272.6 19.39ZM170.92 18.79L170.92 22.5L174.92 22.5L174.92 18.79L170.92 18.79ZM176 18.79L176 22.5L180.02 22.5L180.02 18.79L176 18.79ZM296.92 18.79L296.92 22.5L300.92 22.5L300.92 18.79L296.92 18.79ZM302 18.79L302 22.5L306.02 22.5L306.02 18.79L302 18.79ZM278.62 22C277.7 21.32 275.81 20.23 274.38 19.49L275.04 18.82C276.42 19.49 278.32 20.54 279.31 21.2L278.62 22ZM186.66 26.04L186.66 19.15L187.7 19.15L187.7 26.06C187.7 26.7 187.87 26.83 188.67 26.83L191.34 26.83C192.21 26.83 192.34 26.34 192.45 23.93C192.7 24.12 193.14 24.31 193.43 24.39C193.28 27.04 192.95 27.81 191.4 27.81L188.59 27.81C187.07 27.81 186.66 27.43 186.66 26.04ZM27.04 22.82L23.89 22.82L23.89 26.76L27.59 26.76L27.59 27.74L19.17 27.74L19.17 26.76L22.85 26.76L22.85 22.82L19.72 22.82L19.72 21.84L22.85 21.84L22.85 19.17L23.89 19.17L23.89 21.84L27.04 21.84L27.04 22.82ZM290.13 25.59L284.88 25.59L284.88 19.25L290.13 19.25L290.13 25.59ZM318.95 20.96C319.82 22.32 320.94 24.12 321.47 25.18L320.56 25.67C320.42 25.37 320.23 25.01 320 24.62C314.79 25.06 314.18 25.12 313.77 25.3C313.7 25.08 313.52 24.54 313.4 24.25C313.65 24.21 313.87 23.9 314.15 23.45C314.42 23.07 315.19 21.72 315.72 20.32L312.9 20.32L312.9 19.34L321.81 19.34L321.81 20.32L316.97 20.32C316.39 21.63 315.66 22.99 314.92 24.07L319.51 23.7C319.05 22.91 318.56 22.07 318.1 21.35L318.95 20.96ZM137.26 19.37L137.26 20.33L129.7 20.33L129.7 19.37L137.26 19.37ZM41.04 24.12C40.04 23.06 37.97 21.41 36.32 20.32L37.09 19.65C38.71 20.7 40.84 22.26 41.87 23.33L41.04 24.12ZM194.94 25.5C194.66 24.06 193.9 21.86 193.12 20.22L194.09 19.84C194.9 21.51 195.67 23.65 195.96 25.09L194.94 25.5ZM327.98 19.95L335.82 19.95L335.82 20.95L333.71 20.95L333.71 26.73C333.71 27.37 333.56 27.7 333.09 27.86C332.62 28.02 331.83 28.02 330.46 28.02C330.42 27.74 330.28 27.3 330.12 27.01C331.12 27.04 332.04 27.04 332.31 27.02C332.58 27.01 332.66 26.95 332.66 26.71L332.66 20.95L327.98 20.95L327.98 19.95ZM289.15 20.12L285.81 20.12L285.81 21.98L289.15 21.98L289.15 20.12ZM309.12 20.15L312.05 20.15L312.05 25.5C312.36 25.64 312.67 25.93 313.21 26.25C314.15 26.84 315.33 26.94 316.87 26.94C318.45 26.94 320.55 26.83 321.99 26.67C321.85 26.97 321.68 27.5 321.65 27.81C320.72 27.86 318.35 27.95 316.84 27.95C315.13 27.95 313.97 27.78 312.99 27.18C312.43 26.83 311.95 26.38 311.65 26.38C311.17 26.38 310.47 27.2 309.78 28.13L309.07 27.16C309.76 26.42 310.44 25.82 311.04 25.54L311.04 21.12L309.12 21.12L309.12 20.15ZM183.17 25.45C183.77 24.03 184.23 21.84 184.43 20.2L185.43 20.4C185.21 22.04 184.78 24.4 184.2 25.89L183.17 25.45ZM3.84 22.99L11.11 22.99L11.11 20.5L3.84 20.5L3.84 22.99ZM121.04 20.61C121.82 21.6 122.79 22.95 123.23 23.78L122.35 24.32C121.93 23.48 120.99 22.09 120.22 21.09L121.04 20.61ZM108.53 26.25C108.53 26.69 108.6 26.77 109.04 26.77L110.49 26.77C110.9 26.77 110.98 26.45 111.03 24.63C111.27 24.81 111.68 24.99 111.96 25.06C111.87 27.16 111.59 27.74 110.58 27.74L108.91 27.74C107.81 27.74 107.51 27.4 107.51 26.25L107.51 20.71L108.53 20.71L108.53 26.25ZM219.12 20.82C219.62 21.83 220.24 23.19 220.52 23.97L219.58 24.36C219.31 23.55 218.71 22.17 218.22 21.14L219.12 20.82ZM214.92 23.8L214.92 25.87L217.69 25.43L217.75 26.39C215.41 26.79 212.93 27.19 211.21 27.5L211.06 26.45C211.84 26.34 212.83 26.2 213.91 26.03L213.91 23.8L211.5 23.8L211.5 22.87L213.91 22.87L213.91 21.23L214.92 21.23L214.92 22.87L217.31 22.87L217.31 23.8L214.92 23.8ZM245.84 24.48C246.63 23.73 247.26 22.82 247.68 21.7L243.94 21.7C243.56 22.32 243.2 22.89 242.85 23.4C243.81 23.7 244.84 24.08 245.84 24.48ZM52.85 21.8L53.06 21.76L53.75 22.19C53.02 23.68 51.92 24.82 50.54 25.71C52.03 26.38 53.78 26.83 55.73 27.06C55.5 27.29 55.22 27.75 55.09 28.03C52.98 27.74 51.1 27.16 49.51 26.29C47.83 27.16 45.88 27.71 43.87 28.03C43.76 27.78 43.46 27.32 43.25 27.11C45.15 26.84 46.98 26.41 48.51 25.71C47.37 24.92 46.4 23.96 45.69 22.82L45.83 22.77L45.23 22.77L45.23 21.8L52.85 21.8ZM135.62 26.41C135.62 26.81 135.72 26.88 136.29 26.88L138.23 26.88C138.76 26.88 138.84 26.63 138.9 25.04C139.14 25.22 139.56 25.37 139.85 25.44C139.73 27.37 139.43 27.85 138.33 27.85L136.18 27.85C134.91 27.85 134.59 27.53 134.59 26.42L134.59 22.93L132.12 22.93C131.91 25.83 131.18 27.34 127.71 28.09C127.63 27.82 127.36 27.42 127.17 27.22C130.32 26.6 130.9 25.41 131.07 22.93L127.35 22.93L127.35 21.94L139.65 21.94L139.65 22.93L135.62 22.93L135.62 26.41ZM83.56 23.5L83.56 24.48L78.52 24.48C79.54 25.95 81.39 26.81 83.92 27.09C83.68 27.33 83.4 27.76 83.26 28.07C80.46 27.62 78.54 26.52 77.47 24.56C76.73 26.29 75.2 27.46 71.73 28.07C71.64 27.79 71.39 27.34 71.18 27.12C74.23 26.65 75.63 25.76 76.33 24.48L71.48 24.48L71.48 23.5L76.71 23.5C76.84 23.05 76.92 22.53 76.99 22.01L78.07 22.01C78 22.54 77.92 23.03 77.8 23.5L83.56 23.5ZM274.01 23.13L274.01 26.65L279.42 26.65L279.42 27.61L267.62 27.61L267.62 26.65L272.93 26.65L272.93 23.13L269.06 23.13L269.06 22.18L278 22.18L278 23.13L274.01 23.13ZM114.71 22.31L114.71 25.67L117.65 25.67L117.65 22.31L114.71 22.31ZM49.54 25.18C50.63 24.54 51.55 23.76 52.2 22.77L46.79 22.77C47.46 23.73 48.4 24.53 49.54 25.18ZM289.15 22.85L285.81 22.85L285.81 24.73L289.15 24.73L289.15 22.85ZM12.77 27.95C12.45 27.18 11.68 25.97 10.98 25.08L11.89 24.73C12.6 25.61 13.4 26.77 13.75 27.56L12.77 27.95ZM4.01 25.06C3.55 26.15 2.83 27.33 2.08 28.06L1.12 27.6C1.87 26.97 2.58 25.85 3.03 24.81L4.01 25.06ZM9.12 27.9C8.98 27.22 8.56 26.06 8.14 25.2L9.08 24.99C9.51 25.83 9.96 26.97 10.13 27.67L9.12 27.9ZM5.58 27.95C5.58 27.25 5.45 26.09 5.27 25.19L6.26 25.1C6.45 25.99 6.6 27.14 6.61 27.81L5.58 27.95Z" fill="#11183C" fill-opacity="1.000000" fill-rule="evenodd"/>
</svg>
