<svg width="189.000000" height="29.000000" viewBox="0 0 189 29" fill="none" xmlns="http://www.w3.org/2000/svg" xmlns:xlink="http://www.w3.org/1999/xlink">
	<desc>
			Created with Pixso.
	</desc>
	<defs/>
	<path id="Congratulations!" d="M108.47 -0.18C108.06 1.26 107.51 2.73 106.93 4.17L123.42 4.17L123.42 6.44L105.97 6.44C104.85 8.75 103.6 10.92 102.1 12.97L102.1 28.3L99.77 28.3L99.77 15.78C98.64 17 97.4 18.06 96.06 19.02C95.83 18.38 95.22 17.39 94.84 16.88C98.49 14.28 101.3 10.51 103.28 6.44L95.6 6.44L95.6 4.17L104.35 4.17C105.02 2.54 105.59 0.85 106.04 -0.79L108.47 -0.18ZM180.76 18.64C182.23 15.98 183.45 13 184.25 10L186.39 10.6C185.27 14.54 183.64 18.32 181.56 21.58C182.46 24.33 183.64 25.87 185.02 25.87C185.82 25.87 186.14 24.49 186.32 20.75C186.81 21.29 187.6 21.74 188.18 21.96C187.8 26.73 187.03 28.17 184.82 28.17C182.75 28.17 181.18 26.57 179.99 23.85C178.58 25.61 177.05 27.18 175.35 28.53C175 28.01 174.26 27.31 173.72 26.89C175.74 25.45 177.56 23.53 179.1 21.32C178.14 17.9 177.53 13.42 177.21 8.36L159.32 8.36L159.32 6.44L167.03 6.44L167.03 3.72L160.95 3.72L160.95 1.8L167.03 1.8L167.03 -0.75L169.3 -0.75L169.3 1.8L174.93 1.8L174.93 3.72L169.3 3.72L169.3 6.44L177.14 6.44C177.02 4.17 176.95 1.74 176.95 -0.69L179.28 -0.69C179.25 1.8 179.28 4.21 179.39 6.44L187.8 6.44L187.8 8.36L179.51 8.36C179.74 12.33 180.18 15.82 180.76 18.64ZM134.1 5.23L141.17 5.23L141.17 6.44C140.92 20.59 140.7 25.23 139.71 26.6C139.13 27.43 138.55 27.72 137.59 27.82C136.73 27.95 135.25 27.95 133.85 27.85C133.78 27.14 133.56 26.12 133.14 25.45C134.61 25.58 135.99 25.58 136.57 25.58C137.08 25.61 137.4 25.52 137.62 25.07C138.36 24.17 138.64 19.82 138.87 7.57L134.04 7.57C133.75 16.14 132.67 23.78 128.35 28.46C127.99 27.95 127.13 27.18 126.55 26.82C130.52 22.64 131.48 15.57 131.74 7.57L127.32 7.57L127.32 5.23L131.8 5.23C131.83 3.4 131.83 1.55 131.83 -0.34L134.17 -0.34C134.17 1.55 134.14 3.4 134.1 5.23ZM182.68 -0.08C184.12 1.03 185.88 2.76 186.61 3.95L184.85 5.2C184.12 4.01 182.43 2.25 180.98 1L182.68 -0.08ZM-0.04 3.21L-0.04 0.97L27.32 0.97L27.32 3.21L14.61 3.21C14.04 4.53 13.4 5.9 12.82 7.02L24.25 7.02L24.25 21.8L21.75 21.8L21.75 9.23L5.46 9.23L5.46 21.87L3.1 21.87L3.1 7.02L10.42 7.02C10.93 5.9 11.51 4.46 11.89 3.21L-0.04 3.21ZM59.6 1.35L59.6 3.63L46.49 3.63C46.1 4.97 45.65 6.41 45.24 7.63L58.07 7.63L58.07 28.46L55.67 28.46L55.67 26.76L35.22 26.76L35.22 28.46L32.92 28.46L32.92 7.63L42.81 7.63C43.16 6.41 43.48 4.94 43.74 3.63L31.48 3.63L31.48 1.35L59.6 1.35ZM79.51 14.73L79.51 24.71L91.77 24.71L91.77 27.05L63.28 27.05L63.28 24.71L67.64 24.71L67.64 9.74L70.04 9.74L70.04 24.71L77.08 24.71L77.08 3.89L64.5 3.89L64.5 1.58L90.71 1.58L90.71 3.89L79.51 3.89L79.51 12.39L89.5 12.39L89.5 14.73L79.51 14.73ZM143.8 27.95L143.8 3.18L154.61 3.18L154.61 27.72L152.25 27.72L152.25 25.61L146.04 25.61L146.04 27.95L143.8 27.95ZM146.04 5.48L146.04 23.34L152.25 23.34L152.25 5.48L146.04 5.48ZM122.17 16.46L114.96 16.46L114.96 25.45L123.42 25.45L123.42 27.69L104.18 27.69L104.18 25.45L112.6 25.45L112.6 16.46L105.43 16.46L105.43 14.22L112.6 14.22L112.6 8.1L114.96 8.1L114.96 14.22L122.17 14.22L122.17 16.46ZM170.43 22.09C172.31 21.93 174.29 21.74 176.18 21.55L176.18 23.53C174.26 23.75 172.35 23.95 170.43 24.14L170.43 28.3L168.18 28.3L168.18 24.33C165.08 24.65 162.2 24.94 159.89 25.2L159.64 22.99C161.91 22.82 164.89 22.57 168.18 22.28L168.18 19.11L164.03 19.11C162.71 19.11 161.75 19.31 161.46 19.57C161.34 19.08 161.02 17.96 160.73 17.39C161.21 17.29 161.69 16.65 162.2 15.78C162.46 15.4 162.87 14.54 163.42 13.48L159.8 13.48L159.8 11.53L164.28 11.53C164.73 10.54 165.14 9.48 165.46 8.42L167.8 9.03C167.48 9.9 167.13 10.73 166.75 11.53L176.15 11.53L176.15 13.48L165.82 13.48C165.14 14.76 164.44 16.01 163.77 17.07L168.18 17.07L168.18 14.47L170.43 14.47L170.43 17.07L175.48 17.07L175.48 19.11L170.43 19.11L170.43 22.09ZM39.77 9.84L35.22 9.84L35.22 24.56L39.77 24.56L39.77 9.84ZM41.94 13.35L48.7 13.35L48.7 9.84L41.94 9.84L41.94 13.35ZM50.87 24.56L55.67 24.56L55.67 9.84L50.87 9.84L50.87 24.56ZM-0.78 26.54C11.03 24.14 12.38 20.39 12.38 16.97L12.38 11.25L14.78 11.25L14.78 17C14.78 21.35 13.02 25.77 0.67 28.46C0.41 27.95 -0.26 27.02 -0.78 26.54ZM41.94 18.89L48.7 18.89L48.7 15.31L41.94 15.31L41.94 18.89ZM25.72 28.56C23.39 26.76 18.64 24.1 14.93 22.44L16.28 20.81C19.92 22.41 24.76 24.91 27.19 26.67L25.72 28.56ZM48.7 20.85L41.94 20.85L41.94 24.56L48.7 24.56L48.7 20.85Z" fill="#11183C" fill-opacity="1.000000" fill-rule="evenodd"/>
</svg>
