<svg width="330.000000" height="16.000000" viewBox="0 0 330 16" fill="none" xmlns="http://www.w3.org/2000/svg" xmlns:xlink="http://www.w3.org/1999/xlink">
	<desc>
			Created with Pixso.
	</desc>
	<defs/>
	<rect id="Divider " width="94.000000" height="1.000000" transform="translate(0.000000 7.500000)" fill="#D7D9E4" fill-opacity="1.000000"/>
	<path id="Already have an account?" d="M138.61 1.22C139.08 1.93 139.61 2.89 139.81 3.49L138.81 3.88C138.62 3.28 138.13 2.29 137.67 1.56L138.61 1.22ZM208.61 1.22C209.08 1.93 209.61 2.89 209.81 3.49L208.81 3.88C208.62 3.28 208.13 2.29 207.67 1.56L208.61 1.22ZM163.16 4.15L163.33 4.1L163.97 4.26C163.75 6.78 163.26 8.77 162.5 10.32C163.18 10.9 163.75 11.45 164.13 11.95L163.43 12.8C163.09 12.35 162.57 11.82 161.98 11.29C161.22 12.51 160.23 13.42 159.07 14.06C158.93 13.79 158.64 13.42 158.42 13.23C159.51 12.69 160.46 11.81 161.19 10.6C160.47 9.97 159.68 9.4 158.95 8.91C159.28 7.9 159.62 6.53 159.93 5.11L158.64 5.11L158.64 4.15L160.11 4.15C160.31 3.17 160.47 2.17 160.57 1.29L161.59 1.36C161.47 2.23 161.33 3.2 161.13 4.15L163.16 4.15ZM181.77 9.58C182.51 8.78 183.12 7.93 183.6 7.03L184.53 7.41C183.9 8.6 183.07 9.7 182.09 10.7C182.62 12.17 183.25 13.06 183.95 13.06C184.33 13.06 184.5 12.35 184.58 10.56C184.81 10.78 185.17 11.02 185.46 11.12C185.27 13.43 184.91 14.1 183.85 14.1C182.75 14.1 181.91 13.12 181.27 11.48C180.35 12.29 179.36 13 178.31 13.54C178.15 13.29 177.86 12.94 177.59 12.71C178.77 12.14 179.92 11.37 180.91 10.45C180.58 9.29 180.31 7.9 180.13 6.39L176.84 6.39L176.84 8.63C177.67 8.45 178.52 8.26 179.34 8.08L179.42 9.02C178.56 9.23 177.69 9.43 176.84 9.62L176.84 12.73C176.84 13.4 176.67 13.71 176.24 13.88C175.8 14.04 175.05 14.07 173.91 14.07C173.86 13.79 173.68 13.32 173.52 13.02C174.42 13.06 175.24 13.05 175.48 13.04C175.73 13.04 175.82 12.97 175.82 12.71L175.82 9.87C174.77 10.1 173.76 10.34 172.92 10.52L172.62 9.47C173.47 9.33 174.6 9.09 175.82 8.84L175.82 6.39L172.82 6.39L172.82 5.39L175.82 5.39L175.82 3.17C174.95 3.34 174.07 3.48 173.24 3.59C173.18 3.34 173.04 2.97 172.9 2.72C174.87 2.43 177.12 1.95 178.43 1.46L179.18 2.31C178.51 2.55 177.69 2.78 176.84 2.96L176.84 5.39L180.04 5.39C179.92 4.12 179.86 2.78 179.85 1.4L180.91 1.4C180.91 2.8 180.97 4.15 181.08 5.39L185.2 5.39L185.2 6.39L181.19 6.39C181.33 7.58 181.53 8.65 181.77 9.58ZM131.94 1.45C132.81 1.84 133.98 2.47 134.59 2.9L133.98 3.76C133.41 3.31 132.27 2.64 131.37 2.2L131.94 1.45ZM201.94 1.45C202.81 1.84 203.98 2.47 204.59 2.9L203.98 3.76C203.41 3.31 202.27 2.64 201.37 2.2L201.94 1.45ZM117.8 1.47C118.63 1.91 119.76 2.56 120.34 2.98L119.73 3.82C119.16 3.39 118.05 2.69 117.21 2.21L117.8 1.47ZM104 1.5C104.75 2.2 105.72 3.17 106.18 3.8L105.33 4.45C104.89 3.81 103.97 2.79 103.2 2.06L104 1.5ZM182.62 1.65C183.42 2.34 184.4 3.32 184.85 3.98L184.01 4.58C183.59 3.92 182.64 2.92 181.82 2.2L182.62 1.65ZM125.98 2.76L123.25 2.76L123.25 3.39C123.25 4.71 122.8 6.25 120.76 7.23C120.63 7.02 120.26 6.62 120.07 6.47C121.92 5.6 122.24 4.41 122.24 3.36L122.24 1.78L127 1.78L127 4.85C127 5.25 127.04 5.39 127.28 5.39L128.48 5.39C128.71 5.39 129.04 5.37 129.24 5.31C129.27 5.62 129.29 6.04 129.34 6.32C129.15 6.39 128.81 6.4 128.51 6.4L127.21 6.4C126.2 6.4 125.98 5.97 125.98 4.82L125.98 2.76ZM199.2 8.82L199.2 9.73L196.54 9.73C196.1 10.66 195.47 11.4 194.68 11.99C196.3 12.41 197.77 12.84 198.87 13.26L198.01 14.07C196.87 13.61 195.33 13.11 193.57 12.66C192.01 13.43 189.94 13.84 187.3 14.06C187.21 13.75 187.04 13.37 186.88 13.15C189.01 13.02 190.71 12.76 192.09 12.27C190.99 12.01 189.83 11.76 188.65 11.54C189.1 11.05 189.61 10.4 190.08 9.73L186.79 9.73L186.79 8.82L190.7 8.82C190.98 8.4 191.23 7.98 191.41 7.59L187.7 7.59L187.7 3.99L190.8 3.99L190.8 2.82L187.02 2.82L187.02 1.89L198.97 1.89L198.97 2.82L195.04 2.82L195.04 3.99L198.39 3.99L198.39 7.59L191.89 7.59L192.52 7.75C192.34 8.08 192.13 8.46 191.91 8.82L199.2 8.82ZM155.87 6.79L157.37 6.79L157.37 7.8L155.87 7.8L155.87 12.8C155.87 13.4 155.73 13.7 155.35 13.88C154.97 14.04 154.34 14.07 153.32 14.07C153.27 13.79 153.11 13.34 152.98 13.08C153.71 13.11 154.38 13.11 154.56 13.09C154.78 13.08 154.84 13.01 154.84 12.8L154.84 7.8L152.59 7.8C152.51 9.87 152.14 12.35 150.98 14.1C150.83 13.89 150.41 13.51 150.2 13.39C151.23 11.78 151.52 9.65 151.58 7.8L150.15 7.8L150.15 12.74C150.15 13.32 150.01 13.61 149.65 13.78C149.26 13.95 148.66 13.96 147.69 13.96C147.65 13.7 147.48 13.28 147.36 13.02C148.04 13.04 148.68 13.04 148.88 13.02C149.08 13.02 149.15 12.95 149.15 12.74L149.15 7.8L147.16 7.8C147.06 9.89 146.65 12.38 145.37 14.16C145.21 13.93 144.82 13.54 144.61 13.43C145.77 11.81 146.08 9.66 146.17 7.8L144.62 7.8L144.62 6.79L146.19 6.79L146.19 2.2L150.15 2.2L150.15 6.79L151.61 6.79L151.61 2.2L155.87 2.2L155.87 6.79ZM225.87 6.79L227.37 6.79L227.37 7.8L225.87 7.8L225.87 12.8C225.87 13.4 225.73 13.7 225.35 13.88C224.97 14.04 224.34 14.07 223.32 14.07C223.27 13.79 223.11 13.34 222.98 13.08C223.71 13.11 224.38 13.11 224.56 13.09C224.78 13.08 224.84 13.01 224.84 12.8L224.84 7.8L222.59 7.8C222.51 9.87 222.14 12.35 220.98 14.1C220.83 13.89 220.41 13.51 220.2 13.39C221.23 11.78 221.52 9.65 221.58 7.8L220.15 7.8L220.15 12.74C220.15 13.32 220.01 13.61 219.65 13.78C219.26 13.95 218.66 13.96 217.69 13.96C217.65 13.7 217.48 13.28 217.36 13.02C218.04 13.04 218.68 13.04 218.88 13.02C219.08 13.02 219.15 12.95 219.15 12.74L219.15 7.8L217.16 7.8C217.06 9.89 216.65 12.38 215.37 14.16C215.21 13.93 214.82 13.54 214.61 13.43C215.77 11.81 216.08 9.66 216.17 7.8L214.62 7.8L214.62 6.79L216.19 6.79L216.19 2.2L220.15 2.2L220.15 6.79L221.61 6.79L221.61 2.2L225.87 2.2L225.87 6.79ZM111.12 12.04L110.06 12.04L110.06 6.33C109.08 7.56 107.95 8.63 106.74 9.44C106.6 9.23 106.2 8.81 105.96 8.61C107.96 7.38 109.68 5.49 110.81 3.26L106.57 3.26L106.57 2.24L114.93 2.24L114.93 3.26L111.98 3.26C111.71 3.8 111.45 4.31 111.12 4.81L111.12 12.04ZM168.3 7.18L171.38 7.18L171.38 8.18L168.3 8.18L168.3 12.83C168.3 13.44 168.15 13.74 167.71 13.9C167.28 14.06 166.61 14.09 165.53 14.07C165.46 13.78 165.29 13.37 165.14 13.08C165.96 13.11 166.73 13.11 166.94 13.09C167.17 13.09 167.25 13.02 167.25 12.83L167.25 8.18L164.01 8.18L164.01 7.18L167.25 7.18L167.25 5.59C167.96 5 168.72 4.09 169.29 3.28L164.63 3.28L164.63 2.31L170.01 2.31L170.25 2.26L170.96 2.78C170.27 3.81 169.28 4.99 168.3 5.84L168.3 7.18ZM194.04 2.82L191.79 2.82L191.79 3.99L194.04 3.99L194.04 2.82ZM147.19 6.48L147.19 6.79L149.15 6.79L149.15 3.17L147.19 3.17L147.19 6.48ZM152.62 6.5L152.62 6.79L154.84 6.79L154.84 3.17L152.62 3.17L152.62 6.5ZM217.19 6.48L217.19 6.79L219.15 6.79L219.15 3.17L217.19 3.17L217.19 6.48ZM222.62 6.5L222.62 6.79L224.84 6.79L224.84 3.17L222.62 3.17L222.62 6.5ZM139.42 9.05L139.42 12.65L143.39 12.65L143.39 13.64L134.25 13.64L134.25 12.65L138.34 12.65L138.34 9.05L135.23 9.05L135.23 8.05L138.34 8.05L138.34 4.93L134.67 4.93L134.67 3.94L143.07 3.94L143.07 4.93L139.42 4.93L139.42 8.05L142.57 8.05L142.57 9.05L139.42 9.05ZM209.42 9.05L209.42 12.65L213.39 12.65L213.39 13.64L204.25 13.64L204.25 12.65L208.34 12.65L208.34 9.05L205.23 9.05L205.23 8.05L208.34 8.05L208.34 4.93L204.67 4.93L204.67 3.94L213.07 3.94L213.07 4.93L209.42 4.93L209.42 8.05L212.57 8.05L212.57 9.05L209.42 9.05ZM190.8 4.85L188.7 4.85L188.7 6.74L190.8 6.74L190.8 4.85ZM191.79 4.85L191.79 6.74L194.04 6.74L194.04 4.85L191.79 4.85ZM197.36 6.74L197.36 4.85L195.04 4.85L195.04 6.74L197.36 6.74ZM161.69 9.66C162.26 8.42 162.68 6.9 162.88 5.11L160.92 5.11C160.67 6.33 160.37 7.51 160.08 8.5C160.63 8.85 161.17 9.24 161.69 9.66ZM117.1 5.21C117.94 5.62 119.1 6.23 119.69 6.64L119.1 7.49C118.53 7.07 117.4 6.42 116.53 5.98L117.1 5.21ZM131.2 5.27C132.05 5.66 133.2 6.28 133.79 6.68L133.2 7.56C132.64 7.12 131.51 6.47 130.62 6.04L131.2 5.27ZM201.2 5.27C202.05 5.66 203.2 6.28 203.79 6.68L203.2 7.56C202.64 7.12 201.51 6.47 200.62 6.04L201.2 5.27ZM114.44 9.41C113.8 8.59 112.47 7.2 111.46 6.19L112.19 5.57C113.2 6.54 114.55 7.89 115.21 8.67L114.44 9.41ZM102.62 6L105.5 6L105.5 11.44C105.78 11.62 106.07 11.89 106.56 12.2C107.48 12.79 108.7 12.9 110.33 12.9C112.06 12.9 114.19 12.77 115.58 12.6C115.45 12.9 115.27 13.44 115.25 13.76C114.26 13.82 111.7 13.92 110.31 13.92C108.48 13.92 107.31 13.75 106.29 13.14C105.72 12.74 105.24 12.25 104.93 12.25C104.49 12.25 103.84 13.14 103.17 14.1L102.4 13.11C103.14 12.25 103.86 11.61 104.47 11.36L104.47 7.02L102.62 7.02L102.62 6ZM127.49 7.42L127.68 7.38L128.37 7.69C127.78 9.37 126.78 10.67 125.53 11.67C126.64 12.34 127.98 12.84 129.45 13.11C129.23 13.34 128.92 13.78 128.78 14.07C127.2 13.71 125.78 13.12 124.62 12.31C123.33 13.14 121.83 13.7 120.28 14.06C120.17 13.78 119.93 13.34 119.75 13.11C121.18 12.84 122.56 12.35 123.76 11.65C122.76 10.8 121.96 9.73 121.39 8.5L121.67 8.4L120.78 8.4L120.78 7.42L127.49 7.42ZM124.65 11.06C125.6 10.35 126.4 9.47 126.94 8.4L122.42 8.4C122.94 9.43 123.7 10.32 124.65 11.06ZM116.96 13.19C117.68 12.11 118.7 10.28 119.45 8.73L120.21 9.37C119.52 10.82 118.6 12.57 117.83 13.86L116.96 13.19ZM131.04 13.2C131.8 12.15 132.88 10.31 133.69 8.73L134.45 9.41C133.7 10.88 132.73 12.62 131.91 13.92L131.04 13.2ZM201.04 13.2C201.8 12.15 202.88 10.31 203.69 8.73L204.45 9.41C203.7 10.88 202.73 12.62 201.91 13.92L201.04 13.2ZM193.42 11.67C194.28 11.18 194.93 10.54 195.41 9.73L191.29 9.73C190.98 10.18 190.64 10.63 190.35 10.99C191.39 11.2 192.42 11.44 193.42 11.67Z" fill="#11183C" fill-opacity="1.000000" fill-rule="evenodd"/>
	<rect id="Divider " width="94.000000" height="1.000000" transform="translate(236.000000 7.500000)" fill="#D7D9E4" fill-opacity="1.000000"/>
</svg>
