<svg width="322.000000" height="287.000000" viewBox="0 0 322 287" fill="none" xmlns="http://www.w3.org/2000/svg" xmlns:xlink="http://www.w3.org/1999/xlink">
	<desc>
			Created with Pixso.
	</desc>
	<defs>
		<clipPath id="clip2_2312">
			<rect id="7363253-02 1" width="198.000000" height="193.000000" transform="translate(60.000000 24.000000)" fill="white" fill-opacity="0"/>
		</clipPath>
		<clipPath id="clip2_2281">
			<rect id="illustration" width="322.000000" height="287.000000" fill="white" fill-opacity="0"/>
		</clipPath>
		<linearGradient x1="68.938766" y1="155.277161" x2="251.543015" y2="155.277161" id="paint_linear_2_2293_0" gradientUnits="userSpaceOnUse">
			<stop stop-color="#0BB8E8"/>
			<stop offset="1.000000" stop-color="#00DCF8"/>
		</linearGradient>
		<linearGradient x1="46.530403" y1="155.368195" x2="278.967957" y2="155.368195" id="paint_linear_2_2296_0" gradientUnits="userSpaceOnUse">
			<stop stop-color="#0BB8E8"/>
			<stop offset="1.000000" stop-color="#00DCF8"/>
		</linearGradient>
		<linearGradient x1="86.565681" y1="151.031281" x2="244.144501" y2="151.031281" id="paint_linear_2_2299_0" gradientUnits="userSpaceOnUse">
			<stop stop-color="#0BB8E8"/>
			<stop offset="1.000000" stop-color="#00DCF8"/>
		</linearGradient>
		<linearGradient x1="38.149918" y1="206.349869" x2="46.769833" y2="206.349869" id="paint_linear_2_2301_0" gradientUnits="userSpaceOnUse">
			<stop stop-color="#0BB8E8"/>
			<stop offset="1.000000" stop-color="#00DCF8"/>
		</linearGradient>
		<linearGradient x1="280.159912" y1="69.699471" x2="288.779816" y2="69.699471" id="paint_linear_2_2303_0" gradientUnits="userSpaceOnUse">
			<stop stop-color="#0BB8E8"/>
			<stop offset="1.000000" stop-color="#00DCF8"/>
		</linearGradient>
		<linearGradient x1="70.540039" y1="217.479950" x2="72.739998" y2="217.479950" id="paint_linear_2_2305_0" gradientUnits="userSpaceOnUse">
			<stop stop-color="#0BB8E8"/>
			<stop offset="1.000000" stop-color="#00DCF8"/>
		</linearGradient>
		<linearGradient x1="264.919922" y1="155.389999" x2="267.119873" y2="155.389999" id="paint_linear_2_2309_0" gradientUnits="userSpaceOnUse">
			<stop stop-color="#0BB8E8"/>
			<stop offset="1.000000" stop-color="#00DCF8"/>
		</linearGradient>
		<linearGradient x1="280.149902" y1="104.299911" x2="282.349884" y2="104.299911" id="paint_linear_2_2311_0" gradientUnits="userSpaceOnUse">
			<stop stop-color="#0BB8E8"/>
			<stop offset="1.000000" stop-color="#00DCF8"/>
		</linearGradient>
		<linearGradient x1="132.744263" y1="131.779602" x2="212.208359" y2="131.779602" id="paint_linear_2_2315_0" gradientUnits="userSpaceOnUse">
			<stop stop-color="#0BB8E8"/>
			<stop offset="1.000000" stop-color="#00DCF8"/>
		</linearGradient>
		<linearGradient x1="269.165680" y1="24.257938" x2="291.733612" y2="24.257938" id="paint_linear_10_5468_0" gradientUnits="userSpaceOnUse">
			<stop stop-color="#0BB8E8"/>
			<stop offset="1.000000" stop-color="#00DCF8"/>
		</linearGradient>
		<linearGradient x1="262.151581" y1="267.628296" x2="268.636993" y2="258.506439" id="paint_linear_10_5525_0" gradientUnits="userSpaceOnUse">
			<stop stop-color="#0BB8E8"/>
			<stop offset="1.000000" stop-color="#00DCF8"/>
		</linearGradient>
		<linearGradient x1="38.120762" y1="51.291336" x2="48.690601" y2="59.334328" id="paint_linear_10_5536_0" gradientUnits="userSpaceOnUse">
			<stop stop-color="#0BB8E8"/>
			<stop offset="1.000000" stop-color="#00DCF8"/>
		</linearGradient>
	</defs>
	<rect id="illustration" width="322.000000" height="287.000000" fill="#FFFFFF" fill-opacity="0"/>
	<g clip-path="url(#clip2_2281)">
		<path id="Vector" d="M230.89 55.51L162.87 30.46L95.51 55.18C86.91 59.35 79.37 61.84 79.37 70.06L79.37 110.98C79.37 139.39 86.63 167.54 101.57 192.39C114.13 213.3 133.59 234.84 163.53 248.53C191.07 239.36 211.62 214.9 224.19 193.99C239.12 169.14 246.38 140.98 246.38 112.58L246.38 75.78C246.37 64.05 240.32 58.33 230.89 55.51Z" fill="#D7D9E4" fill-opacity="1.000000" fill-rule="evenodd"/>
		<g opacity="0.800000">
			<path id="Vector" d="M230.89 55.51L162.87 30.46L95.51 55.18C86.91 59.35 79.37 61.84 79.37 70.06L79.37 110.98C79.37 139.39 86.63 167.54 101.57 192.39C114.13 213.3 133.59 234.84 163.53 248.53C191.07 239.36 211.62 214.9 224.19 193.99C239.12 169.14 246.38 140.98 246.38 112.58L246.38 75.78C246.37 64.05 240.32 58.33 230.89 55.51Z" fill="#D7D9E4" fill-opacity="1.000000" fill-rule="evenodd"/>
		</g>
		<path id="Vector" d="M246.96 232.66C246.96 232.66 247.23 232.28 247.77 231.57C247.91 231.39 248.06 231.19 248.23 230.97C248.38 230.74 248.52 230.47 248.69 230.18C249.02 229.6 249.43 228.95 249.72 228.12C249.88 227.71 250.07 227.29 250.23 226.83C250.36 226.36 250.5 225.87 250.64 225.35C250.81 224.84 250.89 224.28 250.98 223.7C251.06 223.12 251.21 222.52 251.23 221.88C251.5 219.34 251.34 216.38 250.83 213.11C249.82 206.55 247.03 198.82 242.77 190.42C238.52 182 232.66 172.95 225.47 163.52C218.27 154.08 209.62 144.33 199.67 134.53C189.71 124.76 178.44 114.94 165.8 105.63C159.48 100.98 152.81 96.48 145.78 92.23C138.75 87.98 131.35 84.01 123.54 80.57C115.73 77.17 107.49 74.22 98.8 72.81C94.47 72.14 90 71.82 85.61 72.49C83.42 72.83 81.26 73.42 79.24 74.34C77.24 75.31 75.41 76.61 73.89 78.25C72.43 79.94 71.35 81.91 70.6 84.01C69.93 86.13 69.57 88.34 69.49 90.55C69.32 94.99 70.15 99.4 71.31 103.63C73.69 112.11 77.57 119.96 81.83 127.34C86.14 134.71 90.92 141.62 95.95 148.11C100.97 154.61 106.21 160.73 111.54 166.48C122.23 177.98 133.27 188.06 144.12 196.84C154.98 205.61 165.65 213.1 175.85 219.17C186.04 225.24 195.7 230.03 204.55 233.3C213.38 236.58 221.37 238.46 228 238.72C231.31 238.85 234.27 238.68 236.76 238.12C237.39 238.03 237.97 237.8 238.54 237.66C239.11 237.51 239.65 237.36 240.14 237.13C240.64 236.93 241.11 236.74 241.57 236.56C242.01 236.35 242.4 236.11 242.79 235.9C243.58 235.52 244.18 235.04 244.71 234.64C244.97 234.44 245.23 234.27 245.44 234.09C245.64 233.9 245.82 233.72 245.98 233.57C246.62 232.97 246.96 232.66 246.96 232.66C246.96 232.66 246.64 232.99 246.01 233.63C245.85 233.79 245.67 233.97 245.47 234.16C245.26 234.34 245.01 234.52 244.74 234.72C244.21 235.12 243.61 235.61 242.82 236C242.44 236.21 242.04 236.45 241.6 236.67C241.15 236.86 240.67 237.05 240.17 237.26C239.68 237.49 239.13 237.64 238.56 237.8C237.99 237.95 237.41 238.18 236.77 238.27C234.27 238.85 231.29 239.04 227.97 238.92C221.31 238.69 213.28 236.83 204.42 233.57C195.54 230.32 185.86 225.55 175.64 219.49C165.41 213.42 154.72 205.94 143.83 197.18C132.96 188.4 121.89 178.32 111.17 166.81C105.82 161.05 100.57 154.92 95.54 148.42C90.5 141.92 85.7 134.99 81.38 127.6C77.1 120.2 73.2 112.32 70.8 103.77C69.64 99.51 68.79 95.06 68.96 90.54C69.04 88.28 69.41 86.03 70.1 83.85C70.86 81.7 71.99 79.66 73.49 77.91C75.06 76.21 76.96 74.87 79.01 73.87C81.09 72.93 83.3 72.32 85.53 71.98C90 71.3 94.52 71.63 98.88 72.31C107.64 73.73 115.91 76.7 123.75 80.11C131.58 83.56 139 87.54 146.03 91.81C153.08 96.07 159.75 100.59 166.09 105.25C178.74 114.58 190.02 124.43 199.98 134.24C209.93 144.06 218.58 153.83 225.77 163.3C232.96 172.76 238.8 181.85 243.04 190.3C247.28 198.73 250.05 206.49 251.04 213.09C251.53 216.38 251.69 219.36 251.4 221.91C251.38 222.55 251.21 223.15 251.13 223.74C251.04 224.32 250.95 224.88 250.77 225.4C250.62 225.92 250.48 226.42 250.35 226.89C250.18 227.35 249.99 227.77 249.82 228.18C249.52 229.01 249.1 229.66 248.76 230.24C248.59 230.52 248.45 230.8 248.29 231.03C248.12 231.25 247.96 231.45 247.82 231.62C247.25 232.31 246.96 232.66 246.96 232.66Z" fill="url(#paint_linear_2_2293_0)" fill-opacity="1.000000" fill-rule="evenodd"/>
		<path id="Vector" d="M278.97 155.39C278.97 155.39 278.92 154.92 278.85 154.03C278.82 153.82 278.81 153.57 278.79 153.28C278.75 153.02 278.67 152.72 278.6 152.39C278.47 151.75 278.34 150.99 278.01 150.17C277.85 149.77 277.72 149.33 277.54 148.88C277.32 148.44 277.1 147.98 276.85 147.5C276.64 147 276.34 146.53 276.01 146.03C275.69 145.55 275.41 145 275 144.5C273.51 142.42 271.42 140.33 268.85 138.23C263.74 134 256.51 130.09 247.75 126.66C238.97 123.21 228.58 120.35 216.93 118.1C205.28 115.85 192.33 114.33 178.39 113.65C164.45 112.98 149.5 113.16 133.87 114.62C126.06 115.36 118.08 116.44 110.01 117.95C101.94 119.45 93.77 121.42 85.64 124.05C77.56 126.72 69.43 129.99 62.02 134.73C58.34 137.11 54.79 139.85 51.96 143.27C50.55 144.98 49.34 146.86 48.42 148.89C47.59 150.95 47.08 153.14 47.04 155.37C47.08 157.6 47.58 159.8 48.41 161.85C49.33 163.88 50.53 165.76 51.95 167.47C54.78 170.9 58.33 173.63 62.01 176.02C69.42 180.76 77.55 184.04 85.64 186.71C93.76 189.34 101.93 191.31 110 192.81C118.07 194.32 126.05 195.4 133.86 196.14C149.49 197.6 164.44 197.78 178.38 197.11C192.32 196.43 205.27 194.91 216.92 192.66C228.57 190.41 238.96 187.55 247.74 184.1C256.51 180.67 263.73 176.75 268.85 172.53C271.41 170.43 273.5 168.33 274.99 166.25C275.4 165.76 275.68 165.21 276.01 164.72C276.32 164.23 276.64 163.75 276.85 163.25C277.09 162.78 277.32 162.32 277.53 161.88C277.71 161.42 277.85 160.99 278 160.58C278.32 159.77 278.46 159 278.6 158.36C278.67 158.03 278.74 157.74 278.78 157.47C278.79 157.19 278.82 156.94 278.84 156.72C278.92 155.84 278.97 155.39 278.97 155.39C278.97 155.39 278.96 155.85 278.9 156.74C278.89 156.97 278.87 157.22 278.85 157.49C278.82 157.77 278.74 158.06 278.68 158.39C278.54 159.03 278.43 159.81 278.1 160.63C277.95 161.03 277.82 161.49 277.64 161.94C277.43 162.38 277.2 162.85 276.97 163.33C276.75 163.83 276.45 164.31 276.13 164.81C275.79 165.3 275.51 165.86 275.1 166.35C273.63 168.45 271.53 170.57 268.98 172.69C263.85 176.95 256.63 180.91 247.85 184.37C239.06 187.85 228.66 190.74 217 193.02C205.33 195.3 192.37 196.84 178.41 197.54C164.45 198.23 149.48 198.07 133.82 196.62C125.99 195.88 118 194.81 109.91 193.3C101.82 191.8 93.63 189.83 85.48 187.19C77.36 184.52 69.21 181.23 61.73 176.45C58.02 174.04 54.42 171.28 51.55 167.8C50.11 166.06 48.88 164.13 47.95 162.05C47.09 159.94 46.57 157.67 46.53 155.36C46.57 153.05 47.09 150.78 47.96 148.67C48.89 146.58 50.13 144.66 51.57 142.92C54.46 139.44 58.05 136.67 61.75 134.28C69.23 129.5 77.38 126.22 85.5 123.55C93.64 120.91 101.83 118.94 109.92 117.44C118.01 115.93 126 114.86 133.83 114.12C149.48 112.67 164.46 112.51 178.41 113.2C192.37 113.9 205.33 115.44 217 117.72C228.66 120 239.07 122.89 247.86 126.37C256.64 129.84 263.87 133.78 268.99 138.05C271.54 140.17 273.64 142.28 275.13 144.39C275.54 144.88 275.82 145.44 276.15 145.92C276.47 146.42 276.76 146.91 276.99 147.41C277.23 147.89 277.45 148.36 277.66 148.8C277.84 149.25 277.98 149.7 278.12 150.11C278.45 150.92 278.57 151.69 278.7 152.35C278.76 152.67 278.84 152.97 278.87 153.25C278.89 153.53 278.9 153.78 278.92 154C278.96 154.92 278.97 155.39 278.97 155.39Z" fill="url(#paint_linear_2_2296_0)" fill-opacity="1.000000" fill-rule="evenodd"/>
		<path id="Vector" d="M236.56 59.2C236.56 59.2 236.17 58.96 235.42 58.47C235.23 58.35 235.02 58.21 234.79 58.06C234.55 57.92 234.27 57.8 233.97 57.66C233.37 57.37 232.69 57.01 231.85 56.78C231.43 56.65 231 56.49 230.53 56.36C230.05 56.26 229.55 56.16 229.02 56.05C228.5 55.92 227.94 55.87 227.35 55.82C226.76 55.78 226.16 55.67 225.52 55.69C222.97 55.59 220.02 55.96 216.8 56.7C210.32 58.16 202.81 61.47 194.72 66.3C186.62 71.12 177.99 77.59 169.07 85.41C160.14 93.24 151.02 102.54 141.94 113.14C132.87 123.75 123.85 135.67 115.43 148.92C111.23 155.55 107.19 162.5 103.44 169.82C99.68 177.12 96.23 184.78 93.34 192.81C90.49 200.84 88.11 209.26 87.31 218.03C86.94 222.4 86.93 226.88 87.89 231.22C88.38 233.38 89.12 235.49 90.17 237.45C91.28 239.37 92.7 241.12 94.44 242.52C96.23 243.86 98.27 244.81 100.41 245.4C102.57 245.92 104.8 246.13 107.02 246.06C111.46 245.92 115.8 244.79 119.94 243.35C128.23 240.39 135.8 235.98 142.87 231.22C149.92 226.42 156.49 221.17 162.62 215.71C168.76 210.26 174.5 204.61 179.87 198.89C190.6 187.44 199.9 175.72 207.91 164.3C215.91 152.86 222.64 141.7 228 131.11C233.36 120.52 237.47 110.56 240.12 101.51C242.78 92.48 244.11 84.37 243.91 77.74C243.81 74.43 243.44 71.49 242.71 69.04C242.58 68.42 242.31 67.86 242.13 67.3C241.94 66.74 241.75 66.21 241.49 65.74C241.26 65.26 241.03 64.79 240.82 64.36C240.58 63.94 240.31 63.56 240.08 63.19C239.64 62.43 239.12 61.86 238.7 61.36C238.48 61.11 238.3 60.87 238.1 60.67C237.89 60.48 237.71 60.32 237.54 60.16C236.89 59.52 236.56 59.2 236.56 59.2C236.56 59.2 236.91 59.49 237.59 60.08C237.76 60.23 237.95 60.39 238.16 60.58C238.36 60.78 238.55 61.02 238.77 61.27C239.2 61.77 239.74 62.34 240.18 63.1C240.42 63.47 240.69 63.85 240.93 64.26C241.15 64.71 241.38 65.17 241.62 65.66C241.88 66.14 242.08 66.67 242.27 67.23C242.46 67.79 242.73 68.35 242.86 68.98C243.61 71.44 244 74.39 244.12 77.71C244.35 84.37 243.04 92.51 240.41 101.57C237.78 110.65 233.69 120.64 228.34 131.25C222.99 141.88 216.27 153.07 208.27 164.53C200.26 175.98 190.96 187.72 180.22 199.2C174.84 204.93 169.1 210.59 162.95 216.06C156.81 221.54 150.23 226.8 143.16 231.62C136.07 236.4 128.48 240.83 120.12 243.81C115.95 245.27 111.57 246.41 107.04 246.56C104.78 246.63 102.51 246.42 100.29 245.88C98.09 245.27 95.98 244.29 94.13 242.9C92.33 241.45 90.86 239.65 89.72 237.67C88.64 235.66 87.88 233.5 87.39 231.3C86.41 226.88 86.43 222.36 86.8 217.96C87.61 209.12 90.01 200.67 92.87 192.62C95.77 184.57 99.23 176.89 103.01 169.58C106.77 162.25 110.82 155.28 115.03 148.64C123.47 135.39 132.52 123.46 141.61 112.85C150.72 102.25 159.88 92.95 168.83 85.12C177.78 77.3 186.44 70.84 194.57 66.03C202.69 61.21 210.24 57.92 216.75 56.48C220 55.76 222.96 55.4 225.52 55.52C226.16 55.5 226.77 55.62 227.36 55.66C227.95 55.71 228.51 55.77 229.04 55.9C229.57 56.01 230.07 56.12 230.55 56.22C231.02 56.36 231.46 56.52 231.87 56.66C232.72 56.9 233.4 57.28 233.99 57.57C234.29 57.72 234.57 57.85 234.81 57.99C235.04 58.15 235.25 58.29 235.43 58.42C236.19 58.93 236.56 59.2 236.56 59.2Z" fill="url(#paint_linear_2_2299_0)" fill-opacity="1.000000" fill-rule="evenodd"/>
		<path id="Vector" d="M45.51 203.3C47.18 204.98 47.18 207.71 45.51 209.4C43.82 211.08 41.09 211.08 39.4 209.4C37.73 207.72 37.73 204.99 39.4 203.3C41.09 201.62 43.82 201.62 45.51 203.3Z" fill="url(#paint_linear_2_2301_0)" fill-opacity="1.000000" fill-rule="evenodd"/>
		<path id="Vector" d="M288.78 69.69C288.78 72.07 286.85 74 284.47 74C282.09 74 280.16 72.07 280.16 69.69C280.16 67.31 282.09 65.38 284.47 65.38C286.85 65.38 288.78 67.3 288.78 69.69Z" fill="url(#paint_linear_2_2303_0)" fill-opacity="1.000000" fill-rule="evenodd"/>
		<path id="Vector" d="M72.74 217.48C72.74 218.09 72.25 218.58 71.64 218.58C71.03 218.58 70.54 218.09 70.54 217.48C70.54 216.87 71.03 216.38 71.64 216.38C72.25 216.38 72.74 216.87 72.74 217.48Z" fill="url(#paint_linear_2_2305_0)" fill-opacity="1.000000" fill-rule="evenodd"/>
		<path id="Vector" d="M96.12 96.65C96.12 97.26 95.63 97.75 95.03 97.75C94.41 97.75 93.92 97.26 93.92 96.65C93.92 96.04 94.41 95.55 95.03 95.55C95.63 95.55 96.12 96.04 96.12 96.65Z" fill="#2F66F6" fill-opacity="1.000000" fill-rule="evenodd"/>
		<path id="Vector" d="M267.12 155.39C267.12 156 266.63 156.49 266.01 156.49C265.41 156.49 264.92 156 264.92 155.39C264.92 154.78 265.41 154.28 266.01 154.28C266.63 154.28 267.12 154.78 267.12 155.39Z" fill="url(#paint_linear_2_2309_0)" fill-opacity="1.000000" fill-rule="evenodd"/>
		<path id="Vector" d="M282.35 104.3C282.35 104.91 281.85 105.4 281.25 105.4C280.64 105.4 280.15 104.91 280.15 104.3C280.15 103.69 280.64 103.2 281.25 103.2C281.85 103.21 282.35 103.7 282.35 104.3Z" fill="url(#paint_linear_2_2311_0)" fill-opacity="1.000000" fill-rule="evenodd"/>
		<rect id="7363253-02 1" width="198.000000" height="193.000000" transform="translate(60.000000 24.000000)" fill="#FFFFFF" fill-opacity="0"/>
		<g clip-path="url(#clip2_2312)">
			<path id="Vector" d="M160.6 89.15C135.84 89.15 115.75 109.77 115.75 135.21C115.75 160.64 135.83 181.27 160.6 181.27C185.36 181.27 205.45 160.65 205.45 135.21C205.45 109.77 185.37 89.15 160.6 89.15ZM160.6 174.37C139.55 174.37 122.47 156.84 122.47 135.21C122.47 113.59 139.53 96.05 160.6 96.05C181.65 96.05 198.73 113.57 198.73 135.21C198.73 156.83 181.66 174.37 160.6 174.37Z" fill="#97D0F1" fill-opacity="1.000000" fill-rule="evenodd"/>
			<path id="Vector" d="M160.81 161.81C158.93 161.81 157.13 161.04 155.8 159.68L134.82 138.13C132.05 135.28 132.05 130.67 134.82 127.83C137.59 124.98 142.07 124.98 144.84 127.83L160.81 144.23L200.1 103.87C202.87 101.03 207.36 101.03 210.13 103.87C212.9 106.72 212.9 111.33 210.13 114.17L165.83 159.67C164.5 161.05 162.69 161.81 160.81 161.81Z" fill="url(#paint_linear_2_2315_0)" fill-opacity="1.000000" fill-rule="evenodd"/>
		</g>
		<g opacity="0.800000">
			<ellipse id="ellipse" cx="282.374268" cy="21.716553" rx="20.580111" ry="21.716543" fill="#19397F" fill-opacity="1.000000"/>
			<ellipse id="ellipse" cx="282.374268" cy="21.716553" rx="20.580111" ry="21.716543" fill="#000000" fill-opacity="0"/>
			<ellipse id="ellipse" cx="279.904053" cy="22.205200" rx="18.576921" ry="21.473602" fill="#192346" fill-opacity="1.000000"/>
			<path id="path" d="M279.9 44.01C269.48 44.01 261 34.23 261 22.2C261 10.17 269.48 0.39 279.9 0.39C290.32 0.39 298.8 10.17 298.8 22.2C298.8 34.23 290.32 44.01 279.9 44.01ZM279.9 1.06C269.84 1.06 261.65 10.55 261.65 22.2C261.65 33.85 269.84 43.34 279.9 43.34C289.96 43.34 298.15 33.85 298.15 22.2C298.15 10.55 289.96 1.06 279.9 1.06Z" fill="#7C95CE" fill-opacity="1.000000" fill-rule="nonzero"/>
			<path id="path" d="M291.73 17.8L291.73 13.81C291.73 13.22 291.32 12.74 290.81 12.74L270.09 12.74C269.57 12.74 269.16 13.22 269.16 13.81L269.16 17.8C269.16 18.39 269.57 18.87 270.09 18.87L274.38 18.87C274.89 18.87 275.3 19.35 275.3 19.94L275.3 22.69C275.3 23.28 275.71 23.75 276.22 23.75L281 23.75C281.51 23.75 281.92 24.23 281.92 24.82L281.92 28.28C281.92 28.87 281.51 29.35 281 29.35L276.23 29.35C275.72 29.35 275.3 29.83 275.3 30.42L275.3 34.69C275.3 35.28 275.72 35.76 276.23 35.76L281.28 35.76C281.79 35.76 282.21 35.28 282.21 34.69L282.21 30.81C282.21 30.22 282.62 29.74 283.13 29.74L284.67 29.74C285.18 29.74 285.59 29.26 285.59 28.67L285.59 24.39C285.59 23.8 285.18 23.33 284.67 23.33L283.13 23.33C282.62 23.33 282.21 22.85 282.21 22.26L282.21 19.94C282.21 19.35 282.62 18.87 283.13 18.87L290.81 18.87C291.32 18.87 291.73 18.39 291.73 17.8Z" fill="url(#paint_linear_10_5468_0)" fill-opacity="1.000000" fill-rule="nonzero"/>
		</g>
		<g opacity="0.600000">
			<ellipse id="ellipse" rx="10.206532" ry="10.770137" transform="matrix(0.57945 -0.815007 0.815007 0.57945 264.92 261.559)" fill="#19397F" fill-opacity="1.000000"/>
			<ellipse id="ellipse" rx="10.206532" ry="10.770137" transform="matrix(0.57945 -0.815007 0.815007 0.57945 264.92 261.559)" fill="#000000" fill-opacity="0"/>
			<ellipse id="ellipse" rx="9.213068" ry="10.649652" transform="matrix(0.57945 -0.815007 0.815007 0.57945 264.408 262.698)" fill="#192346" fill-opacity="1.000000"/>
			<path id="path" d="M273.22 268.96C270.22 273.17 263.83 273.79 258.97 270.33C254.11 266.88 252.59 260.64 255.59 256.43C258.58 252.21 264.97 251.6 269.84 255.05C274.7 258.51 276.21 264.75 273.22 268.96ZM255.86 256.62C252.97 260.69 254.45 266.72 259.16 270.07C263.87 273.42 270.05 272.83 272.95 268.77C275.84 264.7 274.36 258.67 269.65 255.32C264.94 251.97 258.75 252.55 255.86 256.62Z" fill="#7C95CE" fill-opacity="1.000000" fill-rule="nonzero"/>
			<path id="path" d="M266.03 256.65L264.41 255.5C264.17 255.33 263.86 255.36 263.71 255.57L257.76 263.94C257.61 264.15 257.69 264.45 257.93 264.62L259.54 265.77C259.78 265.94 260.09 265.91 260.24 265.7L261.47 263.97C261.62 263.76 261.93 263.73 262.17 263.9L263.28 264.69C263.52 264.86 263.83 264.83 263.97 264.63L265.35 262.7C265.49 262.49 265.8 262.46 266.04 262.63L267.44 263.62C267.68 263.79 267.75 264.1 267.61 264.3L266.24 266.23C266.09 266.44 266.16 266.74 266.4 266.91L268.13 268.14C268.37 268.31 268.68 268.28 268.83 268.07L270.28 266.03C270.43 265.82 270.35 265.52 270.12 265.35L268.54 264.23C268.31 264.06 268.23 263.76 268.38 263.55L268.82 262.93C268.97 262.73 268.89 262.42 268.65 262.25L266.92 261.02C266.69 260.85 266.37 260.88 266.23 261.09L265.79 261.71C265.64 261.92 265.33 261.95 265.09 261.78L264.15 261.11C263.91 260.94 263.84 260.64 263.99 260.43L266.19 257.33C266.34 257.12 266.26 256.82 266.03 256.65Z" fill="url(#paint_linear_10_5525_0)" fill-opacity="1.000000" fill-rule="nonzero"/>
		</g>
		<g opacity="0.400000">
			<ellipse id="ellipse" rx="12.112094" ry="12.780925" transform="matrix(0.795802 0.605556 -0.605556 0.795802 45.2131 54.8086)" fill="#19397F" fill-opacity="1.000000"/>
			<ellipse id="ellipse" rx="12.112094" ry="12.780925" transform="matrix(0.795802 0.605556 -0.605556 0.795802 45.2131 54.8086)" fill="#000000" fill-opacity="0"/>
			<ellipse id="ellipse" rx="10.933150" ry="12.637946" transform="matrix(0.795802 0.605556 -0.605556 0.795802 43.8818 54.1569)" fill="#192346" fill-opacity="1.000000"/>
			<path id="path" d="M36.1 64.37C31.22 60.65 30.74 53.05 35.02 47.41C39.31 41.78 46.77 40.22 51.65 43.94C56.53 47.65 57.02 55.26 52.73 60.89C48.44 66.52 40.99 68.08 36.1 64.37ZM51.41 44.25C46.7 40.67 39.48 42.19 35.33 47.65C31.18 53.11 31.63 60.46 36.34 64.05C41.06 67.64 48.27 66.11 52.42 60.66C56.58 55.2 56.12 47.84 51.41 44.25Z" fill="#7C95CE" fill-opacity="1.000000" fill-rule="nonzero"/>
			<path id="path" d="M50.98 56.31L52.41 54.44C52.62 54.16 52.59 53.79 52.35 53.61L42.65 46.22C42.41 46.04 42.05 46.12 41.84 46.4L40.41 48.27C40.2 48.54 40.23 48.91 40.47 49.1L42.48 50.62C42.72 50.81 42.74 51.18 42.53 51.45L41.55 52.74C41.34 53.02 41.36 53.39 41.6 53.57L43.84 55.27C44.08 55.45 44.1 55.82 43.89 56.1L42.66 57.72C42.45 58 42.08 58.07 41.84 57.89L39.61 56.19C39.37 56.01 39.01 56.08 38.8 56.36L37.27 58.37C37.06 58.64 37.08 59.01 37.32 59.19L39.69 61C39.93 61.18 40.29 61.1 40.5 60.83L41.89 59.01C42.1 58.73 42.46 58.65 42.7 58.83L43.42 59.38C43.66 59.56 44.03 59.49 44.24 59.21L45.76 57.21C45.97 56.93 45.95 56.56 45.71 56.38L44.99 55.83C44.75 55.65 44.73 55.28 44.94 55L45.76 53.92C45.97 53.64 46.34 53.56 46.58 53.74L50.17 56.48C50.41 56.66 50.77 56.59 50.98 56.31Z" fill="url(#paint_linear_10_5536_0)" fill-opacity="1.000000" fill-rule="nonzero"/>
		</g>
	</g>
</svg>
