<svg width="56.000000" height="49.000000" viewBox="0 0 56 49" fill="none" xmlns="http://www.w3.org/2000/svg" xmlns:xlink="http://www.w3.org/1999/xlink">
	<desc>
			Created with Pixso.
	</desc>
	<defs>
		<linearGradient x1="-0.311190" y1="24.370081" x2="55.330185" y2="24.370081" id="paint_linear_60_729_0" gradientUnits="userSpaceOnUse">
			<stop stop-color="#0BB8E8"/>
			<stop offset="1.000000" stop-color="#00DCF8"/>
		</linearGradient>
	</defs>
	<path id="path" d="M55.33 10.61L55.33 2.09C55.33 0.83 54.31 -0.19 53.05 -0.19L1.96 -0.19C0.7 -0.19 -0.32 0.83 -0.32 2.09L-0.32 10.61C-0.32 11.87 0.7 12.89 1.96 12.89L12.54 12.89C13.8 12.89 14.82 13.91 14.82 15.17L14.82 21.02C14.82 22.28 15.84 23.3 17.1 23.3L28.86 23.3C30.12 23.3 31.14 24.32 31.14 25.58L31.14 32.96C31.14 34.22 30.12 35.24 28.86 35.24L17.1 35.24C15.84 35.24 14.82 36.26 14.82 37.51L14.82 46.64C14.82 47.9 15.84 48.92 17.1 48.92L29.57 48.92C30.83 48.92 31.85 47.9 31.85 46.64L31.85 38.35C31.85 37.09 32.87 36.07 34.13 36.07L37.91 36.07C39.17 36.07 40.19 35.05 40.19 33.79L40.19 24.67C40.19 23.41 39.17 22.39 37.91 22.39L34.13 22.39C32.87 22.39 31.85 21.37 31.85 20.11L31.85 15.17C31.85 13.91 32.87 12.89 34.13 12.89L53.05 12.89C54.31 12.89 55.33 11.87 55.33 10.61Z" fill="url(#paint_linear_60_729_0)" fill-opacity="1.000000" fill-rule="nonzero"/>
</svg>
