<svg width="49.000000" height="29.000000" viewBox="0 0 49 29" fill="none" xmlns="http://www.w3.org/2000/svg" xmlns:xlink="http://www.w3.org/1999/xlink">
	<desc>
			Created with Pixso.
	</desc>
	<defs/>
	<path id="Take hold of your finances" d="M39.96 16.68L39.96 12.42L37.05 12.42C35.84 12.42 34.91 12.62 34.62 12.88C34.49 12.42 34.17 11.4 33.88 10.86C34.4 10.7 34.88 9.87 35.39 8.71C35.64 8.17 36.25 6.79 36.83 5.07L33.53 5.07L33.53 3.02L37.5 3.02C37.85 1.77 38.2 0.46 38.46 -0.86L40.73 -0.37C40.41 0.75 40.06 1.9 39.67 3.02L47.61 3.02L47.61 5.07L38.97 5.07C38.23 6.99 37.44 8.85 36.6 10.41L39.96 10.41L39.96 6.6L42.11 6.6L42.11 10.41L46.81 10.41L46.78 12.42L42.11 12.42L42.11 16.68L47.48 16.68L47.48 18.76L42.11 18.76L42.11 24.21L39.96 24.21L39.96 18.76L33.82 18.76L33.82 16.68L39.96 16.68ZM28.02 2.89L28.02 4.97L21.95 4.97C21.21 6.64 20.34 8.14 19.42 9.32C19.23 8.81 18.59 7.72 18.23 7.21C19.77 5.26 20.98 2.28 21.69 -0.72L23.74 -0.18C23.52 0.85 23.16 1.9 22.78 2.89L28.02 2.89ZM30.4 0.49C31.42 2.22 32.51 4.53 33.02 6.03L30.97 6.83C30.49 5.29 29.44 2.89 28.48 1.17L30.4 0.49ZM6.17 6.92L6.17 26L9.63 26L9.63 6.92L16.09 6.92L16.09 3.6L-0.1 3.6L-0.1 6.92L6.17 6.92ZM24.63 17.45L24.63 23.6L27.42 21.77C27.58 22.32 27.87 23.14 28.13 23.57C23.35 26.89 22.59 27.5 22.14 28.07C21.88 27.6 21.27 26.76 20.89 26.41C21.47 25.96 22.43 24.88 22.43 23.37L22.43 17.45L18.84 17.45L18.84 15.37L22.43 15.37L22.43 10.86L19.96 10.86L19.96 8.81L27.45 8.81L27.45 10.86L24.63 10.86L24.63 15.37L28.16 15.37L28.16 17.45L24.63 17.45ZM27.58 10.54L32.8 10.54L32.8 22.86C33.41 23.11 34.01 23.66 34.94 24.24C36.48 25.23 38.33 25.52 40.86 25.52C42.84 25.52 46.04 25.39 48.19 25.1C47.93 25.77 47.61 26.92 47.61 27.6C45.95 27.69 42.72 27.78 40.8 27.78C38.11 27.78 36.22 27.34 34.52 26.28C33.44 25.52 32.54 24.75 31.9 24.75C31 24.75 29.66 26.41 28.45 28.14L26.91 25.96C28.16 24.62 29.47 23.5 30.62 22.96L30.62 12.75L27.58 12.75L27.58 10.54Z" fill="#11183C" fill-opacity="1.000000" fill-rule="evenodd"/>
</svg>
