<svg width="1537.000000" height="292.000000" viewBox="0 0 1537 292" fill="none" xmlns="http://www.w3.org/2000/svg" xmlns:xlink="http://www.w3.org/1999/xlink">
	<desc>
			Created with Pixso.
	</desc>
	<defs>
		<linearGradient x1="0.002441" y1="145.412109" x2="1535.986328" y2="145.412109" id="paint_linear_9_5340_0" gradientUnits="userSpaceOnUse">
			<stop stop-color="#0BB8E8"/>
			<stop offset="1.000000" stop-color="#00DCF8"/>
		</linearGradient>
	</defs>
	<g opacity="0.200000">
		<path id="Vector" d="M0 80.44C0 80.44 56.45 0.08 108 3.94C154.74 7.44 154.07 86.92 200.5 80.44C240.6 74.84 232.86 -11 270.5 3.94C292.95 12.85 281.6 51.36 305.5 54.94C332.41 58.96 327.2 12.61 353 3.94C406.71 -14.13 359.83 133.22 416.5 134.44C473.77 135.67 426.5 9.67 483.5 3.94C531.04 -0.85 531.39 76.31 579 80.44C632.57 85.08 640.85 -7.02 693.5 3.94C725.54 10.61 727.69 60.2 760 54.94C786.99 50.54 783.48 16.07 808 3.94C874.09 -28.78 873.24 153.45 944.5 134.44C1002.16 119.05 964.37 6.37 1024 3.94C1076.69 1.78 1066.76 107.27 1119.5 107.27C1172.24 107.27 1162.81 11.54 1215 3.94C1262.38 -2.97 1278.99 60.89 1326.5 54.94C1364.08 50.23 1371.15 2.64 1409 3.94C1444.88 5.17 1450.33 62.15 1485.5 54.94C1512.96 49.3 1536 3.94 1536 3.94M0 235.44C0 235.44 56.45 155.08 108 158.94C154.74 162.44 154.07 241.92 200.5 235.44C240.6 229.84 232.86 144 270.5 158.94C292.95 167.85 281.6 206.37 305.5 209.94C332.41 213.96 327.2 167.62 353 158.94C406.71 140.87 359.83 288.22 416.5 289.44C473.77 290.67 426.5 164.67 483.5 158.94C531.04 154.15 531.39 231.32 579 235.44C632.57 240.08 640.85 147.98 693.5 158.94C725.54 165.61 727.69 215.2 760 209.94C786.99 205.54 783.48 171.07 808 158.94C874.09 126.22 873.24 308.45 944.5 289.44C1002.16 274.05 964.37 161.37 1024 158.94C1076.69 156.78 1066.76 262.27 1119.5 262.27C1172.24 262.27 1162.81 166.54 1215 158.94C1262.38 152.03 1278.99 215.89 1326.5 209.94C1364.08 205.23 1371.15 157.64 1409 158.94C1444.88 160.17 1450.33 217.15 1485.5 209.94C1512.96 204.31 1536 158.94 1536 158.94M0 87.82C0 87.82 56.45 7.46 108 11.32C154.74 14.82 154.07 94.3 200.5 87.82C240.6 82.22 232.86 -3.62 270.5 11.32C292.95 20.23 281.6 58.75 305.5 62.32C332.41 66.34 327.2 20 353 11.32C406.71 -6.75 359.83 140.6 416.5 141.82C473.77 143.05 426.5 17.05 483.5 11.32C531.04 6.53 531.39 83.7 579 87.82C632.57 92.46 640.85 0.36 693.5 11.32C725.54 17.99 727.69 67.58 760 62.32C786.99 57.92 783.48 23.45 808 11.32C874.09 -21.4 873.24 160.83 944.5 141.82C1002.16 126.44 964.37 13.75 1024 11.32C1076.69 9.16 1066.76 114.65 1119.5 114.65C1172.24 114.65 1162.81 18.92 1215 11.32C1262.38 4.42 1278.99 68.27 1326.5 62.32C1364.08 57.61 1371.15 10.02 1409 11.32C1444.88 12.55 1450.33 69.53 1485.5 62.32C1512.96 56.69 1536 11.32 1536 11.32M0 95.2C0 95.2 56.45 14.84 108 18.7C154.74 22.2 154.07 101.68 200.5 95.2C240.6 89.6 232.86 3.76 270.5 18.7C292.95 27.61 281.6 66.13 305.5 69.7C332.41 73.72 327.2 27.38 353 18.7C406.71 0.63 359.83 147.98 416.5 149.2C473.77 150.43 426.5 24.43 483.5 18.7C531.04 13.92 531.39 91.08 579 95.2C632.57 99.84 640.85 7.74 693.5 18.7C725.54 25.37 727.69 74.96 760 69.7C786.99 65.3 783.48 30.83 808 18.7C874.09 -14.02 873.24 168.21 944.5 149.2C1002.16 133.82 964.37 21.14 1024 18.7C1076.69 16.54 1066.76 122.03 1119.5 122.03C1172.24 122.03 1162.81 26.3 1215 18.7C1262.38 11.8 1278.99 75.65 1326.5 69.7C1364.08 64.99 1371.15 17.4 1409 18.7C1444.88 19.93 1450.33 76.91 1485.5 69.7C1512.96 64.07 1536 18.7 1536 18.7M0 102.58C0 102.58 56.45 22.22 108 26.08C154.74 29.58 154.07 109.06 200.5 102.58C240.6 96.98 232.86 11.14 270.5 26.08C292.95 34.99 281.6 73.51 305.5 77.08C332.41 81.1 327.2 34.76 353 26.08C406.71 8.01 359.83 155.36 416.5 156.58C473.77 157.81 426.5 31.81 483.5 26.08C531.04 21.3 531.39 98.46 579 102.58C632.57 107.22 640.85 15.12 693.5 26.08C725.54 32.75 727.69 82.34 760 77.08C786.99 72.68 783.48 38.21 808 26.08C874.09 -6.64 873.24 175.59 944.5 156.58C1002.16 141.2 964.37 28.52 1024 26.08C1076.69 23.93 1066.76 129.41 1119.5 129.41C1172.24 129.41 1162.81 33.68 1215 26.08C1262.38 19.18 1278.99 83.04 1326.5 77.08C1364.08 72.37 1371.15 24.78 1409 26.08C1444.88 27.31 1450.33 84.29 1485.5 77.08C1512.96 71.45 1536 26.08 1536 26.08M0 109.96C0 109.96 56.45 29.6 108 33.46C154.74 36.96 154.07 116.44 200.5 109.96C240.6 104.36 232.86 18.52 270.5 33.46C292.95 42.37 281.6 80.89 305.5 84.46C332.41 88.49 327.2 42.14 353 33.46C406.71 15.39 359.83 162.75 416.5 163.96C473.77 165.19 426.5 39.2 483.5 33.46C531.04 28.68 531.39 105.84 579 109.96C632.57 114.6 640.85 22.5 693.5 33.46C725.54 40.13 727.69 89.72 760 84.46C786.99 80.06 783.48 45.59 808 33.46C874.09 0.75 873.24 182.97 944.5 163.96C1002.16 148.58 964.37 35.9 1024 33.46C1076.69 31.31 1066.76 136.79 1119.5 136.79C1172.24 136.79 1162.81 41.06 1215 33.46C1262.38 26.56 1278.99 90.42 1326.5 84.46C1364.08 79.75 1371.15 32.16 1409 33.46C1444.88 34.69 1450.33 91.68 1485.5 84.46C1512.96 78.83 1536 33.46 1536 33.46M0 117.34C0 117.34 56.45 36.98 108 40.84C154.74 44.34 154.07 123.82 200.5 117.34C240.6 111.74 232.86 25.9 270.5 40.84C292.95 49.75 281.6 88.27 305.5 91.84C332.41 95.87 327.2 49.52 353 40.84C406.71 22.77 359.83 170.13 416.5 171.34C473.77 172.57 426.5 46.58 483.5 40.84C531.04 36.06 531.39 113.22 579 117.34C632.57 121.98 640.85 29.88 693.5 40.84C725.54 47.51 727.69 97.1 760 91.84C786.99 87.45 783.48 52.97 808 40.84C874.09 8.13 873.24 190.35 944.5 171.34C1002.16 155.96 964.37 43.28 1024 40.84C1076.69 38.69 1066.76 144.17 1119.5 144.17C1172.24 144.17 1162.81 48.44 1215 40.84C1262.38 33.94 1278.99 97.8 1326.5 91.84C1364.08 87.13 1371.15 39.54 1409 40.84C1444.88 42.07 1450.33 99.06 1485.5 91.84C1512.96 86.21 1536 40.84 1536 40.84M0 124.72C0 124.72 56.45 44.36 108 48.22C154.74 51.72 154.07 131.21 200.5 124.72C240.6 119.12 232.86 33.28 270.5 48.22C292.95 57.13 281.6 95.65 305.5 99.22C332.41 103.25 327.2 56.9 353 48.22C406.71 30.15 359.83 177.51 416.5 178.72C473.77 179.95 426.5 53.96 483.5 48.22C531.04 43.44 531.39 120.6 579 124.72C632.57 129.36 640.85 37.27 693.5 48.22C725.54 54.89 727.69 104.48 760 99.22C786.99 94.83 783.48 60.36 808 48.22C874.09 15.51 873.24 197.73 944.5 178.72C1002.16 163.34 964.37 50.66 1024 48.22C1076.69 46.07 1066.76 151.56 1119.5 151.56C1172.24 151.56 1162.81 55.83 1215 48.22C1262.38 41.32 1278.99 105.18 1326.5 99.22C1364.08 94.51 1371.15 46.92 1409 48.22C1444.88 49.45 1450.33 106.44 1485.5 99.22C1512.96 93.59 1536 48.22 1536 48.22M0 132.1C0 132.1 56.45 51.75 108 55.6C154.74 59.1 154.07 138.59 200.5 132.1C240.6 126.5 232.86 40.66 270.5 55.6C292.95 64.51 281.6 103.03 305.5 106.6C332.41 110.63 327.2 64.28 353 55.6C406.71 37.53 359.83 184.89 416.5 186.1C473.77 187.33 426.5 61.34 483.5 55.6C531.04 50.82 531.39 127.98 579 132.1C632.57 136.74 640.85 44.65 693.5 55.6C725.54 62.27 727.69 111.86 760 106.6C786.99 102.21 783.48 67.74 808 55.6C874.09 22.89 873.24 205.11 944.5 186.1C1002.16 170.72 964.37 58.04 1024 55.6C1076.69 53.45 1066.76 158.94 1119.5 158.94C1172.24 158.94 1162.81 63.21 1215 55.6C1262.38 48.7 1278.99 112.56 1326.5 106.6C1364.08 101.89 1371.15 54.3 1409 55.6C1444.88 56.84 1450.33 113.82 1485.5 106.6C1512.96 100.97 1536 55.6 1536 55.6M0 139.49C0 139.49 56.45 59.13 108 62.98C154.74 66.48 154.07 145.97 200.5 139.49C240.6 133.89 232.86 48.05 270.5 62.98C292.95 71.9 281.6 110.41 305.5 113.99C332.41 118.01 327.2 71.66 353 62.98C406.71 44.91 359.83 192.27 416.5 193.49C473.77 194.71 426.5 68.72 483.5 62.98C531.04 58.2 531.39 135.36 579 139.49C632.57 144.12 640.85 52.03 693.5 62.98C725.54 69.65 727.69 119.25 760 113.99C786.99 109.59 783.48 75.12 808 62.98C874.09 30.27 873.24 212.5 944.5 193.49C1002.16 178.1 964.37 65.42 1024 62.98C1076.69 60.83 1066.76 166.32 1119.5 166.32C1172.24 166.32 1162.81 70.59 1215 62.98C1262.38 56.08 1278.99 119.94 1326.5 113.99C1364.08 109.27 1371.15 61.68 1409 62.98C1444.88 64.22 1450.33 121.2 1485.5 113.99C1512.96 108.35 1536 62.98 1536 62.98M0 146.87C0 146.87 56.45 66.51 108 70.37C154.74 73.86 154.07 153.35 200.5 146.87C240.6 141.27 232.86 55.43 270.5 70.37C292.95 79.28 281.6 117.79 305.5 121.37C332.41 125.39 327.2 79.04 353 70.37C406.71 52.29 359.83 199.65 416.5 200.87C473.77 202.1 426.5 76.1 483.5 70.37C531.04 65.58 531.39 142.74 579 146.87C632.57 151.5 640.85 59.41 693.5 70.37C725.54 77.03 727.69 126.63 760 121.37C786.99 116.97 783.48 82.5 808 70.37C874.09 37.65 873.24 219.88 944.5 200.87C1002.16 185.48 964.37 72.8 1024 70.37C1076.69 68.21 1066.76 173.7 1119.5 173.7C1172.24 173.7 1162.81 77.97 1215 70.37C1262.38 63.46 1278.99 127.32 1326.5 121.37C1364.08 116.66 1371.15 69.07 1409 70.37C1444.88 71.6 1450.33 128.58 1485.5 121.37C1512.96 115.73 1536 70.37 1536 70.37M0 154.25C0 154.25 56.45 73.89 108 77.75C154.74 81.25 154.07 160.73 200.5 154.25C240.6 148.65 232.86 62.81 270.5 77.75C292.95 86.66 281.6 125.17 305.5 128.75C332.41 132.77 327.2 86.42 353 77.75C406.71 59.68 359.83 207.03 416.5 208.25C473.77 209.48 426.5 83.48 483.5 77.75C531.04 72.96 531.39 150.12 579 154.25C632.57 158.89 640.85 66.79 693.5 77.75C725.54 84.41 727.69 134.01 760 128.75C786.99 124.35 783.48 89.88 808 77.75C874.09 45.03 873.24 227.26 944.5 208.25C1002.16 192.86 964.37 80.18 1024 77.75C1076.69 75.59 1066.76 181.08 1119.5 181.08C1172.24 181.08 1162.81 85.35 1215 77.75C1262.38 70.84 1278.99 134.7 1326.5 128.75C1364.08 124.04 1371.15 76.45 1409 77.75C1444.88 78.98 1450.33 135.96 1485.5 128.75C1512.96 123.11 1536 77.75 1536 77.75M0 161.63C0 161.63 56.45 81.27 108 85.13C154.74 88.63 154.07 168.11 200.5 161.63C240.6 156.03 232.86 70.19 270.5 85.13C292.95 94.04 281.6 132.56 305.5 136.13C332.41 140.15 327.2 93.81 353 85.13C406.71 67.06 359.83 214.41 416.5 215.63C473.77 216.86 426.5 90.86 483.5 85.13C531.04 80.34 531.39 157.5 579 161.63C632.57 166.27 640.85 74.17 693.5 85.13C725.54 91.8 727.69 141.39 760 136.13C786.99 131.73 783.48 97.26 808 85.13C874.09 52.41 873.24 234.64 944.5 215.63C1002.16 200.25 964.37 87.56 1024 85.13C1076.69 82.97 1066.76 188.46 1119.5 188.46C1172.24 188.46 1162.81 92.73 1215 85.13C1262.38 78.23 1278.99 142.08 1326.5 136.13C1364.08 131.42 1371.15 83.83 1409 85.13C1444.88 86.36 1450.33 143.34 1485.5 136.13C1512.96 130.5 1536 85.13 1536 85.13M0 169.01C0 169.01 56.45 88.65 108 92.51C154.74 96.01 154.07 175.49 200.5 169.01C240.6 163.41 232.86 77.57 270.5 92.51C292.95 101.42 281.6 139.94 305.5 143.51C332.41 147.53 327.2 101.19 353 92.51C406.71 74.44 359.83 221.79 416.5 223.01C473.77 224.24 426.5 98.24 483.5 92.51C531.04 87.72 531.39 164.89 579 169.01C632.57 173.65 640.85 81.55 693.5 92.51C725.54 99.18 727.69 148.77 760 143.51C786.99 139.11 783.48 104.64 808 92.51C874.09 59.79 873.24 242.02 944.5 223.01C1002.16 207.63 964.37 94.95 1024 92.51C1076.69 90.35 1066.76 195.84 1119.5 195.84C1172.24 195.84 1162.81 100.11 1215 92.51C1262.38 85.61 1278.99 149.46 1326.5 143.51C1364.08 138.8 1371.15 91.21 1409 92.51C1444.88 93.74 1450.33 150.72 1485.5 143.51C1512.96 137.88 1536 92.51 1536 92.51M0 176.39C0 176.39 56.45 96.03 108 99.89C154.74 103.39 154.07 182.87 200.5 176.39C240.6 170.79 232.86 84.95 270.5 99.89C292.95 108.8 281.6 147.32 305.5 150.89C332.41 154.91 327.2 108.57 353 99.89C406.71 81.82 359.83 229.17 416.5 230.39C473.77 231.62 426.5 105.62 483.5 99.89C531.04 95.11 531.39 172.27 579 176.39C632.57 181.03 640.85 88.93 693.5 99.89C725.54 106.56 727.69 156.15 760 150.89C786.99 146.49 783.48 112.02 808 99.89C874.09 67.17 873.24 249.4 944.5 230.39C1002.16 215.01 964.37 102.33 1024 99.89C1076.69 97.74 1066.76 203.22 1119.5 203.22C1172.24 203.22 1162.81 107.49 1215 99.89C1262.38 92.99 1278.99 156.84 1326.5 150.89C1364.08 146.18 1371.15 98.59 1409 99.89C1444.88 101.12 1450.33 158.1 1485.5 150.89C1512.96 145.26 1536 99.89 1536 99.89M0 183.77C0 183.77 56.45 103.41 108 107.27C154.74 110.77 154.07 190.25 200.5 183.77C240.6 178.17 232.86 92.33 270.5 107.27C292.95 116.18 281.6 154.7 305.5 158.27C332.41 162.3 327.2 115.95 353 107.27C406.71 89.2 359.83 236.55 416.5 237.77C473.77 239 426.5 113.01 483.5 107.27C531.04 102.49 531.39 179.65 579 183.77C632.57 188.41 640.85 96.31 693.5 107.27C725.54 113.94 727.69 163.53 760 158.27C786.99 153.87 783.48 119.4 808 107.27C874.09 74.56 873.24 256.78 944.5 237.77C1002.16 222.39 964.37 109.71 1024 107.27C1076.69 105.12 1066.76 210.6 1119.5 210.6C1172.24 210.6 1162.81 114.87 1215 107.27C1262.38 100.37 1278.99 164.23 1326.5 158.27C1364.08 153.56 1371.15 105.97 1409 107.27C1444.88 108.5 1450.33 165.49 1485.5 158.27C1512.96 152.64 1536 107.27 1536 107.27M0 191.15C0 191.15 56.45 110.79 108 114.65C154.74 118.15 154.07 197.63 200.5 191.15C240.6 185.55 232.86 99.71 270.5 114.65C292.95 123.56 281.6 162.08 305.5 165.65C332.41 169.68 327.2 123.33 353 114.65C406.71 96.58 359.83 243.94 416.5 245.15C473.77 246.38 426.5 120.39 483.5 114.65C531.04 109.87 531.39 187.03 579 191.15C632.57 195.79 640.85 103.69 693.5 114.65C725.54 121.32 727.69 170.91 760 165.65C786.99 161.25 783.48 126.78 808 114.65C874.09 81.94 873.24 264.16 944.5 245.15C1002.16 229.77 964.37 117.09 1024 114.65C1076.69 112.5 1066.76 217.99 1119.5 217.99C1172.24 217.99 1162.81 122.25 1215 114.65C1262.38 107.75 1278.99 171.61 1326.5 165.65C1364.08 160.94 1371.15 113.35 1409 114.65C1444.88 115.88 1450.33 172.87 1485.5 165.65C1512.96 160.02 1536 114.65 1536 114.65M0 198.53C0 198.53 56.45 118.17 108 122.03C154.74 125.53 154.07 205.02 200.5 198.53C240.6 192.93 232.86 107.09 270.5 122.03C292.95 130.94 281.6 169.46 305.5 173.03C332.41 177.06 327.2 130.71 353 122.03C406.71 103.96 359.83 251.32 416.5 252.53C473.77 253.76 426.5 127.77 483.5 122.03C531.04 117.25 531.39 194.41 579 198.53C632.57 203.17 640.85 111.08 693.5 122.03C725.54 128.7 727.69 178.29 760 173.03C786.99 168.64 783.48 134.17 808 122.03C874.09 89.32 873.24 271.54 944.5 252.53C1002.16 237.15 964.37 124.47 1024 122.03C1076.69 119.88 1066.76 225.37 1119.5 225.37C1172.24 225.37 1162.81 129.64 1215 122.03C1262.38 115.13 1278.99 178.99 1326.5 173.03C1364.08 168.32 1371.15 120.73 1409 122.03C1444.88 123.26 1450.33 180.25 1485.5 173.03C1512.96 167.4 1536 122.03 1536 122.03M0 205.91C0 205.91 56.45 125.56 108 129.41C154.74 132.91 154.07 212.4 200.5 205.91C240.6 200.31 232.86 114.47 270.5 129.41C292.95 138.33 281.6 176.84 305.5 180.41C332.41 184.44 327.2 138.09 353 129.41C406.71 111.34 359.83 258.7 416.5 259.91C473.77 261.14 426.5 135.15 483.5 129.41C531.04 124.63 531.39 201.79 579 205.91C632.57 210.55 640.85 118.46 693.5 129.41C725.54 136.08 727.69 185.67 760 180.41C786.99 176.02 783.48 141.55 808 129.41C874.09 96.7 873.24 278.92 944.5 259.91C1002.16 244.53 964.37 131.85 1024 129.41C1076.69 127.26 1066.76 232.75 1119.5 232.75C1172.24 232.75 1162.81 137.02 1215 129.41C1262.38 122.51 1278.99 186.37 1326.5 180.41C1364.08 175.7 1371.15 128.11 1409 129.41C1444.88 130.64 1450.33 187.63 1485.5 180.41C1512.96 174.78 1536 129.41 1536 129.41M0 213.29C0 213.29 56.45 132.94 108 136.79C154.74 140.29 154.07 219.78 200.5 213.29C240.6 207.69 232.86 121.85 270.5 136.79C292.95 145.71 281.6 184.22 305.5 187.79C332.41 191.82 327.2 145.47 353 136.79C406.71 118.72 359.83 266.08 416.5 267.29C473.77 268.52 426.5 142.53 483.5 136.79C531.04 132.01 531.39 209.17 579 213.29C632.57 217.93 640.85 125.84 693.5 136.79C725.54 143.46 727.69 193.06 760 187.79C786.99 183.4 783.48 148.93 808 136.79C874.09 104.08 873.24 286.3 944.5 267.29C1002.16 251.91 964.37 139.23 1024 136.79C1076.69 134.64 1066.76 240.13 1119.5 240.13C1172.24 240.13 1162.81 144.4 1215 136.79C1262.38 129.89 1278.99 193.75 1326.5 187.79C1364.08 183.08 1371.15 135.49 1409 136.79C1444.88 138.03 1450.33 195.01 1485.5 187.79C1512.96 182.16 1536 136.79 1536 136.79M0 220.68C0 220.68 56.45 140.32 108 144.17C154.74 147.67 154.07 227.16 200.5 220.68C240.6 215.08 232.86 129.24 270.5 144.17C292.95 153.09 281.6 191.6 305.5 195.18C332.41 199.2 327.2 152.85 353 144.17C406.71 126.1 359.83 273.46 416.5 274.68C473.77 275.9 426.5 149.91 483.5 144.17C531.04 139.39 531.39 216.55 579 220.68C632.57 225.31 640.85 133.22 693.5 144.17C725.54 150.84 727.69 200.44 760 195.18C786.99 190.78 783.48 156.31 808 144.17C874.09 111.46 873.24 293.69 944.5 274.68C1002.16 259.29 964.37 146.61 1024 144.17C1076.69 142.02 1066.76 247.51 1119.5 247.51C1172.24 247.51 1162.81 151.78 1215 144.17C1262.38 137.27 1278.99 201.13 1326.5 195.18C1364.08 190.46 1371.15 142.88 1409 144.17C1444.88 145.41 1450.33 202.39 1485.5 195.18C1512.96 189.54 1536 144.17 1536 144.17M0 228.06C0 228.06 56.45 147.7 108 151.56C154.74 155.06 154.07 234.54 200.5 228.06C240.6 222.46 232.86 136.62 270.5 151.56C292.95 160.47 281.6 198.98 305.5 202.56C332.41 206.58 327.2 160.23 353 151.56C406.71 133.49 359.83 280.84 416.5 282.06C473.77 283.29 426.5 157.29 483.5 151.56C531.04 146.77 531.39 223.93 579 228.06C632.57 232.7 640.85 140.6 693.5 151.56C725.54 158.22 727.69 207.82 760 202.56C786.99 198.16 783.48 163.69 808 151.56C874.09 118.84 873.24 301.07 944.5 282.06C1002.16 266.67 964.37 153.99 1024 151.56C1076.69 149.4 1066.76 254.89 1119.5 254.89C1172.24 254.89 1162.81 159.16 1215 151.56C1262.38 144.65 1278.99 208.51 1326.5 202.56C1364.08 197.85 1371.15 150.26 1409 151.56C1444.88 152.79 1450.33 209.77 1485.5 202.56C1512.96 196.92 1536 151.56 1536 151.56" stroke="url(#paint_linear_9_5340_0)" stroke-opacity="1.000000" stroke-width="1.000000"/>
	</g>
</svg>
